<mxfile host="app.diagrams.net" modified="2024-07-31T12:52:47.091Z" agent="Mozilla/5.0 (X11; Linux x86_64) AppleWebKit/537.36 (KHTML, like Gecko) Chrome/124.0.0.0 Safari/537.36" etag="6N1csYptlMNs8h1T8Bh5" version="24.4.9" type="device">
  <diagram name="Page-1" id="mTkfuRx2BCqi0YIt4FoB">
    <mxGraphModel dx="3713" dy="1283" grid="1" gridSize="10" guides="1" tooltips="1" connect="1" arrows="1" fold="1" page="1" pageScale="1" pageWidth="827" pageHeight="1169" math="0" shadow="0">
      <root>
        <mxCell id="0" />
        <mxCell id="1" parent="0" />
        <mxCell id="5XS556nmQgQ2dr4hD8sf-1" value="" style="shape=image;verticalLabelPosition=bottom;labelBackgroundColor=default;verticalAlign=top;aspect=fixed;imageAspect=0;image=data:image/png,iVBORw0KGgoAAAANSUhEUgAAAgAAAAIACAYAAAD0eNT6AAAAAXNSR0IArs4c6QAAIABJREFUeAHtnQe4LUWVtj+v5AwqSBQRFUFQwICkwYQBCSIqOiPGwcGZERgQzCCiXIKAOujgGAYjoiKIjJgliQEFCWIAJEkQkJzR+fu79Pbfd3v2OTt0V63ufut5zrPD6V3hXV+Frq5aJREgAAEIQAACEIAABCAAAQhAAAIQgAAEIAABCEAAAhCAAAQgAAEIQAACEIAABCAAAQhAAAIQgAAEIAABCEAAAhCAAAQgAAEIQAACEIAABCAAAQhAAAIQgAAEIAABCEAAAhCAAAQgAAEIQAACEIAABCAAAQhAAAIQgAAEIAABCEAAAhCAAAQgAAEIQAACEIAABCAAAQhAAAIQgAAEIAABCEAAAhCAAAQgAAEIQAACEIAABCAAAQhAAAIQgAAEIAABCEAAAhCAAAQgAAEIQAACEIAABCAAAQhAAAIQgAAEIAABCEAAAhCAAAQgAAEIQAACEIAABCAAAQhAAAIQgAAEIAABCEAAAhCAAAQgAAEIQAACEIAABCAAAQhAAAIQgAAEIAABCEAAAhCAAAQgAAEIQAACEIAABCAAAQhAAAIQgAAEIAABCEAAAhCAAAQgAAEIQAACEIAABCAAAQhAAAIQgAAEIAABCEAAAhCAAAQgAAEIQAACEIAABCAAAQhAAAIQgAAEIAABCEAAAhCAAAQgAAEIQAACEIAABCAAAQhAAAIQgAAEIAABCEAAAhCAAAQgAAEIQAACEIAABCAAAQhAAAIQgAAEIAABCEAAAhCAAAQgAAEIQAACEIAABCAAAQhAAAIQgAAEIAABCEAAAhCAAAQgAAEIQAACEIAABCAAAQhAAAIQgAAEIAABCEAAAhCAAAQgAAEIQAACEIAABCAAAQhAAAIQgAAEIAABCEAAAhCAAAQgAAEIQAACEIAABCAAAQhAAAIQgAAEIAABCEAAAhCAAAQgAAEIQAACEIAABCAAAQhAAAIQgAAEIAABCEAAAhCAAAQgAAEIQAACEIAABCAAAQhAAAIQgAAEIAABCEAAAhCAAAQgAAEIQAACEIDAiASWlbSBpG0l7SrpLZLeI+koScdJOqX4348l/VLSZeXflZL+XP7dJen/yj+/733va3rX+7dnl3E5Tsf97jItp/n8Mg/OCwECEIAABCAAgQoILCZpI0mvkLSvpI9I+oak88vOutd5R3m9WdJ5kk6W9GFJ+0h6eVkGl4UAAQhAAAIQgEAfgUUkrSNpe0n7F+8/K+nc4v09fXfoUTr5SfPxQDmr4FmJ+ZJ2K2YVNi3eL9HHgbcQgAAEIACBVhNYrezsD5T0XUl3t6ijH3eAcH852PGMgQcFfqRBgAAEIAABCDSegO/utyzv7L8u6doOd/ajDg7M6MRiYLSfpM0lmSEBAhCAAAQgEJ6Ap/N3l3SCpFvo8P+20HDUAcDgdXeWMyV+POLHBg8LrwAyCAEIQAACnSCwQrkK/1OSrqLDn7rDHxwADH72LoVPSnplsSth+U4ojEJCAAIQgEAYAo8on1l7Udt9dPq1d/qDg4De5wclnVXMtOwp6dFh1EFGIAABCECgVQTWLKf23el7VXuvE+I1Bou/lIMBPypYt1XKozAQgAAEIJCcgKeY/TzfDnX+SqffmEGPbeWZgTdJWi65akgQAhCAAAQaSWBeuXL/2MIBjxegcYffbAb2p+AFmfazwI6CRlZJMg0BCECgXgKPLzqIg1nI1+oBjxdpvp9HBPVWJGKHAAQg0AQC3lL2vPIO0QvKuNvvBgM/IrATJs8KsK2wCTWVPEIAAhCoiIAPr/Gz/Yvp9Ds/6Pl96ajJ2zkJEIAABCDQUgJeHX60pNvo+Dvf8Q/O9txaLBg8UtLjWqp9igUBCECgkwTsY96H7DDN340p/sHOfZzP3k7orZ4bd7KmUGgIQAACLSGwIR0/d/oTzvZ4nYAHAk9rSV2gGBCAAAQ6QeCp5cI+9u5zxz/O3f+wa71g8JmdqDkUEgIQgEBDCWwi6bQJ7/iGNf58zyCip4H/leTBJQECEIAABIIQWEOSHffwjJ/OutdZ1/XqWSU7FnpsEO2TDQhAAAKdJLCipPnFNi57e6urwSde2M6kAR8C9eFiVwnbBzvZ9FBoCEAgF4FFy338N9DxM/DJrIGbSz8Ci+eqDKQLAQhAoCsEXiTp0syN/kx3hHzX7ZkCOxR6QVcqIeWEAAQgkJLAquWWPjrabne00e3vrYNrpawYpAUBCECgrQR8gtueeO9jqr9Bsz4+RXJ/Th9sa5NEuSAAgRQENpX0swY1/NHvTslf2tmT8yU9K0VFIQ0IQAACbSGwtKRjJNktK50WDJqsAWv4PyVZ0wQIQAACEJiFgO+YfkvHz8CnZRq4XNI/zKJ7/gUBCECgswSWKPf048yHO/4m3/HPlnc7EbLDqqU6W8spOAQgAIEBAhtJ8vPS2RpP/geftmjgYg4ZGmgB+BiagJ1cvFDSBySdIekKSX+W5NWufygWuny7PGd9G0nzQpeEzEUi4BX+75P0AJ3/xIOf68uFkl8tnzUfVO6aeI2k7cpFaE8stlCuI2nNwnudvSf6r/8u1O973/saX+vf+HGM43BcexV123H7efbXiu9/LglHTJMPyu4vNH8AOwUiNUfh8+K+9dllX+s+132v+2D3xe6TTy/0dHDZVy9WRWns5vL9km4co4G+StJ7BxqYKvJCHO0isHo5mGzLXV2d5bhOkk+kO7r0gPj8soP2Y5PcYUlJ60natsyb8/g9Sc5znUzaEvePJK2W24ikH5qAB+geLF49Rp36Uzlgn9hV9avH7PgHK6RHJC8NjZXM5SLgzsICHdRM1z97xbinhz9d3F3vUS4aWymXkSpI9xFlGd5SlunXxc0BRzT/ve49k/K8CngTRfsI7CzpyinaSrezu46DxdOyH5siwcFG3HE5TgIEHl7OKLmjG9RJFz/fIunUcsbMg6LlOyAR35HYZa5nCX287q1oYUFdcJ3w4zDXEQIEfN6JF4xW1S56W/Wc/bAT9bPEqhLtxfOVURLH5q0msLKk79SgrZ7GmvDqHQ7nlrsdfMfn+tb14A7PDp/sOc+POXzKXhNsWVcef1g0/HZ7TeguAXfUWfrhj9dY+T5fjHAf1l2bdrrkW0vyYrW6Gs3I8f6xdGr0EknLdFoFoxV+WUnbl7OQ13ZUM14/sdVouLiqZQTcR/oRYF1t2ieH8fKzhroS7cXrXQSEbhF4Uwfv6rz+xWfFb8mumKnE7lXPnh04sIPOoTwT8oap6PHjJhJwH9nrL+t63XEQjFfyektBXQn2x/vWwcT53EoCntr1ivB+27f5vVfoflDSxq20ZoxCbSLpEEnXdEhXH2JdQAzxJcjFmxPp2osKF3JN7S0GqRpnPwdld0ACNWVMwtO430ioqVTaHUznXkknlFPWcy6wyWiPtiXtmQHPrniRlPdBD9qlbZ9PKwbTE2/napvxW1oe94kpvaC+p8fRlcl791NWmnt4xtXD37rXdSV5u1dKPaVOyycUerROo5xfvraBbdH2UyO9PfRx+XGTgxoIPFPSXYnbTM8CuO/XcxIn3Gusvf3HLmAJ7SHgw05uzqSnnq7qevUz2S9KcmUlxCSwWWkje9mrSwc5472JG6eYwpsiV+tnbDMXLDTN+ZzWoxB7hCM0n8AOku5uYcNrJy3zSze6zbdSN0qwSrmtsI1rBfzYaZdumLH1pXTfN42Tn2kHo15fkn1v9kWlH/LWW7vFBXxj4udX0wp/lN9fWq7C9jkYhGYSsO28C+Wylg1MfXbG65tpEnJdElguwAFodsS14BCBURrEOq+xP+wIfs1R5/gE9myZe1d3FrvjuGp8IQT+hZ91vlzSJS0aCNilsrdHEppHwAf12OlVnX3qKHFfbnSpFx8My9iXe4sSmmfPTubYDisOCyDiYXoa93vPRO3GlqtWa9kDATsZ+kWLdGt/EwsWc7Xacu0pnG3lvm7c9qmO672DJtSiLZ8bQIhPwFvejgsi4mkrhv1f+OArvFTG111VOXQj/E9BZj+n1a9/77rINtSq1FFvPEcFajd9UNBYRwxWIda54nhbvfyJfUoCbjy9Gn4uO0b/v8/Qtv95Hj1NKYgG/9xTsX7c04aTKe07noOEYotxv2Dtpm9+dHqwTPnZ1mtj27HTuWv6tL9XUR/OwtNOa3iw8D5y+UhJ1kb0gets+bOXREJMAj6SN9opqN83qhS+h2cT7Uz/8z5eHxlKiEXg2Q1f8PfNYrr0sbGQkptABOxoxyujZ2qTmvCdb57si4MQi4DbzYiDSx8/vaCjjSju2/CrHkrFnvr3UbYRtTJXnnwinxf4ESAwCgEvFMy5P3suPc/2//NYFDiKiZNd47NB3JfNZrNc/3u+Kfg5mJ2d5MrEbOn62dzjk5mKhGYj4EVTs9kq4v+8X/oIjuGdzaz8bwgBn2fhxwLWUERtz5anfxxSJr5OS8CzjT7aeTZb5fqfj2dftIfDUwG5MjJXur+R9MheRnnNRuCswBqZSUP2DY+r6WxyaU3CT5H084Zp/4zW0G9uQdxnue+aqW2K8N17+9H6QI3IK2HPKfacL9WfYd4nJWDXqtEWsAyrRL5js+vev41uk5IisTYS8BY77xjxeRDDdBfpe9fVR7fREA0pk/sq91mRNNGfF9/92xPhQsGrFPsvivbex8uy13UhkyX7YHeq0fQwU34uYN1IMk10MaFNCj/8dhg1k/aiffeGLhooQJndR0U/Ct1eMWcMxwQX93/PmGu+rJuAn6NHa+D68+M7HntEw29/3Uogfs8s2QVvyrPb+7U+6vtDMVUWAv8ZvK386GxU7EjipOAFwP/1bBas539RXFfO1PhdLWnLeopNrBAYSsDb7by7ZCZNRvju+KE55x91EXDfFMH2w/LgLa5zzqL7+cWPgxfkX+uyIPHOSMCHNQ0TVc7vT5P0qBlzzJcQqJ/AygFOUx1W/35Yf/FJoY9A9MekXsi6TF9+Z33rFYy/DdroW/CefnvprCXgn1USOCWYFmx/j7btm4AAgZwEfIaET8SMtl3QM7mENAS2C2j//oGhTzj1Qu6xwjqSvFqwP6JI7+8ujlTcYqwScfGkBP4nkA7ss2KBA4tJC8PvIFADgWiPBD5VQxmJ8u8JPEOST9WL1Df25+XG4uyWJ/x9tkf7ZlNJdwQu3E2S1hutKFw1BYGDgmjgJ5JWnaIc/BQCdRJYTdJPg9QV1krVaemH4l43sBM9DwLukrTZtBieE3z/6+V0CtOaeM7fbxOgUfOipiXnzGk3L/Di3TXLxZD22PjOclfE5ySdWu5J9iM9L5j0KYj+8wxa707B73vf+xpf633M/u1nJR1dtAHvkGQPc15w6bQ4eW5mrXknipn12OZ63Wrm7PFtRQS89uj3Aew8TF8+T+eFFZV1wXnpPmhiWGK5v/f+bzszItRDwO6ib89kf+vOdzN+1tr14C1o9kz3qvIQr6+XjVCO589O0w3giWVe7EfEecMB00NateOgXM6zXFexQ32thd1E/zJTezhKX+s28/VVF993FaMknuuaH7APvGqTLxSfnymmtq0fP+20UC669eExkl5Z+qQ/u/BGd08GG4xrc+fRef2QpFdIWqtbJluotDtnej6Mv5SFzFDpBw+svh28Hnq2rpZgZyvjNggpr/8SK8Nrsbsj9VGpKe80vQDVJ2l1KfjOwifRHVucXuhHWynrTp1pXVtOi9sD2UpdMqgkr6NKediap3458roekXkW8rjg9fK/6in6Q7F629VXggM4rE4AHY871SyAOz8vsOlCWL8YWL1Lkg8vyjVlXGfnPxi3t3B6oZxnFLuygNcnmqYa0HH3X1+rcXjwvu/kFGtzlpDk06YGK3akz3vXp4FOx7yipKtqtr19ra/ecsqe2fhgMb1/Sc0sI9XJYXn5deGd7ODCA+lTW25zH85zXs32tmfCR7ScY67ivaVm2w2rH6N+7x1SyQ7MW75wxPOrwEC8COI1uZTS8nSfXm4vGVWY41xnEbe1AfPU9+7BFw+NY6s6rr24PHVvbKclDalzXqhc182T1148qyEcmpZNr2WJPDvnepP80Zrv0q4MPAjw0Z04jKmnqtnzVdUL0jx91bZtfn5k9pLydLCU6yfq6JxTxunn2NaDddY2b4/WuMtWJU9v43xxPVW987HawdO9FdurStt71seLhbOEDcr9w1UWqMq4buvA1GIWw5deGKs4DMWzNUemeHaVEJTP2vbdvqe3q9RzF+O6tJwVSH6HU6Ne7EPhKEnW/rQ2vYY7/9os1YT+zVtvs4ata7gbnLZS9P8+6wgpq2XqT9xnRvgI6Unvbj11VZmzivqLO2cKa5c8InvP7K8bTXrvve0fyXm3M6f1x7/gRVMMEj1L4qNd2/rIbHya1f7CM9x1r3eapv55hvt51RZ58th2DH4+dpZnJJPjbNwvn1huj7llxDuaX5T729syvettV94iG3mqcJrGJtJv3fHZ097E/s2D1S7XATt2cp0YhbM9NvpsjraUP5g5FmQn+ho3r0fwltpQYY8RBTyKyOu4JukqyVCWSZcZewx8QZGcPfe5kfq+JDto8tZRzxS8tmVum90Ifz744LeOuhQhTs86eSDgLXZtCT5L4HWSPlbWGR/p6zr0maKArlPb4uGvdlN7jcaZwfuyvWqnMGEC3oMfoXEYlodvFFuOFpmwbPwMAj0CfvQxP/gZGcPqQNu+94yAHSd5mx0BAtMQ8GzMV4P3YYdOU8C6f2tPSZGOjp2psXNjQYDAJAS8z9Y+3r24dCZt8V0+Lj6S1YMye1MkQGASAl5jErkOf7EJu2LsK/m04CDthYwAgXEI7CLJK64jNxDk7aGFW/bBT4DAOATsjTNy/WnUWTcehY+6qCUHdG+/ecM46uDazhJYpzwWN4dOSXPyRtnPzr04lQCBuQj4mOsqtmTWVV8bedqtz0v+XeBRlX2Se/cCAQIzEfBM1rsl2clKXRWbeOtla9v5zo6jcWdSON+ZgLdiTrqNOUX99RkSjV3f4hPkUp6ENa5B7sKJBq3ADATsAORcOv7WDHzstrztZw3MIGO+moPA0yRF9tlxUxtmsew73gt0xu2cU11/I3tq56gm3fm3PbR5kR/7+ePW10nbBe8W8FY625gAAT/a85Hjk+qp7t959mrztpjJPr0jT7NcJqmtB5C0RUN1l8MNwjmBG4S6G5yuxH92sVPJHhsJ3SXgbby/DVzX/Xj6pW0zz5sCA3fj5ynfZdoGnfKMRGCH4GdadKVzTlVOb+MM50ltJKVy0bQEvJU3+kD/X6ctZNTfHxB8EOCVw/ZmR+gGATuF8t7xyCuAU3WKXUvHNrf7Zup7N+q6S+nFoN8K3ge9t+3m8AEWkRubL0iyQyNCuwmsUawA/mlwLUauJ23Jm12E++AXQrsJuE3/dPD6/ol2m+Ch0nkRzonBDfGBLhiiw2XcOPhJX23pXJtSjmslPaPD9aELRf9g8D7nm11yU+8DF84KbpC3dqFWdLCMr2Rvf+gZuFyDBu/82K2D9aELRX5z8L7GM5FLd8EQ/WX0OdaXBDaMj1y0+1dCOwh4CtB3ATzvj/0ILtcAwOlaGwfzCLAdFb4shRf4elV9Tl3Nlvbvi9MfV24V8TEK4+ewVwc2zj3FcZxbjVEeLo1JwI+dPhlYZ7M1EPwvfeP9ObwHxqzIY+bqmZLs7C1qHfKjp85vSd1Q0i2BjXRrsWZhozGFx+VxCCwu6WuB9RW1cep6vk6R5C1jhGYSWF/SzYHr/e2SvBaJIOnZwb2v+RS4tbBU4wisIOnMwI1A1zvZ6OX3DgE7jSE0i8Bqkq4IXO/tlXLbZiGtP7e7SvJz96iNwkXFvuEV68dAChURsK3OD6ynqDonXwu3QedR7yuqkWmiWS54vfc6ExabDtHCvsEb7NMLxzFLDMk7X8chYIcf0XeZ1NXRXiXpu5I+VdQlO95yY/NiSZtJerwkL7714Mg7cXrB7/2d//eE8lr/5rVlHI7LcUZer1MXT8d7BmsCelIJ/WqnTtZpnVqYNu59QhMMkLkjgxvwJA4UCaCS2bNwSHANTduI+Pe+k/i1pM8Uh5r8S3lwyPKzY6nkv36s4kNK9igWMP1PuZOnCzsrrClCXALzJJ0QvN4fExdfnJx5u9ZngxvyY3FwkZMBAj7Up62n+fkAk/8spjh3kuSOOErw7IEPL3ED97vgdXfSwZcPM/OCZUJMAkcF192XJXmQQhiBgKdyvhPcoG8boRxckp7A8cF1M04H5DUxPy6O0/ajscelRzlxiusWzpb2Kw9dadPswNcnJsIP6yRgrY1Tr1Jf+yNJ3o1EGIOAF3N4AU5qY42anhs2PyMlxCFgvxJt6HDsIGv/lviot03eIek3gevyqHXeAzKvMCfEIfCq4IvHL2QR6eRiacJ2jhdMXjx+WTGBf2twJ+PHFn6m/qyKmUSKzmsHjmv4I5q3RALa8bxE3z7uRbNrdtxGUxf/SQ1w6LDJ1KUkgioI+DjnUe/molxnb2Dv6pg70FWKu7b3SLqugfbyo0lCfgJNcCDHmpGKdBLdpeOfyi1WFRWXaCYkcFODOhRv19tzYDvehMVu7M+81mf3hp3MeENjabcn448NPni0C/kt24M7Rkm2L+6UvBI3yp3bYD4u7dhdXAxV/P9c2G3roE0ifvZdr7ftufMjPETAC6T+teByfQNs6DUm/T4UsGFaAvZVEXk9ideJvCwtku6k5ruFiI16L08/6+KxjkHkZwc2PTtEfL2j4HSgpGWC8IqYjWWLrVIHFbse7gxuS+9yIKQn4IHX2cG18e/psXQrRR/XGbGB7+Xpm8WRoot0yyQhSuvFNj0bRHv1HmBWj48uE+8c+Gpgezp/hLQEfKLniYE14Tbn/WmRdDM1Owqya9JojXx/fv67m6bJWuqlA2rCj4XYJTK5LF4kyQz761aE97gDn9ymk/7SDrAi2H5YHj4vyX0TIQEBjwbtkneYMSJ87+leQloCtwXRhJ8Tf5jjZCsxvtd2fDSQf4c/V1IqIhmHwPuC1Oth/cr/Mus7jjmrudYNg72kDTNKhO+9L52QjsA3AujhD+Xx1ulK3Y2UnhPkiFffeBDSEfjnAHV6tr7k56zrSSeGwZR8VnfkFaEPlj7SB/PN53oIeAHObJW17v+5c7BffEI9BOwdNPeBLzgCqse2M8W6XQN2ftmnBSEjAR/+Enn70N3FEZVbZOTTpaTXluRBV90d/WD890l6K88Ak0jNz1n3KtwLm/mgHer+fD+e3ZLY2Ik8I/hukBvLo7OTASGh4QQ2leRtVnU3AJPGbwc16w3PPv+pkMDXEuvAg0+7uCWkJeBBtZ3yTFonJ/ndJ9IWsbOpeZtlatuOo4e7JG3WWesELbifEea4KxhVOPYLzfah+sVj19GpHEb5sKq16i8SKQwh8JjiEduvEg0CfPfvGSZCvQRWLQ5Z8zqaUdvV1NdZBy+sFwGxT0rg1YFWC88kzAuCneM+Kefov0uxavgUnD6FkIEdK52aoMM4IERp250JO4L6ZQJbztQ2j/Kdd/e8vt0maH7p3hlYQBbZDzgbunaR2RHTd2vUgU/tw9lT7WYcOYFFy1MGR2nEJ7nGBwBh75HNMdGFtuG3a6yzk9h98Dc+1prQAALegz1ovEifv1S4PJ3XAI5NzuLykuyauWq7H85iv5Cy8OJA26Zqe/9UkrVEqI+Abedjoqu2XZXx/Vd9xSfmqgm4c/1KcEG5sSLUS8DbxqqaHvazP7aA1WuvKmK3742q1oD4MY+npQn1EjgieFt9cuHm187nCA0iYHedZwQX1t4N4tnUrHow6C16N0+hBa/deHpTAXQw3z4+/MIp7O1dOx5I4Nq1fvF4UF3lnXrVcZ2DR8/6RVBXCp66S7VKeBLheVHJa+oqPPEuRMAOejzrYleuo9rKHf/LeVyzEMemfPDA7xVjDgSsjcNYqJvMxLaPj88dtT6mvu5iSSslo0FCtRBYvVi5eWVgkXnr4vNrKTmRzkTAi422lXSMpO+Xh83Yh8R1ki6S9K3CAcm+xcljG3EHOBO+xn3nu/inlDa1bT0zcK2k2yX9TtL3JPmgGddBa4OQhsA/SLo3cLv8R0neZkpoAYENxrzzSz3S9CE2T20BZ4oAAQhAYC4CT25Ae+xBI6FFBLaWdA8jzhZZlKJAAAJNI2BnaFcFboc9I/u8pkElv6MR2DGTr/hRZxR+zTOn0QzJVRCAQOMIeE2W19WM2h6mvs7rEbzmh9BiAnsEFqAF/xNWnbZYfRQNAt0ksKSkM4O3vT5kitABAl7pm3p0OU56Ptcez2MdECJFhEAHCHhHxleDt7mHdsAOFLEk4JXBduc6Tqec+tpjsRYEpiBgxyVeWPrK4rHXu0u9n1VsjfNjpivKRVh2buQ/b3/zd/6fr3HdeFf5W8eBE5QpDMFP9ZHgbe0X2erbPZV6y89pwYXpRpgAgVEI+C7LR+RaM9a1t7lVNWh1XN5C53M2nIbTIkBgFAIefFalwzri4WyWUazY0mvs5vMXgQVqR0FvaCl7ilUNAW9xnS/J+5braCBnivNGSZ6h2hJfCdUYsaWx/GMDTmflnIeWim/UYj2qdAgyU0MX4bsHJXn3AgECPQIeuHrB0mUJO/1hdcF52FOSj+UlQKBH4EUVnskwTHvTfH+5pEf3Mstrtwk8TtINARrTYYK+qzgq81ndNhGll7Raebd/S0CtOk+eiVgVS3WewNMk2bvmsPYs9/c+6+GJnbcSABYi4MNe7gwsWk+7ItqFTNaZD0sVTqz2D96o9hp1D1Y9EOAUvc7Ic6GC+mbq+sDt6N2SNl8ox3yAQElgu+DTVp5uXQVrdYaAd6vYMYlX6Pc62Ka8XlP43N+dBYOd0aoL+khJvw2sVT9O3alTFqGwYxN4Y2ABu/E/l+etY9u0iT/wQO/U4FocZTDyXUk+kIvQbgKepfLRuaNoItc1PnqYAIE5CRwQXMg+xW6xOUvBBU0lsHPAvWJ/AAAgAElEQVRxHr2fU+ZqKKtO1+sDXtVUY5DvOQl4S7W3iVatmyrje++cpeACCPQR+GhwQX+BLVh91mrH28UlfTK47qZplL11kIFrO7TaK4UfU306uGY/0cssrxAYlYC9n30tuLA/OGphuC48gZUk/TC43qbp/Hu/tadBb70ltIPAIcE1ewpu1dshtByl8AEWbrB6jVfE17fmAEOalRJYp3C7e0lwnVWp/d+zo6VS/eSK7M3BNftTSUvngkO67SDwiOCNs4+w3KUdqDtZio0k/Sl4Q1pl59+Ly2XesJMWb0ehdwh+tLoHmSu3AzWlyE1gDUlXB26k75G0VW5IpD82gccEd0DV66zrer2ueH681tjU+EFuAptJsr+HunQxbbzXFgdarZ0bEum3i4DvViJ6YOtVllsl+W6S0AwCXmPys8CNaE9Xdb/+hNMGmyHYMpfrS7o5sG59cNXGjSJKZhtDYBtJ9wYWv52vcEfVDDlFf35ad8ffH/+bmmGyzufSrqgjO6Xy0dbbdt5KAKiVwK6S/Ny9vwGL9P4iSSvWSoDIpyVgN7me/o6km5x58Tkcy00Lld/XSsD2OT+wZn1y6m61EiByCJQE9g1cEdyQn174Y18Ca4Ul4JP8cna4EdNmN0tYuS7w3WCPjhF108vTPnHxkbM2EjgyeIU4iWerYWV3dnDt9BrVlK8etBLiEZgn6YTgej0mHjZy1HYC9oD12eAV42NtN0IDy+fnqJEfIaXs9PvTMhPOZ48n6KOCt3HHc+BUPNF0JUd2a/qd4BXkbV0xRkPKuX1wvfR3yqnfv6ghNuxKNvcLrtUfSbL7bAIEshHw4pjzAlcUL455bTY6JDxI4N8DayV1hz+Y3h6DsPicjYAPb4o8U3Uhi52zaYOEBwg0YXvMCwbyzMc8BA5lADB0Mdn8PCYh1QECzw6+3dlO2dYcyDMfIZCVwJMa4CBjk6yESNwEPsAAYOgA4P1IJDsBOzyzU7HB2Zkon503XEhnlwkZmInAMyXdGbjy2P/642fKON8lI+A1GVEa02j5+I9kViChmQg8Nrh/irslbTlTxvkOAlEIeJHXA4Eb+Us5JCOrVF4XWBu5BwSvyWqZbifuQ89+E1ibXo+wc7dNROmbQmD3wBXJjbx90HNMZh41PSG4NnIOAnwsMiE9AR97Ht03hRfPEiDQGAIHB2/ovylpkcbQbFdG/xBcGzkGAfYxT0hPwIdSfT24Hlkbkl4XpDglATsK+lTwivXJKcvIzycj8JHgusgxAPjwZCj51ZQE7EUvh71HTfNzktyWEiDQOAIeXdsl76hiz3HdgY2j2vwM+8TG+4LrIqUWfYob57en1/X7gmvwf5mlTC8KUqyWwFLFEZU/Dl7R/q3aIhPbCARSzw65k/2hJO9C8Epq7wbxOhD/+f1W5f98TepFrP89Ai8uqZbAPwdvk34uaZlqi0xsEMhD4JHBV9g+yArb5MJYPZHfiLskHSbpUWOU0NceXgwI/Nu6ZwJukmRHWoR0BF6SYZA3jo68U2mVdDhICQL1E/AK58hnwHuP7Rb1YyCFPgI71exu9cQpG1IfzlPnAjFv7dqhjwdv6yfwjAb4KvFOGQIEWkdgU0l3JLirGme03X+t78bWax312AV6qySf19Bvh2nfe0Zn/4oWT3kB1tslOc5p89X/e5fZZSekI7CupBsqtmO/Tad97xmnzdLhICUIpCfwnOALwOxne430WDqdop/H+hn9tA2of29XqXWc++A4b6soj14A+aZOWzx94VctDgWLvP3U+n9heiykCIH0BF5dw11fFZ1HL44LJK2QHkunU3xWsQ7D3Hs2mOTVi03rdPXsqdmfTJlHl5G7vLRSX7Z41PLLKe02iR5H/Y1ng16fFgmpQSAvgXcErpCuuF4NzlnbaTXibaNvnmCtiBt3u0mdlyC7TuNlExyBfa0ke8h0GQnpCCwq6dvB2xo/YiJAoHMEjg5eMb+UqFPpnOHnKLA9ND6vWMD3cUmXFM/z7xnQiZ/H253zIZJ8dGsORylO02n7CN9zZ1gj4Dz/ujh34mOSnkvHP4fF6/m3bXTcgHZGvStPdZ01ToBAJwn4buorwSuot4MR8hPwM1w7y1kuf1aG5mD5Mo/OKyE/gSOCty0nMzDMLxJykJfAEpLOCF5R986LiNQhAIExCbwleJtyTuGfwk7SCBDoPAHfOf0qcIX1Ih2Oau28TAHQEAKvrNm/xLSPBy6WtFJDWJJNCCQhYM9wVwYeBHjr1vOTkCARCEBgUgLbFH4b7g3cjvxR0mMmLRy/g0CbCWxQOEf5c+DK633gT22zASgbBBpM4MmSbgnefjylwXzJOgRqJ7D1DKu+p51yq/L3jOBrlwAJQGBsAnbedVXgzt8ziN7ZQoAABOYgsOMM26qq7MSnjcvbu3iGN4cR+TcEEhHwGqJpnUhN2ybM9nuf+fDyRCxIBgKtILBH4NG8K7s9wvkoWQIEIJCPwJKFn4Uzg7cVe+XDQ8oQaC6BQ4NX7FMk2WkNAQIQSE/AfkS+FryNsKMoAgQgMAEBe/L6n+AV/NgJysVPIACB6Ql8JHjb8MVMXiqnJ0sMEAhCwL68Twte0d8VhBXZgEBXCLw7eJvwA84S6YoUKWfdBHya1y8CV3g7CnpD3RCIHwIQWEDgnxpwmqgXJhIgAIGKCDxK0u8CDwJ8QI13LxAgAIH6CLxY0gOB24HLJT26vuITMwS6S+Bxkm4IXPnvKo4e9bn2BAhAoHoCT5N0R+D6f5OkJ1ZfbGKEAAR6BJ4u6c7AjcCNNAI9U/EKgcoIePB/feB6f7ekzSsrLRFBAAJDCWwXfBrwMqYBh9qOf0BgXAJ+/PfbwJ2/H//tNG6huB4CEJicwBsDNwh2FHSupGUmLx6/hAAEyiNzfXTubJ72cv/PRw8TIACBxAQOCN4wfF/SYomZkBwE2kLAW4C/FbyOv7ctsCkHBJpI4KPBG4gv4AykibIiz5kJ2AnYp4PX7U9kZkTyEOg8gYc3wB3oBztvJQBAYDwChwTv/HEDPp49uRoCtRHwgSBnBW8w9qyt9EQMgXYR+JfgdfmnHATWLsFRmuYTeISkSwI3HD4SdJfmY6YEEKiVwA7BjwL/vaSVayVA5BCAwEQE1pB0deBBwH3F0aXPnahk/AgC7SewlaR7Atffa4vDydZuvxkoIQSaS2BDSbcEbkRulbRRc/GScwjUQmB9STcHrre3S9q4lpITKQQgUCmBbSTdG7gxuaZY4bxWpSUmMgg0l8Bqkq4IXF/vl7Rtc/GScwh0j8CukvzcPbeTkGHpXyRpxe6ZhRJDYCECyxVe9M4PXE990uduC+WYDxCAQCMI7Bu4YfHA4HRJSzSCJJmEQPUE7CTre8Hr6D7VF5sYIQCBVASODN7AnCTJvgwIEOgSgXmSTgheN4/pkkEoKwTaSMAexT4bvKH5WBvBUyYIzELgqOB18nhJHqQQIACBhhPwVON3gjc4+zWcMdmHwKgE9g9eF38oafFRC8N1EIBAfAJebHRe4IbHi41eGx8jOYTAVAReJclaH7Y4Nvf3F0paYaoS8mMIQCAkgSZsN3pBSHJkCgLTE3h28O25diK25vTFJAYIQCAqgcdL+lPgOxA7HNkkKjzyBYEJCdhBl51g5b7DH5a+nRA9acKy8TMIQKBBBJ4p6c7AjZEHKB6oECDQBgKPlXRd4Pp2d7Edccs2gKYMEIDAaAS2l/RA4EbpUkmrjFYUroJAWAKPlPSbwPXsQUk7h6VHxiAAgdoI7B64YfJU5c84drQ22xNx/QR8TPfZwevYv9ePgRQgAIGoBA4O3kB9U9IiUeGRLwgMIWDnVl8PXrfePyTvfA0BCHSEgB0FfSp4Q/U5Sc4nAQJNIGCtfpI61QRTkUcIQMB3K3bJO2yFcITv34eZINAQAgcFr0unMqvWECWRTQgkIrBUceTnj4M3XP+WiAXJQGBSAv8cvA79XNIykxaO30EAAu0lwIrl9tqWktVP4CXsrKkfMilAAAL1EVinAXuWt6iv+MQMgYkIPKMBvjWeMFHJ+BEEINApAptKuiPwVOZNktbrlEUobGQC60q6IXB9uUvSZpEBkjcIQCAWgedIui9wo4bf8lh66WpuVi0OsfpD4Hpyv6QXdtU4lBsCEJicwKs5uWxyePyy9QSWlfTLwJ2/Tx18XeutQAEhAIHaCLwjcAPn7YmcXV6b6Yl4FgKLSvp28Lrx9lnyz78gAAEIjETg6OAN3ZckzRupJFwEgekJ2NHPccHrxMenLyYxQAACEHioc/1K8AbvCAwFgUQEPhS8Lpwsyc69CBCAAAQqIbBYcWTo94I3fHtXUlIigcBwAm8JXgfOkLTE8OzzHwhAAAKTEVhe0q8CN4Be9PSayYrGryAwJ4FXSvpLYP1fLGmlOUvBBRCAAAQmJLC6pCsDN4Leuvj8CcvGzyAwjMA2ku4NrPs/SnrMsMzzPQQgAIGqCGwg6c+BG8PbisONnlpVYYmn8wSeLOmW4Hp/SuetBAAIQCAZga0l3RO4UfQd0drJaJBQWwmsIemqwDr3jNdz2wqfckEAAnEJ7CDpwcCN4+8lPSouPnIWnICfp/86sL69HuHlwRmSPQhAoMUE9gjcQNpR0E8kLd1i/hStHgJLFnfWZwbX9l71FJ1YIQABCIxO4NDgDeUpkhYZvThc2XEC3kP/teCant9xG1F8CEAgCAF7RvtM8Abz2CCsyEZ8Ah8JruUvSnKdI0AAAhAIQcC+0U8L3nC+OwQpMhGZwHuCa/gHkhaPDJC8QQAC3STg09F+EbgBtaOgN3TTNJR6BAL/FPz0ywsk2RkXAQIQgEBIAl51/7vAgwDvWtgxJDkylZPAiyU9EFi3l0t6dE5ApA0BCEBgFAKPk3R94Mb0ruIo12eNUhCu6QSBp0m6I7Beb5T0xE5YgkJCAAKtIPB0GtVW2LHthYg+WL1b0uZtNwLlgwAE2kcg+rTqZUyrtk90Y5TIj6t+G/jO34+rdhqjPFwKAQhAIBSB6AurzpW0TChiZCYFgaUknRO48/eC1TemAEEaEIAABOok8N7ADa29BX5f0mJ1AiDuUAS8ZfVbwTXp7YgECEAAAq0g8NHgDe4XcK7SCp3NVYgmOK36xFyF4P8QgAAEmkSgCe5VP9gkoOR1IgKHBB+I4rZ6IrPyIwhAIDoBH7ByVvAGeM/oEMnfxAT+Jbj2fsrBVRPblh9CAAINIPAISZcEboh9xOouDeBIFscj0ISjq1cer0hcDQEIQKB5BNYoXPJeFXgQcF9xFOxzm4eVHA8hsLWkewLr7VpJaw/JO19DAAIQaB2BJ0u6JXCjfKukjVpHvXsFWl/SnwPr7HZJG3fPLJQYAhDoOoFtJN0buHG+RtJaXTdSg8u/mqQrAuvrfknbNpgvWYcABCAwFYFdJfm5u/fjR/y7SNKKU5WQH+cgsFzhRe/8oJqyzu3oZ7ccYEgTAhCAQCQC+wRuqN1Yny5piUjAyMusBOzU6XvBNfUfs5aAf0IAAhDoEIEPBW+wT5ZkXwaE2ATmSTohuJaOiY2Q3EEAAhBIS8Ae2j4bvOH+eFokpDYBgaODa+h4SR6kECAAAQhAoI+Ap26/E7wB368vv7yNRWD/4Nr5oaTFYyEjNxCAAATiEPDirfMCN+RevPW6OLjISUngVeXCuogLSZ2nCyWtgLUgAAEIQGB2At6+9YfAgwBv33rB7EXgvwkJPCf4dtKrJa2ZkAdJQQACEGg0gXUl/SnwIMAOXDZpNOF2ZH5DSXbaFPXO/2ZJT2oHakoBAQhAIB2BZ0q6M3Dj7gHK49PhIKUBAo+VdF1gfdxdbEfcciDPfIQABCAAgREJbC/pgcCN/KWSVhmxLFxWHYFHSvpNYF08KGnn6opLTBBoP4FFJXlKz6exvVPScZLOLirSBZIuK316+6CWqNN95AvboAE0gAa6qQH3TT53wn3Vr8q+y32Y+7KXlX2b+zhCScCOVTaQtHvpvCPyszwqdTcrNXbH7mgADVSlgbskfbc4ndJbVv14qJMDAnf68yVdz908sxloAA2gATTQUQ14keixXVgrsqwk+7/24SpVjaaIB5ZoAA2gATTQBg3YV8TekpZp0zMCO3bxdIdHOm0wEmXAjmgADaABNFCXBm4rZ8hXavJAYClJBxd3/d4vXRco4oUtGkADaAANtFEDHggcJMl9aaOCt25F9uTWRrFQJhpBNIAG0ED7NHCNpN2aMAKwu8tTuONnxgMNoAE0gAbQQKUa+EZkl9IvkXQTBq/U4Izm2zeax6bYFA2ggUk14D52u0izAYsUmTlQ0l/o/On80QAaQANoAA3UqgGfSPphST4+PWvwKsWzMHatxp50pMjvuMtAA2gADbRXA2cUA4EVc40AVi3dHSKw9goM22JbNIAG0EBcDVycY13AepKu5M6fO380gAbQABpAA1k18MfynIEkkwE+2/pGDJ7V4IzI447IsQ22QQNoILUG3Cf7xrzWsLqkK+j86fzRABpAA2gADYTSwNWS1qprBLACz/xDGTv1CJP0uKtBA2gADcTWgNcEVO5C2EcWsto/tuGpmNgHDaABNIAGvDug0mOGj2Cqh7t/NIAG0AAaQAON0MChVT0KeLEkOx5gZAkDNIAG0AAaQAPxNeA+e8dpBwH27Y973/jGpkJiIzSABtAAGujXgHcGrDHNIMCHD/RHyHt4oAE0gAbQABpohgZOmnQAsBOdP4MfNIAG0AAaQAON1sD24w4ClirOH74cozfa6IzQmzFCx07YCQ2ggTo1YK+9S48zCDiYzp/OHw2gATSABtBAKzTwvlEHAHYicDtGb4XR6xxVEjd3LWgADaCBZmjgtlFPDjyQzp/OHw2gATSABtBAqzTwnrlmAfycgIN+mjGiY+SNndAAGkADaGBUDdwsadnZBgH/wYivVSO+UYXBdTQiaAANoIH2a2Dv2QYAFzAAYACABtAAGkADaKCVGrho2ABgUwzeSoMzqm//qB4bY2M0gAZG1cBTZxoEHB1wAPCgJJ9stI+kzSStXPUpRzOB4DsIQAACEIDAmAR8Ap/7KPdV+0o6U5L7sFE75lTXHTlYrodLuiFQRu+W5NOMDJMAAQhAAAIQaCIB92GHSbonUP96naR5/TCfFihzX5HkQ4gIEIAABCAAgTYQWEvSiYH62Y37oe4fIGM+vtA+CB7WnzHeQwACEIAABFpAwH2b+9q/BOhv/Vj9b+FbmTNkILv+LTe8gQAEIAABCLSTwKsl+YY31TP/mdI5tYfWCxfuzJyZd/YywysEIAABCECg5QTslW+mjjnVd3b3775fG2bOiJ/5M+3fcrVTPAhAAAIQ+BsB93m51wRs4NzsknEA4JWRLPj7myZ4AwEIQAACHSGwuiTveEt11z+YzkvN+V0ZMzC/I4ammBCAAAQgAIFBAodn7H/f7swclykDdpDAPv9BOfAZAhCAAAS6QmCVjLsCPmPI9lY0ODWQ4rM9/BEgAAEIQAACXSZwVqY++HRDvzBT4j55kAABCEAAAhDoMoG3ZeqDzzf0KzIlbn/JBAhAAAIQgECXCWyRqQ++3NBvypT4o7psccoOAQhAAAIQkOR1ACkeuw+mcaPp35cp8cUwPQQgAAEIQKDjBBbP1Affa+6Do4JUnztuc4oPAQhAAAIQWEAgVb87mA4DAAQIAQhAAAIQyEhgsGNO9ZkBQEajkzQEIAABCEAgVYc/mA4DALQHAQhAAAIQyEhgsGNO9ZkBQEajkzQEIAABCEAgVYc/mA4DALQHAQhAAAIQyEhgsGNO9ZkBQEajkzQEIAABCEAgVYc/mA4DALQHAQhAAAIQyEhgsGNO9ZkBQEajkzQEIAABCEAgVYc/mA4DALQHAQhAAAIQyEhgsGNO9ZkBQEajkzQEIAABCEAgVYc/mA4DALQHAQhAAAIQyEhgsGNO9ZkBQEajkzQEIAABCEAgVYc/mA4DALQHAQhAAAIQyEhgsGNO9ZkBQEajkzQEIAABCEAgVYc/mA4DALQHAQjURuDhkraW9CFJ50i6QdL95Z/f+7sjJG0lydc2PVDedtu3Ln0OdsypPjMAqMuixAuBDhNYUtLbJf1JGrmN8YBgP0n+bdMC5Z3bzk22b916TNXhD6YzcuUc/OG0n+sGSvwQgEAeAq+QdM0YHf9gW3KVpF3yZH2iVCnv3J1/v42bZt+JRDHmj/r5pHzPAGBMQ3E5BCAwM4GHFV8fKOmvU3T+vcbPccyXNG/mpEJ8S3nH6/h7tvVrE+ybUmT9bFK+ZwCQ0sqkBYGWEnBH/eUKOv7Bxu/4oIMAyjt5599v46j2TV1N+5mkfM8AILWlSQ8CLSRwSA2df68hPDggL8pbzQDANo5o39SS62k99SsDgNSWJj0ItIyAn4HX2XB5uvhlgZhR3mrtHc2+OaRWZ/2ZLe5aK+6sCeegTJoQgEClBLz63Yu6ZqvrVfzPiwqXqjTnk0VGeeuxdRT7TqaK6X9VRR2ZJI7aK+6wTE2PjBggAIHcBN6RoPPvtSHeIpg7UN56BgC2cQT75tJXT+OpXxkA5LI46UKg4QTs9Gacff7TNm7XZ3YWRHnr6/ytjdz2zVkdp60bk/6eAUBOq5M2BBpM4B8S3v33GrgtM/KivPUOAGzjnPbNKK18/XCvYqV+zQmbtCEAgekJHJlhAHD49NmeOAbKW/8AIKd9JxZGBT9M3f/20ss38qgAGlFAAAL5CPwkwwDg7HzFFeWtfwCQ074ZpZWvH+6NBFK/5oRN2hCAwPQEUj7/77VPfk6cK1De+gcAOe2bS1dOt6fv1K/5Es5Jm7QhAIGpCdyXoeG6d+pcTx4B5a2/o8pp38mVMf0vU3f8vfQYAExvO2KAQCcJ0CG2u0Psmn1zVuJeh5z6lQFATquTNgQaTIAp8foHADmnxLtm35xVMXXH30uPAUBOq5M2BBpM4JwMjwDOysiL8tY/4Mlp34zSytcP90YCqV9zwiZtCEBgegJHZBgAHDp9tieOgfLWPwDIad+JhVHBD1P3v7308o08KoBGFBCAQD4CW2UYAGyer7iivPUPAHLaN6O08vXDvZFA6tecsEkbAhCYnoBd496QcBDg5+Hzps/2xDFQ3noHALntO7EwKvhh6v63l16+kUcF0IgCAhDIS8AHuPQak7pf98lb1AWpU9767B3BvrkkVnfdGRZ/sso7mIFcoEkXAhCojsASkq5MMAi4WpKP4s0dKG89A4Ao9s2lr8H+MdVnBgC5LE66EGgJgV0k/bXGQYDjfmkgVpS32kFANPvmkFqqDn8wHQYAOaxNmhBoGYEP1DgAOCggK8pb3SAgon1TS26wY071mQFAakuTHgRaSMCL846vYRDwpcwL/4aZivJWMwCIat9hdq/r+1Qd/mA6DADqsijxQqBjBB5WlPfAih4HeFp4ftDOv2dWyjv5IKAJ9u3ZOcXrYMec6jMDgBTWJQ0IdIjAyyRdNcVsgBcVRnrmP5fpKO94A4Gm2Xcu+1fx/1Qd/mA6DACqsB5xQAACCxHwavm3SfLe7sFGZ9hnX7tvcefv3zYtUN657dxk+9atx2F1ou7vR66cVWekbqDEDwEI5CfgZ+VbSjpc0tnlgMCnzPnPHYK/O0zSFsGn+0clSXkfsm1b7TuqDsa9rur+ddT4GACMaymuhwAEIAABCFRIYNQOu+rrGABUaESiggAEIAABCIxLoOqOfdT4GACMaymuhwAEIAABCFRIYNQOu+rrGABUaESiggAEIAABCIxLoOqOfdT4GACMaymuhwAEIAABCFRIYNQOu+rrGABUaESiggAEIAABCIxLoOqOfdT4GACMaymuhwAEIAABCFRIYNQOu+rrGABUaESiggAEIAABCIxLoOqOfdT4GACMaymuhwAEIAABCFRIYNQOu+rrGABUaESiggAEIAABCIxLoOqOfdT4GACMaymuhwAEIAABCFRIYNQOu+rrGABUaESiggAEIAABCIxLoOqOfdT4GACMaymuhwAEIAABCFRIYNQOu+rrGABUaESiggAEIAABCIxLoOqOfdT4GACMaymuhwAEIAABCFRIYNQOu+rrFpzLXXWko8S3WIXwiAoCEIAABCDQRAKLS1luxO81rJsyJb5yEy1FniEAAQhAAAIVElglUx98o8twRabEN6sQIFFBAAIQgAAEmkhgi0x98OWGdWGmxPdtoqXIMwQgAAEIQKBCAvtn6oPPdxnOzJS40yVAAAIQgAAEukzg7Ex98OmGflymxB+UxDqALsueskMAAhDoNoFHS/pLpj74M0b/rkyJe6fAYd22PaWHAAQgAIEOE/hQxv737ea+S8YM3CNprQ4bn6JDAAIQgEA3CawtyVvxRtk2X8c1LzX2J2fMgAt1oqSHddP+lBoCEIAABDpIwH3eSZn73vXNfVFJd2TOyHs6KACKDAEIQAAC3SRwQOY+9/ay719A/1uZM/NXSa/qpg4oNQQgAAEIdIjAP0pyn1fHtP6ocZ7az3u/zJlxpg1kvqR5/RnjPQQgAAEIQKAFBDzt7z3/uVb99w8O9unnuWmAAUAvc14TwMLAfuvwHgIQgAAEmkzgMQGe+ff6WL9u3A/z4ZKuDzQI8O6AwyXZRzIBAhCAAAQg0EQC3ud/RObV/v0dv99fO9NM+1GBBgC9DHuq5CxJb5O0eTkg4BTBJlYD8gwBCECg3QR8qp9vWu3b34/V7eEvwnR/rz/tvdr3wN+FTQIOAHoZ5jXvghH4wx8NoAE00A4NPOXvev/yiwsYBGRdmUkFa0cFw47YEQ2ggYgauGhY5+/v92YAwAAADaABNIAG0EArNbDXbAOApSXdiOFbafiIo1HyxF0SGkADaCCNBm6StOxsAwD/L7eHIsSQRgxwhjMaQANooDsaePdcnb//v7ykW5kFYBYADaABNIAG0EArNHCbpBVGGQD4moMweiuMzui+O6N7bI2t0QAaGKYBz+yPHJaUdDmDAAYBaAANoAE0gAYarb1F4KkAAAVKSURBVIErJC01cu9fXrgjRm+00YeNBPmeuwQ0gAbQQHc08JJxO//e9d9gEMAgAA2gATSABtBAIzXw9V5nPsnrmpK8dYDRIgzQABpAA2gADTRHA97Sv8YkHX//b14c4OxiRNcc0WErbIUG0AAayKuBv0raob8jn+b9YcwCMAuCBtAAGkADaKARGjhkmg5/8LeLSjoDwzfC8Iy884684Q9/NIAGcmrgR5IWGezEp/1sB0HnMwhgEIAG0AAaQANoIKQGfNjPStN29sN+v5qkP2D4kIbPOeIkbe540AAaQAN5NXC1pLWGdd5Vfb8eBwYxAGAQiAbQABpAA2E04BX/7puTBCd0JcYPY3xG3nlH3vCHPxpAA7k08EdJGybp+fsSWVXSrxgEMAhAA2gADaABNJBFAxdLsr+eLMGLDdgdwMg318iXdNEeGkADXdWAV/uvmKXn70vU2w0OlPQXRoBZRoBdFT/lpuFHA2igixqwk58PS/L2/DDheZKuZxDAIAANoAE0gAbQQC0a8GI/e+cNGex3+GQMX4vhuzjSpczc4aEBNIAGHtLASVX49k8xcvDxg5czEGAggAbQABpAA2hgKg1cJmm7FB13lWksWUTmtQG3YfypjM/olzsgNIAG0ED3NHBr0XceIMl9aWPDspL2lHQdAwEGAmgADaABNIAGZtXATUVv75vn7Cv8qxx1LFPMBuwt6QKMP6vxGel3b6SPzbE5GkAD7hv3kuS+stVhA0nzmRVgIMBgEA2gATTQYQ34bv9YSVu2usefpXDrSNpd0gnFo4JbOiwE7gC4A0ADaAANtFsDd0r6rqT9JW0qad4sfWPn/mWnQp4d2FnS2yV9RtJZ5THEXgl5s6T7GCRwx4AG0AAaQAPBNOC+yX2U+6rzJZ1ZnM736bIvc5/mvs19HAECEIAABCAAAQhAAAIQgAAEIAABCEAAAhCAAAQgAAEIQAACEIAABCAAAQhAAAIQgAAEIAABCEAAAhCAAAQgAAEIQAACEIAABCAAAQhAAAIQgAAEIAABCEAAAhCAAAQgAAEIQAACEIAABCAAAQhAAAIQgAAEIAABCEAAAhCAAAQgAAEIQAACEIAABCAAAQhAAAIQgAAEIAABCEAAAhCAAAQgAAEIQAACEIAABCAAAQhAAAIQgAAEIAABCEAAAhCAAAQgAAEIQAACEIAABCAAAQhAAAIQgAAEIAABCEAAAhCAAAQgAAEIQAACEIAABCAAAQhAAAIQgAAEIAABCEAAAhCAAAQgAAEIQAACEIAABCAAAQhAAAIQgAAEIAABCEAAAhCAAAQgAAEIQAACEIAABCAAAQhAAAIQgAAEIAABCEAAAhCAAAQgAAEIQAACEIAABCAAAQhAAAIQgAAEIAABCEAAAhCAAAQgAAEIQAACEIAABCAAAQhAAAIQgAAEIAABCEAAAhCAAAQgAAEIQAACEIAABCAAAQhAAAIQgAAEIAABCEAAAhCAAAQgAAEIQAACEIAABCAAAQhAAAIQgAAEIAABCEAAAhCAAAQgAAEIQAACEIAABCAAAQhAAAIQgAAEIAABCEAAAhCAAAQgAAEIQAACEIAABCAAAQhAAAIQgAAEIAABCEAAAhCAAAQgAAEIQAACEIAABCAAAQhAAAIQgAAEIAABCEAAAhCAAAQgAAEIQAACEIAABCAAAQhAAAIQgAAEIAABCEAAAhCAAAQgAAEIQAACEIAABCAAAQhAAAIQgAAEIAABCEAAAhCAAAQgAAEIQAACEIAABCAAAQhAAAIQgAAEIAABCEAAAhCAAAQgAAEIQAACEIBAtwn8Py5x3c7L2h0UAAAAAElFTkSuQmCC;" vertex="1" parent="1">
          <mxGeometry x="-633" y="487" width="92" height="92" as="geometry" />
        </mxCell>
        <mxCell id="5XS556nmQgQ2dr4hD8sf-2" value="" style="shape=image;verticalLabelPosition=bottom;labelBackgroundColor=default;verticalAlign=top;aspect=fixed;imageAspect=0;image=data:image/png,iVBORw0KGgoAAAANSUhEUgAAAgAAAAIACAYAAAD0eNT6AAAAAXNSR0IArs4c6QAAIABJREFUeAHtnQe4LUWVtj+v5AwqSBQRFUFQwICkwYQBCSIqOiPGwcGZERgQzCCiXIKAOujgGAYjoiKIjJgliQEFCWIAJEkQkJzR+fu79Pbfd3v2OTt0V63ufut5zrPD6V3hXV+Frq5aJREgAAEIQAACEIAABCAAAQhAAAIQgAAEIAABCEAAAhCAAAQgAAEIQAACEIAABCAAAQhAAAIQgAAEIAABCEAAAhCAAAQgAAEIQAACEIAABCAAAQhAAAIQgAAEIAABCEAAAhCAAAQgAAEIQAACEIAABCAAAQhAAAIQgAAEIAABCEAAAhCAAAQgAAEIQAACEIAABCAAAQhAAAIQgAAEIAABCEAAAhCAAAQgAAEIQAACEIAABCAAAQhAAAIQgAAEIAABCEAAAhCAAAQgAAEIQAACEIAABCAAAQhAAAIQgAAEIAABCEAAAhCAAAQgAAEIQAACEIAABCAAAQhAAAIQgAAEIAABCEAAAhCAAAQgAAEIQAACEIAABCAAAQhAAAIQgAAEIAABCEAAAhCAAAQgAAEIQAACEIAABCAAAQhAAAIQgAAEIAABCEAAAhCAAAQgAAEIQAACEIAABCAAAQhAAAIQgAAEIAABCEAAAhCAAAQgAAEIQAACEIAABCAAAQhAAAIQgAAEIAABCEAAAhCAAAQgAAEIQAACEIAABCAAAQhAAAIQgAAEIAABCEAAAhCAAAQgAAEIQAACEIAABCAAAQhAAAIQgAAEIAABCEAAAhCAAAQgAAEIQAACEIAABCAAAQhAAAIQgAAEIAABCEAAAhCAAAQgAAEIQAACEIAABCAAAQhAAAIQgAAEIAABCEAAAhCAAAQgAAEIQAACEIAABCAAAQhAAAIQgAAEIAABCEAAAhCAAAQgAAEIQAACEIAABCAAAQhAAAIQgAAEIAABCEAAAhCAAAQgAAEIQAACEIAABCAAAQhAAAIQgAAEIAABCEAAAhCAAAQgAAEIQAACEIAABCAAAQhAAAIQgAAEIAABCEAAAhCAAAQgAAEIQAACEIDAiASWlbSBpG0l7SrpLZLeI+koScdJOqX4348l/VLSZeXflZL+XP7dJen/yj+/733va3rX+7dnl3E5Tsf97jItp/n8Mg/OCwECEIAABCAAgQoILCZpI0mvkLSvpI9I+oak88vOutd5R3m9WdJ5kk6W9GFJ+0h6eVkGl4UAAQhAAAIQgEAfgUUkrSNpe0n7F+8/K+nc4v09fXfoUTr5SfPxQDmr4FmJ+ZJ2K2YVNi3eL9HHgbcQgAAEIACBVhNYrezsD5T0XUl3t6ijH3eAcH852PGMgQcFfqRBgAAEIAABCDSegO/utyzv7L8u6doOd/ajDg7M6MRiYLSfpM0lmSEBAhCAAAQgEJ6Ap/N3l3SCpFvo8P+20HDUAcDgdXeWMyV+POLHBg8LrwAyCAEIQAACnSCwQrkK/1OSrqLDn7rDHxwADH72LoVPSnplsSth+U4ojEJCAAIQgEAYAo8on1l7Udt9dPq1d/qDg4De5wclnVXMtOwp6dFh1EFGIAABCECgVQTWLKf23el7VXuvE+I1Bou/lIMBPypYt1XKozAQgAAEIJCcgKeY/TzfDnX+SqffmEGPbeWZgTdJWi65akgQAhCAAAQaSWBeuXL/2MIBjxegcYffbAb2p+AFmfazwI6CRlZJMg0BCECgXgKPLzqIg1nI1+oBjxdpvp9HBPVWJGKHAAQg0AQC3lL2vPIO0QvKuNvvBgM/IrATJs8KsK2wCTWVPEIAAhCoiIAPr/Gz/Yvp9Ds/6Pl96ajJ2zkJEIAABCDQUgJeHX60pNvo+Dvf8Q/O9txaLBg8UtLjWqp9igUBCECgkwTsY96H7DDN340p/sHOfZzP3k7orZ4bd7KmUGgIQAACLSGwIR0/d/oTzvZ4nYAHAk9rSV2gGBCAAAQ6QeCp5cI+9u5zxz/O3f+wa71g8JmdqDkUEgIQgEBDCWwi6bQJ7/iGNf58zyCip4H/leTBJQECEIAABIIQWEOSHffwjJ/OutdZ1/XqWSU7FnpsEO2TDQhAAAKdJLCipPnFNi57e6urwSde2M6kAR8C9eFiVwnbBzvZ9FBoCEAgF4FFy338N9DxM/DJrIGbSz8Ci+eqDKQLAQhAoCsEXiTp0syN/kx3hHzX7ZkCOxR6QVcqIeWEAAQgkJLAquWWPjrabne00e3vrYNrpawYpAUBCECgrQR8gtueeO9jqr9Bsz4+RXJ/Th9sa5NEuSAAgRQENpX0swY1/NHvTslf2tmT8yU9K0VFIQ0IQAACbSGwtKRjJNktK50WDJqsAWv4PyVZ0wQIQAACEJiFgO+YfkvHz8CnZRq4XNI/zKJ7/gUBCECgswSWKPf048yHO/4m3/HPlnc7EbLDqqU6W8spOAQgAIEBAhtJ8vPS2RpP/geftmjgYg4ZGmgB+BiagJ1cvFDSBySdIekKSX+W5NWufygWuny7PGd9G0nzQpeEzEUi4BX+75P0AJ3/xIOf68uFkl8tnzUfVO6aeI2k7cpFaE8stlCuI2nNwnudvSf6r/8u1O973/saX+vf+HGM43BcexV123H7efbXiu9/LglHTJMPyu4vNH8AOwUiNUfh8+K+9dllX+s+132v+2D3xe6TTy/0dHDZVy9WRWns5vL9km4co4G+StJ7BxqYKvJCHO0isHo5mGzLXV2d5bhOkk+kO7r0gPj8soP2Y5PcYUlJ60natsyb8/g9Sc5znUzaEvePJK2W24ikH5qAB+geLF49Rp36Uzlgn9hV9avH7PgHK6RHJC8NjZXM5SLgzsICHdRM1z97xbinhz9d3F3vUS4aWymXkSpI9xFlGd5SlunXxc0BRzT/ve49k/K8CngTRfsI7CzpyinaSrezu46DxdOyH5siwcFG3HE5TgIEHl7OKLmjG9RJFz/fIunUcsbMg6LlOyAR35HYZa5nCX287q1oYUFdcJ3w4zDXEQIEfN6JF4xW1S56W/Wc/bAT9bPEqhLtxfOVURLH5q0msLKk79SgrZ7GmvDqHQ7nlrsdfMfn+tb14A7PDp/sOc+POXzKXhNsWVcef1g0/HZ7TeguAXfUWfrhj9dY+T5fjHAf1l2bdrrkW0vyYrW6Gs3I8f6xdGr0EknLdFoFoxV+WUnbl7OQ13ZUM14/sdVouLiqZQTcR/oRYF1t2ieH8fKzhroS7cXrXQSEbhF4Uwfv6rz+xWfFb8mumKnE7lXPnh04sIPOoTwT8oap6PHjJhJwH9nrL+t63XEQjFfyektBXQn2x/vWwcT53EoCntr1ivB+27f5vVfoflDSxq20ZoxCbSLpEEnXdEhXH2JdQAzxJcjFmxPp2osKF3JN7S0GqRpnPwdld0ACNWVMwtO430ioqVTaHUznXkknlFPWcy6wyWiPtiXtmQHPrniRlPdBD9qlbZ9PKwbTE2/napvxW1oe94kpvaC+p8fRlcl791NWmnt4xtXD37rXdSV5u1dKPaVOyycUerROo5xfvraBbdH2UyO9PfRx+XGTgxoIPFPSXYnbTM8CuO/XcxIn3Gusvf3HLmAJ7SHgw05uzqSnnq7qevUz2S9KcmUlxCSwWWkje9mrSwc5472JG6eYwpsiV+tnbDMXLDTN+ZzWoxB7hCM0n8AOku5uYcNrJy3zSze6zbdSN0qwSrmtsI1rBfzYaZdumLH1pXTfN42Tn2kHo15fkn1v9kWlH/LWW7vFBXxj4udX0wp/lN9fWq7C9jkYhGYSsO28C+Wylg1MfXbG65tpEnJdElguwAFodsS14BCBURrEOq+xP+wIfs1R5/gE9myZe1d3FrvjuGp8IQT+hZ91vlzSJS0aCNilsrdHEppHwAf12OlVnX3qKHFfbnSpFx8My9iXe4sSmmfPTubYDisOCyDiYXoa93vPRO3GlqtWa9kDATsZ+kWLdGt/EwsWc7Xacu0pnG3lvm7c9qmO672DJtSiLZ8bQIhPwFvejgsi4mkrhv1f+OArvFTG111VOXQj/E9BZj+n1a9/77rINtSq1FFvPEcFajd9UNBYRwxWIda54nhbvfyJfUoCbjy9Gn4uO0b/v8/Qtv95Hj1NKYgG/9xTsX7c04aTKe07noOEYotxv2Dtpm9+dHqwTPnZ1mtj27HTuWv6tL9XUR/OwtNOa3iw8D5y+UhJ1kb0gets+bOXREJMAj6SN9opqN83qhS+h2cT7Uz/8z5eHxlKiEXg2Q1f8PfNYrr0sbGQkptABOxoxyujZ2qTmvCdb57si4MQi4DbzYiDSx8/vaCjjSju2/CrHkrFnvr3UbYRtTJXnnwinxf4ESAwCgEvFMy5P3suPc/2//NYFDiKiZNd47NB3JfNZrNc/3u+Kfg5mJ2d5MrEbOn62dzjk5mKhGYj4EVTs9kq4v+8X/oIjuGdzaz8bwgBn2fhxwLWUERtz5anfxxSJr5OS8CzjT7aeTZb5fqfj2dftIfDUwG5MjJXur+R9MheRnnNRuCswBqZSUP2DY+r6WxyaU3CT5H084Zp/4zW0G9uQdxnue+aqW2K8N17+9H6QI3IK2HPKfacL9WfYd4nJWDXqtEWsAyrRL5js+vev41uk5IisTYS8BY77xjxeRDDdBfpe9fVR7fREA0pk/sq91mRNNGfF9/92xPhQsGrFPsvivbex8uy13UhkyX7YHeq0fQwU34uYN1IMk10MaFNCj/8dhg1k/aiffeGLhooQJndR0U/Ct1eMWcMxwQX93/PmGu+rJuAn6NHa+D68+M7HntEw29/3Uogfs8s2QVvyrPb+7U+6vtDMVUWAv8ZvK386GxU7EjipOAFwP/1bBas539RXFfO1PhdLWnLeopNrBAYSsDb7by7ZCZNRvju+KE55x91EXDfFMH2w/LgLa5zzqL7+cWPgxfkX+uyIPHOSMCHNQ0TVc7vT5P0qBlzzJcQqJ/AygFOUx1W/35Yf/FJoY9A9MekXsi6TF9+Z33rFYy/DdroW/CefnvprCXgn1USOCWYFmx/j7btm4AAgZwEfIaET8SMtl3QM7mENAS2C2j//oGhTzj1Qu6xwjqSvFqwP6JI7+8ujlTcYqwScfGkBP4nkA7ss2KBA4tJC8PvIFADgWiPBD5VQxmJ8u8JPEOST9WL1Df25+XG4uyWJ/x9tkf7ZlNJdwQu3E2S1hutKFw1BYGDgmjgJ5JWnaIc/BQCdRJYTdJPg9QV1krVaemH4l43sBM9DwLukrTZtBieE3z/6+V0CtOaeM7fbxOgUfOipiXnzGk3L/Di3TXLxZD22PjOclfE5ySdWu5J9iM9L5j0KYj+8wxa707B73vf+xpf633M/u1nJR1dtAHvkGQPc15w6bQ4eW5mrXknipn12OZ63Wrm7PFtRQS89uj3Aew8TF8+T+eFFZV1wXnpPmhiWGK5v/f+bzszItRDwO6ib89kf+vOdzN+1tr14C1o9kz3qvIQr6+XjVCO589O0w3giWVe7EfEecMB00NateOgXM6zXFexQ32thd1E/zJTezhKX+s28/VVF993FaMknuuaH7APvGqTLxSfnymmtq0fP+20UC669eExkl5Z+qQ/u/BGd08GG4xrc+fRef2QpFdIWqtbJluotDtnej6Mv5SFzFDpBw+svh28Hnq2rpZgZyvjNggpr/8SK8Nrsbsj9VGpKe80vQDVJ2l1KfjOwifRHVucXuhHWynrTp1pXVtOi9sD2UpdMqgkr6NKediap3458roekXkW8rjg9fK/6in6Q7F629VXggM4rE4AHY871SyAOz8vsOlCWL8YWL1Lkg8vyjVlXGfnPxi3t3B6oZxnFLuygNcnmqYa0HH3X1+rcXjwvu/kFGtzlpDk06YGK3akz3vXp4FOx7yipKtqtr19ra/ecsqe2fhgMb1/Sc0sI9XJYXn5deGd7ODCA+lTW25zH85zXs32tmfCR7ScY67ivaVm2w2rH6N+7x1SyQ7MW75wxPOrwEC8COI1uZTS8nSfXm4vGVWY41xnEbe1AfPU9+7BFw+NY6s6rr24PHVvbKclDalzXqhc182T1148qyEcmpZNr2WJPDvnepP80Zrv0q4MPAjw0Z04jKmnqtnzVdUL0jx91bZtfn5k9pLydLCU6yfq6JxTxunn2NaDddY2b4/WuMtWJU9v43xxPVW987HawdO9FdurStt71seLhbOEDcr9w1UWqMq4buvA1GIWw5deGKs4DMWzNUemeHaVEJTP2vbdvqe3q9RzF+O6tJwVSH6HU6Ne7EPhKEnW/rQ2vYY7/9os1YT+zVtvs4ata7gbnLZS9P8+6wgpq2XqT9xnRvgI6Unvbj11VZmzivqLO2cKa5c8InvP7K8bTXrvve0fyXm3M6f1x7/gRVMMEj1L4qNd2/rIbHya1f7CM9x1r3eapv55hvt51RZ58th2DH4+dpZnJJPjbNwvn1huj7llxDuaX5T729syvettV94iG3mqcJrGJtJv3fHZ097E/s2D1S7XATt2cp0YhbM9NvpsjraUP5g5FmQn+ho3r0fwltpQYY8RBTyKyOu4JukqyVCWSZcZewx8QZGcPfe5kfq+JDto8tZRzxS8tmVum90Ifz744LeOuhQhTs86eSDgLXZtCT5L4HWSPlbWGR/p6zr0maKArlPb4uGvdlN7jcaZwfuyvWqnMGEC3oMfoXEYlodvFFuOFpmwbPwMAj0CfvQxP/gZGcPqQNu+94yAHSd5mx0BAtMQ8GzMV4P3YYdOU8C6f2tPSZGOjp2psXNjQYDAJAS8z9Y+3r24dCZt8V0+Lj6S1YMye1MkQGASAl5jErkOf7EJu2LsK/m04CDthYwAgXEI7CLJK64jNxDk7aGFW/bBT4DAOATsjTNy/WnUWTcehY+6qCUHdG+/ecM46uDazhJYpzwWN4dOSXPyRtnPzr04lQCBuQj4mOsqtmTWVV8bedqtz0v+XeBRlX2Se/cCAQIzEfBM1rsl2clKXRWbeOtla9v5zo6jcWdSON+ZgLdiTrqNOUX99RkSjV3f4hPkUp6ENa5B7sKJBq3ADATsAORcOv7WDHzstrztZw3MIGO+moPA0yRF9tlxUxtmsew73gt0xu2cU11/I3tq56gm3fm3PbR5kR/7+ePW10nbBe8W8FY625gAAT/a85Hjk+qp7t959mrztpjJPr0jT7NcJqmtB5C0RUN1l8MNwjmBG4S6G5yuxH92sVPJHhsJ3SXgbby/DVzX/Xj6pW0zz5sCA3fj5ynfZdoGnfKMRGCH4GdadKVzTlVOb+MM50ltJKVy0bQEvJU3+kD/X6ctZNTfHxB8EOCVw/ZmR+gGATuF8t7xyCuAU3WKXUvHNrf7Zup7N+q6S+nFoN8K3ge9t+3m8AEWkRubL0iyQyNCuwmsUawA/mlwLUauJ23Jm12E++AXQrsJuE3/dPD6/ol2m+Ch0nkRzonBDfGBLhiiw2XcOPhJX23pXJtSjmslPaPD9aELRf9g8D7nm11yU+8DF84KbpC3dqFWdLCMr2Rvf+gZuFyDBu/82K2D9aELRX5z8L7GM5FLd8EQ/WX0OdaXBDaMj1y0+1dCOwh4CtB3ATzvj/0ILtcAwOlaGwfzCLAdFb4shRf4elV9Tl3Nlvbvi9MfV24V8TEK4+ewVwc2zj3FcZxbjVEeLo1JwI+dPhlYZ7M1EPwvfeP9ObwHxqzIY+bqmZLs7C1qHfKjp85vSd1Q0i2BjXRrsWZhozGFx+VxCCwu6WuB9RW1cep6vk6R5C1jhGYSWF/SzYHr/e2SvBaJIOnZwb2v+RS4tbBU4wisIOnMwI1A1zvZ6OX3DgE7jSE0i8Bqkq4IXO/tlXLbZiGtP7e7SvJz96iNwkXFvuEV68dAChURsK3OD6ynqDonXwu3QedR7yuqkWmiWS54vfc6ExabDtHCvsEb7NMLxzFLDMk7X8chYIcf0XeZ1NXRXiXpu5I+VdQlO95yY/NiSZtJerwkL7714Mg7cXrB7/2d//eE8lr/5rVlHI7LcUZer1MXT8d7BmsCelIJ/WqnTtZpnVqYNu59QhMMkLkjgxvwJA4UCaCS2bNwSHANTduI+Pe+k/i1pM8Uh5r8S3lwyPKzY6nkv36s4kNK9igWMP1PuZOnCzsrrClCXALzJJ0QvN4fExdfnJx5u9ZngxvyY3FwkZMBAj7Up62n+fkAk/8spjh3kuSOOErw7IEPL3ED97vgdXfSwZcPM/OCZUJMAkcF192XJXmQQhiBgKdyvhPcoG8boRxckp7A8cF1M04H5DUxPy6O0/ajscelRzlxiusWzpb2Kw9dadPswNcnJsIP6yRgrY1Tr1Jf+yNJ3o1EGIOAF3N4AU5qY42anhs2PyMlxCFgvxJt6HDsIGv/lviot03eIek3gevyqHXeAzKvMCfEIfCq4IvHL2QR6eRiacJ2jhdMXjx+WTGBf2twJ+PHFn6m/qyKmUSKzmsHjmv4I5q3RALa8bxE3z7uRbNrdtxGUxf/SQ1w6LDJ1KUkgioI+DjnUe/molxnb2Dv6pg70FWKu7b3SLqugfbyo0lCfgJNcCDHmpGKdBLdpeOfyi1WFRWXaCYkcFODOhRv19tzYDvehMVu7M+81mf3hp3MeENjabcn448NPni0C/kt24M7Rkm2L+6UvBI3yp3bYD4u7dhdXAxV/P9c2G3roE0ifvZdr7ftufMjPETAC6T+teByfQNs6DUm/T4UsGFaAvZVEXk9ideJvCwtku6k5ruFiI16L08/6+KxjkHkZwc2PTtEfL2j4HSgpGWC8IqYjWWLrVIHFbse7gxuS+9yIKQn4IHX2cG18e/psXQrRR/XGbGB7+Xpm8WRoot0yyQhSuvFNj0bRHv1HmBWj48uE+8c+Gpgezp/hLQEfKLniYE14Tbn/WmRdDM1Owqya9JojXx/fv67m6bJWuqlA2rCj4XYJTK5LF4kyQz761aE97gDn9ymk/7SDrAi2H5YHj4vyX0TIQEBjwbtkneYMSJ87+leQloCtwXRhJ8Tf5jjZCsxvtd2fDSQf4c/V1IqIhmHwPuC1Oth/cr/Mus7jjmrudYNg72kDTNKhO+9L52QjsA3AujhD+Xx1ulK3Y2UnhPkiFffeBDSEfjnAHV6tr7k56zrSSeGwZR8VnfkFaEPlj7SB/PN53oIeAHObJW17v+5c7BffEI9BOwdNPeBLzgCqse2M8W6XQN2ftmnBSEjAR/+Enn70N3FEZVbZOTTpaTXluRBV90d/WD890l6K88Ak0jNz1n3KtwLm/mgHer+fD+e3ZLY2Ik8I/hukBvLo7OTASGh4QQ2leRtVnU3AJPGbwc16w3PPv+pkMDXEuvAg0+7uCWkJeBBtZ3yTFonJ/ndJ9IWsbOpeZtlatuOo4e7JG3WWesELbifEea4KxhVOPYLzfah+sVj19GpHEb5sKq16i8SKQwh8JjiEduvEg0CfPfvGSZCvQRWLQ5Z8zqaUdvV1NdZBy+sFwGxT0rg1YFWC88kzAuCneM+Kefov0uxavgUnD6FkIEdK52aoMM4IERp250JO4L6ZQJbztQ2j/Kdd/e8vt0maH7p3hlYQBbZDzgbunaR2RHTd2vUgU/tw9lT7WYcOYFFy1MGR2nEJ7nGBwBh75HNMdGFtuG3a6yzk9h98Dc+1prQAALegz1ovEifv1S4PJ3XAI5NzuLykuyauWq7H85iv5Cy8OJA26Zqe/9UkrVEqI+Abedjoqu2XZXx/Vd9xSfmqgm4c/1KcEG5sSLUS8DbxqqaHvazP7aA1WuvKmK3742q1oD4MY+npQn1EjgieFt9cuHm187nCA0iYHedZwQX1t4N4tnUrHow6C16N0+hBa/deHpTAXQw3z4+/MIp7O1dOx5I4Nq1fvF4UF3lnXrVcZ2DR8/6RVBXCp66S7VKeBLheVHJa+oqPPEuRMAOejzrYleuo9rKHf/LeVyzEMemfPDA7xVjDgSsjcNYqJvMxLaPj88dtT6mvu5iSSslo0FCtRBYvVi5eWVgkXnr4vNrKTmRzkTAi422lXSMpO+Xh83Yh8R1ki6S9K3CAcm+xcljG3EHOBO+xn3nu/inlDa1bT0zcK2k2yX9TtL3JPmgGddBa4OQhsA/SLo3cLv8R0neZkpoAYENxrzzSz3S9CE2T20BZ4oAAQhAYC4CT25Ae+xBI6FFBLaWdA8jzhZZlKJAAAJNI2BnaFcFboc9I/u8pkElv6MR2DGTr/hRZxR+zTOn0QzJVRCAQOMIeE2W19WM2h6mvs7rEbzmh9BiAnsEFqAF/xNWnbZYfRQNAt0ksKSkM4O3vT5kitABAl7pm3p0OU56Ptcez2MdECJFhEAHCHhHxleDt7mHdsAOFLEk4JXBduc6Tqec+tpjsRYEpiBgxyVeWPrK4rHXu0u9n1VsjfNjpivKRVh2buQ/b3/zd/6fr3HdeFf5W8eBE5QpDMFP9ZHgbe0X2erbPZV6y89pwYXpRpgAgVEI+C7LR+RaM9a1t7lVNWh1XN5C53M2nIbTIkBgFAIefFalwzri4WyWUazY0mvs5vMXgQVqR0FvaCl7ilUNAW9xnS/J+5braCBnivNGSZ6h2hJfCdUYsaWx/GMDTmflnIeWim/UYj2qdAgyU0MX4bsHJXn3AgECPQIeuHrB0mUJO/1hdcF52FOSj+UlQKBH4EUVnskwTHvTfH+5pEf3Mstrtwk8TtINARrTYYK+qzgq81ndNhGll7Raebd/S0CtOk+eiVgVS3WewNMk2bvmsPYs9/c+6+GJnbcSABYi4MNe7gwsWk+7ItqFTNaZD0sVTqz2D96o9hp1D1Y9EOAUvc7Ic6GC+mbq+sDt6N2SNl8ox3yAQElgu+DTVp5uXQVrdYaAd6vYMYlX6Pc62Ka8XlP43N+dBYOd0aoL+khJvw2sVT9O3alTFqGwYxN4Y2ABu/E/l+etY9u0iT/wQO/U4FocZTDyXUk+kIvQbgKepfLRuaNoItc1PnqYAIE5CRwQXMg+xW6xOUvBBU0lsHPAvWJ/AAAgAElEQVRxHr2fU+ZqKKtO1+sDXtVUY5DvOQl4S7W3iVatmyrje++cpeACCPQR+GhwQX+BLVh91mrH28UlfTK47qZplL11kIFrO7TaK4UfU306uGY/0cssrxAYlYC9n30tuLA/OGphuC48gZUk/TC43qbp/Hu/tadBb70ltIPAIcE1ewpu1dshtByl8AEWbrB6jVfE17fmAEOalRJYp3C7e0lwnVWp/d+zo6VS/eSK7M3BNftTSUvngkO67SDwiOCNs4+w3KUdqDtZio0k/Sl4Q1pl59+Ly2XesJMWb0ehdwh+tLoHmSu3AzWlyE1gDUlXB26k75G0VW5IpD82gccEd0DV66zrer2ueH681tjU+EFuAptJsr+HunQxbbzXFgdarZ0bEum3i4DvViJ6YOtVllsl+W6S0AwCXmPys8CNaE9Xdb/+hNMGmyHYMpfrS7o5sG59cNXGjSJKZhtDYBtJ9wYWv52vcEfVDDlFf35ad8ffH/+bmmGyzufSrqgjO6Xy0dbbdt5KAKiVwK6S/Ny9vwGL9P4iSSvWSoDIpyVgN7me/o6km5x58Tkcy00Lld/XSsD2OT+wZn1y6m61EiByCJQE9g1cEdyQn174Y18Ca4Ul4JP8cna4EdNmN0tYuS7w3WCPjhF108vTPnHxkbM2EjgyeIU4iWerYWV3dnDt9BrVlK8etBLiEZgn6YTgej0mHjZy1HYC9oD12eAV42NtN0IDy+fnqJEfIaXs9PvTMhPOZ48n6KOCt3HHc+BUPNF0JUd2a/qd4BXkbV0xRkPKuX1wvfR3yqnfv6ghNuxKNvcLrtUfSbL7bAIEshHw4pjzAlcUL455bTY6JDxI4N8DayV1hz+Y3h6DsPicjYAPb4o8U3Uhi52zaYOEBwg0YXvMCwbyzMc8BA5lADB0Mdn8PCYh1QECzw6+3dlO2dYcyDMfIZCVwJMa4CBjk6yESNwEPsAAYOgA4P1IJDsBOzyzU7HB2Zkon503XEhnlwkZmInAMyXdGbjy2P/642fKON8lI+A1GVEa02j5+I9kViChmQg8Nrh/irslbTlTxvkOAlEIeJHXA4Eb+Us5JCOrVF4XWBu5BwSvyWqZbifuQ89+E1ibXo+wc7dNROmbQmD3wBXJjbx90HNMZh41PSG4NnIOAnwsMiE9AR97Ht03hRfPEiDQGAIHB2/ovylpkcbQbFdG/xBcGzkGAfYxT0hPwIdSfT24Hlkbkl4XpDglATsK+lTwivXJKcvIzycj8JHgusgxAPjwZCj51ZQE7EUvh71HTfNzktyWEiDQOAIeXdsl76hiz3HdgY2j2vwM+8TG+4LrIqUWfYob57en1/X7gmvwf5mlTC8KUqyWwFLFEZU/Dl7R/q3aIhPbCARSzw65k/2hJO9C8Epq7wbxOhD/+f1W5f98TepFrP89Ai8uqZbAPwdvk34uaZlqi0xsEMhD4JHBV9g+yArb5MJYPZHfiLskHSbpUWOU0NceXgwI/Nu6ZwJukmRHWoR0BF6SYZA3jo68U2mVdDhICQL1E/AK58hnwHuP7Rb1YyCFPgI71exu9cQpG1IfzlPnAjFv7dqhjwdv6yfwjAb4KvFOGQIEWkdgU0l3JLirGme03X+t78bWax312AV6qySf19Bvh2nfe0Zn/4oWT3kB1tslOc5p89X/e5fZZSekI7CupBsqtmO/Tad97xmnzdLhICUIpCfwnOALwOxne430WDqdop/H+hn9tA2of29XqXWc++A4b6soj14A+aZOWzx94VctDgWLvP3U+n9heiykCIH0BF5dw11fFZ1HL44LJK2QHkunU3xWsQ7D3Hs2mOTVi03rdPXsqdmfTJlHl5G7vLRSX7Z41PLLKe02iR5H/Y1ng16fFgmpQSAvgXcErpCuuF4NzlnbaTXibaNvnmCtiBt3u0mdlyC7TuNlExyBfa0ke8h0GQnpCCwq6dvB2xo/YiJAoHMEjg5eMb+UqFPpnOHnKLA9ND6vWMD3cUmXFM/z7xnQiZ/H253zIZJ8dGsORylO02n7CN9zZ1gj4Dz/ujh34mOSnkvHP4fF6/m3bXTcgHZGvStPdZ01ToBAJwn4buorwSuot4MR8hPwM1w7y1kuf1aG5mD5Mo/OKyE/gSOCty0nMzDMLxJykJfAEpLOCF5R986LiNQhAIExCbwleJtyTuGfwk7SCBDoPAHfOf0qcIX1Ih2Oau28TAHQEAKvrNm/xLSPBy6WtFJDWJJNCCQhYM9wVwYeBHjr1vOTkCARCEBgUgLbFH4b7g3cjvxR0mMmLRy/g0CbCWxQOEf5c+DK633gT22zASgbBBpM4MmSbgnefjylwXzJOgRqJ7D1DKu+p51yq/L3jOBrlwAJQGBsAnbedVXgzt8ziN7ZQoAABOYgsOMM26qq7MSnjcvbu3iGN4cR+TcEEhHwGqJpnUhN2ybM9nuf+fDyRCxIBgKtILBH4NG8K7s9wvkoWQIEIJCPwJKFn4Uzg7cVe+XDQ8oQaC6BQ4NX7FMk2WkNAQIQSE/AfkS+FryNsKMoAgQgMAEBe/L6n+AV/NgJysVPIACB6Ql8JHjb8MVMXiqnJ0sMEAhCwL68Twte0d8VhBXZgEBXCLw7eJvwA84S6YoUKWfdBHya1y8CV3g7CnpD3RCIHwIQWEDgnxpwmqgXJhIgAIGKCDxK0u8CDwJ8QI13LxAgAIH6CLxY0gOB24HLJT26vuITMwS6S+Bxkm4IXPnvKo4e9bn2BAhAoHoCT5N0R+D6f5OkJ1ZfbGKEAAR6BJ4u6c7AjcCNNAI9U/EKgcoIePB/feB6f7ekzSsrLRFBAAJDCWwXfBrwMqYBh9qOf0BgXAJ+/PfbwJ2/H//tNG6huB4CEJicwBsDNwh2FHSupGUmLx6/hAAEyiNzfXTubJ72cv/PRw8TIACBxAQOCN4wfF/SYomZkBwE2kLAW4C/FbyOv7ctsCkHBJpI4KPBG4gv4AykibIiz5kJ2AnYp4PX7U9kZkTyEOg8gYc3wB3oBztvJQBAYDwChwTv/HEDPp49uRoCtRHwgSBnBW8w9qyt9EQMgXYR+JfgdfmnHATWLsFRmuYTeISkSwI3HD4SdJfmY6YEEKiVwA7BjwL/vaSVayVA5BCAwEQE1pB0deBBwH3F0aXPnahk/AgC7SewlaR7Atffa4vDydZuvxkoIQSaS2BDSbcEbkRulbRRc/GScwjUQmB9STcHrre3S9q4lpITKQQgUCmBbSTdG7gxuaZY4bxWpSUmMgg0l8Bqkq4IXF/vl7Rtc/GScwh0j8CukvzcPbeTkGHpXyRpxe6ZhRJDYCECyxVe9M4PXE990uduC+WYDxCAQCMI7Bu4YfHA4HRJSzSCJJmEQPUE7CTre8Hr6D7VF5sYIQCBVASODN7AnCTJvgwIEOgSgXmSTgheN4/pkkEoKwTaSMAexT4bvKH5WBvBUyYIzELgqOB18nhJHqQQIACBhhPwVON3gjc4+zWcMdmHwKgE9g9eF38oafFRC8N1EIBAfAJebHRe4IbHi41eGx8jOYTAVAReJclaH7Y4Nvf3F0paYaoS8mMIQCAkgSZsN3pBSHJkCgLTE3h28O25diK25vTFJAYIQCAqgcdL+lPgOxA7HNkkKjzyBYEJCdhBl51g5b7DH5a+nRA9acKy8TMIQKBBBJ4p6c7AjZEHKB6oECDQBgKPlXRd4Pp2d7Edccs2gKYMEIDAaAS2l/RA4EbpUkmrjFYUroJAWAKPlPSbwPXsQUk7h6VHxiAAgdoI7B64YfJU5c84drQ22xNx/QR8TPfZwevYv9ePgRQgAIGoBA4O3kB9U9IiUeGRLwgMIWDnVl8PXrfePyTvfA0BCHSEgB0FfSp4Q/U5Sc4nAQJNIGCtfpI61QRTkUcIQMB3K3bJO2yFcITv34eZINAQAgcFr0unMqvWECWRTQgkIrBUceTnj4M3XP+WiAXJQGBSAv8cvA79XNIykxaO30EAAu0lwIrl9tqWktVP4CXsrKkfMilAAAL1EVinAXuWt6iv+MQMgYkIPKMBvjWeMFHJ+BEEINApAptKuiPwVOZNktbrlEUobGQC60q6IXB9uUvSZpEBkjcIQCAWgedIui9wo4bf8lh66WpuVi0OsfpD4Hpyv6QXdtU4lBsCEJicwKs5uWxyePyy9QSWlfTLwJ2/Tx18XeutQAEhAIHaCLwjcAPn7YmcXV6b6Yl4FgKLSvp28Lrx9lnyz78gAAEIjETg6OAN3ZckzRupJFwEgekJ2NHPccHrxMenLyYxQAACEHioc/1K8AbvCAwFgUQEPhS8Lpwsyc69CBCAAAQqIbBYcWTo94I3fHtXUlIigcBwAm8JXgfOkLTE8OzzHwhAAAKTEVhe0q8CN4Be9PSayYrGryAwJ4FXSvpLYP1fLGmlOUvBBRCAAAQmJLC6pCsDN4Leuvj8CcvGzyAwjMA2ku4NrPs/SnrMsMzzPQQgAIGqCGwg6c+BG8PbisONnlpVYYmn8wSeLOmW4Hp/SuetBAAIQCAZga0l3RO4UfQd0drJaJBQWwmsIemqwDr3jNdz2wqfckEAAnEJ7CDpwcCN4+8lPSouPnIWnICfp/86sL69HuHlwRmSPQhAoMUE9gjcQNpR0E8kLd1i/hStHgJLFnfWZwbX9l71FJ1YIQABCIxO4NDgDeUpkhYZvThc2XEC3kP/teCant9xG1F8CEAgCAF7RvtM8Abz2CCsyEZ8Ah8JruUvSnKdI0AAAhAIQcC+0U8L3nC+OwQpMhGZwHuCa/gHkhaPDJC8QQAC3STg09F+EbgBtaOgN3TTNJR6BAL/FPz0ywsk2RkXAQIQgEBIAl51/7vAgwDvWtgxJDkylZPAiyU9EFi3l0t6dE5ApA0BCEBgFAKPk3R94Mb0ruIo12eNUhCu6QSBp0m6I7Beb5T0xE5YgkJCAAKtIPB0GtVW2LHthYg+WL1b0uZtNwLlgwAE2kcg+rTqZUyrtk90Y5TIj6t+G/jO34+rdhqjPFwKAQhAIBSB6AurzpW0TChiZCYFgaUknRO48/eC1TemAEEaEIAABOok8N7ADa29BX5f0mJ1AiDuUAS8ZfVbwTXp7YgECEAAAq0g8NHgDe4XcK7SCp3NVYgmOK36xFyF4P8QgAAEmkSgCe5VP9gkoOR1IgKHBB+I4rZ6IrPyIwhAIDoBH7ByVvAGeM/oEMnfxAT+Jbj2fsrBVRPblh9CAAINIPAISZcEboh9xOouDeBIFscj0ISjq1cer0hcDQEIQKB5BNYoXPJeFXgQcF9xFOxzm4eVHA8hsLWkewLr7VpJaw/JO19DAAIQaB2BJ0u6JXCjfKukjVpHvXsFWl/SnwPr7HZJG3fPLJQYAhDoOoFtJN0buHG+RtJaXTdSg8u/mqQrAuvrfknbNpgvWYcABCAwFYFdJfm5u/fjR/y7SNKKU5WQH+cgsFzhRe/8oJqyzu3oZ7ccYEgTAhCAQCQC+wRuqN1Yny5piUjAyMusBOzU6XvBNfUfs5aAf0IAAhDoEIEPBW+wT5ZkXwaE2ATmSTohuJaOiY2Q3EEAAhBIS8Ae2j4bvOH+eFokpDYBgaODa+h4SR6kECAAAQhAoI+Ap26/E7wB368vv7yNRWD/4Nr5oaTFYyEjNxCAAATiEPDirfMCN+RevPW6OLjISUngVeXCuogLSZ2nCyWtgLUgAAEIQGB2At6+9YfAgwBv33rB7EXgvwkJPCf4dtKrJa2ZkAdJQQACEGg0gXUl/SnwIMAOXDZpNOF2ZH5DSXbaFPXO/2ZJT2oHakoBAQhAIB2BZ0q6M3Dj7gHK49PhIKUBAo+VdF1gfdxdbEfcciDPfIQABCAAgREJbC/pgcCN/KWSVhmxLFxWHYFHSvpNYF08KGnn6opLTBBoP4FFJXlKz6exvVPScZLOLirSBZIuK316+6CWqNN95AvboAE0gAa6qQH3TT53wn3Vr8q+y32Y+7KXlX2b+zhCScCOVTaQtHvpvCPyszwqdTcrNXbH7mgADVSlgbskfbc4ndJbVv14qJMDAnf68yVdz908sxloAA2gATTQUQ14keixXVgrsqwk+7/24SpVjaaIB5ZoAA2gATTQBg3YV8TekpZp0zMCO3bxdIdHOm0wEmXAjmgADaABNFCXBm4rZ8hXavJAYClJBxd3/d4vXRco4oUtGkADaAANtFEDHggcJMl9aaOCt25F9uTWRrFQJhpBNIAG0ED7NHCNpN2aMAKwu8tTuONnxgMNoAE0gAbQQKUa+EZkl9IvkXQTBq/U4Izm2zeax6bYFA2ggUk14D52u0izAYsUmTlQ0l/o/On80QAaQANoAA3UqgGfSPphST4+PWvwKsWzMHatxp50pMjvuMtAA2gADbRXA2cUA4EVc40AVi3dHSKw9goM22JbNIAG0EBcDVycY13AepKu5M6fO380gAbQABpAA1k18MfynIEkkwE+2/pGDJ7V4IzI447IsQ22QQNoILUG3Cf7xrzWsLqkK+j86fzRABpAA2gADYTSwNWS1qprBLACz/xDGTv1CJP0uKtBA2gADcTWgNcEVO5C2EcWsto/tuGpmNgHDaABNIAGvDug0mOGj2Cqh7t/NIAG0AAaQAON0MChVT0KeLEkOx5gZAkDNIAG0AAaQAPxNeA+e8dpBwH27Y973/jGpkJiIzSABtAAGujXgHcGrDHNIMCHD/RHyHt4oAE0gAbQABpohgZOmnQAsBOdP4MfNIAG0AAaQAON1sD24w4ClirOH74cozfa6IzQmzFCx07YCQ2ggTo1YK+9S48zCDiYzp/OHw2gATSABtBAKzTwvlEHAHYicDtGb4XR6xxVEjd3LWgADaCBZmjgtlFPDjyQzp/OHw2gATSABtBAqzTwnrlmAfycgIN+mjGiY+SNndAAGkADaGBUDdwsadnZBgH/wYivVSO+UYXBdTQiaAANoIH2a2Dv2QYAFzAAYACABtAAGkADaKCVGrho2ABgUwzeSoMzqm//qB4bY2M0gAZG1cBTZxoEHB1wAPCgJJ9stI+kzSStXPUpRzOB4DsIQAACEIDAmAR8Ap/7KPdV+0o6U5L7sFE75lTXHTlYrodLuiFQRu+W5NOMDJMAAQhAAAIQaCIB92GHSbonUP96naR5/TCfFihzX5HkQ4gIEIAABCAAgTYQWEvSiYH62Y37oe4fIGM+vtA+CB7WnzHeQwACEIAABFpAwH2b+9q/BOhv/Vj9b+FbmTNkILv+LTe8gQAEIAABCLSTwKsl+YY31TP/mdI5tYfWCxfuzJyZd/YywysEIAABCECg5QTslW+mjjnVd3b3775fG2bOiJ/5M+3fcrVTPAhAAAIQ+BsB93m51wRs4NzsknEA4JWRLPj7myZ4AwEIQAACHSGwuiTveEt11z+YzkvN+V0ZMzC/I4ammBCAAAQgAIFBAodn7H/f7swclykDdpDAPv9BOfAZAhCAAAS6QmCVjLsCPmPI9lY0ODWQ4rM9/BEgAAEIQAACXSZwVqY++HRDvzBT4j55kAABCEAAAhDoMoG3ZeqDzzf0KzIlbn/JBAhAAAIQgECXCWyRqQ++3NBvypT4o7psccoOAQhAAAIQkOR1ACkeuw+mcaPp35cp8cUwPQQgAAEIQKDjBBbP1Affa+6Do4JUnztuc4oPAQhAAAIQWEAgVb87mA4DAAQIAQhAAAIQyEhgsGNO9ZkBQEajkzQEIAABCEAgVYc/mA4DALQHAQhAAAIQyEhgsGNO9ZkBQEajkzQEIAABCEAgVYc/mA4DALQHAQhAAAIQyEhgsGNO9ZkBQEajkzQEIAABCEAgVYc/mA4DALQHAQhAAAIQyEhgsGNO9ZkBQEajkzQEIAABCEAgVYc/mA4DALQHAQhAAAIQyEhgsGNO9ZkBQEajkzQEIAABCEAgVYc/mA4DALQHAQhAAAIQyEhgsGNO9ZkBQEajkzQEIAABCEAgVYc/mA4DALQHAQhAAAIQyEhgsGNO9ZkBQEajkzQEIAABCEAgVYc/mA4DALQHAQjURuDhkraW9CFJ50i6QdL95Z/f+7sjJG0lydc2PVDedtu3Ln0OdsypPjMAqMuixAuBDhNYUtLbJf1JGrmN8YBgP0n+bdMC5Z3bzk22b916TNXhD6YzcuUc/OG0n+sGSvwQgEAeAq+QdM0YHf9gW3KVpF3yZH2iVCnv3J1/v42bZt+JRDHmj/r5pHzPAGBMQ3E5BCAwM4GHFV8fKOmvU3T+vcbPccyXNG/mpEJ8S3nH6/h7tvVrE+ybUmT9bFK+ZwCQ0sqkBYGWEnBH/eUKOv7Bxu/4oIMAyjt5599v46j2TV1N+5mkfM8AILWlSQ8CLSRwSA2df68hPDggL8pbzQDANo5o39SS62k99SsDgNSWJj0ItIyAn4HX2XB5uvhlgZhR3mrtHc2+OaRWZ/2ZLe5aK+6sCeegTJoQgEClBLz63Yu6ZqvrVfzPiwqXqjTnk0VGeeuxdRT7TqaK6X9VRR2ZJI7aK+6wTE2PjBggAIHcBN6RoPPvtSHeIpg7UN56BgC2cQT75tJXT+OpXxkA5LI46UKg4QTs9Gacff7TNm7XZ3YWRHnr6/ytjdz2zVkdp60bk/6eAUBOq5M2BBpM4B8S3v33GrgtM/KivPUOAGzjnPbNKK18/XCvYqV+zQmbtCEAgekJHJlhAHD49NmeOAbKW/8AIKd9JxZGBT9M3f/20ss38qgAGlFAAAL5CPwkwwDg7HzFFeWtfwCQ074ZpZWvH+6NBFK/5oRN2hCAwPQEUj7/77VPfk6cK1De+gcAOe2bS1dOt6fv1K/5Es5Jm7QhAIGpCdyXoeG6d+pcTx4B5a2/o8pp38mVMf0vU3f8vfQYAExvO2KAQCcJ0CG2u0Psmn1zVuJeh5z6lQFATquTNgQaTIAp8foHADmnxLtm35xVMXXH30uPAUBOq5M2BBpM4JwMjwDOysiL8tY/4Mlp34zSytcP90YCqV9zwiZtCEBgegJHZBgAHDp9tieOgfLWPwDIad+JhVHBD1P3v7308o08KoBGFBCAQD4CW2UYAGyer7iivPUPAHLaN6O08vXDvZFA6tecsEkbAhCYnoBd496QcBDg5+Hzps/2xDFQ3noHALntO7EwKvhh6v63l16+kUcF0IgCAhDIS8AHuPQak7pf98lb1AWpU9767B3BvrkkVnfdGRZ/sso7mIFcoEkXAhCojsASkq5MMAi4WpKP4s0dKG89A4Ao9s2lr8H+MdVnBgC5LE66EGgJgV0k/bXGQYDjfmkgVpS32kFANPvmkFqqDn8wHQYAOaxNmhBoGYEP1DgAOCggK8pb3SAgon1TS26wY071mQFAakuTHgRaSMCL846vYRDwpcwL/4aZivJWMwCIat9hdq/r+1Qd/mA6DADqsijxQqBjBB5WlPfAih4HeFp4ftDOv2dWyjv5IKAJ9u3ZOcXrYMec6jMDgBTWJQ0IdIjAyyRdNcVsgBcVRnrmP5fpKO94A4Gm2Xcu+1fx/1Qd/mA6DACqsB5xQAACCxHwavm3SfLe7sFGZ9hnX7tvcefv3zYtUN657dxk+9atx2F1ou7vR66cVWekbqDEDwEI5CfgZ+VbSjpc0tnlgMCnzPnPHYK/O0zSFsGn+0clSXkfsm1b7TuqDsa9rur+ddT4GACMaymuhwAEIAABCFRIYNQOu+rrGABUaESiggAEIAABCIxLoOqOfdT4GACMaymuhwAEIAABCFRIYNQOu+rrGABUaESiggAEIAABCIxLoOqOfdT4GACMaymuhwAEIAABCFRIYNQOu+rrGABUaESiggAEIAABCIxLoOqOfdT4GACMaymuhwAEIAABCFRIYNQOu+rrGABUaESiggAEIAABCIxLoOqOfdT4GACMaymuhwAEIAABCFRIYNQOu+rrGABUaESiggAEIAABCIxLoOqOfdT4GACMaymuhwAEIAABCFRIYNQOu+rrGABUaESiggAEIAABCIxLoOqOfdT4GACMaymuhwAEIAABCFRIYNQOu+rrGABUaESiggAEIAABCIxLoOqOfdT4GACMaymuhwAEIAABCFRIYNQOu+rrFpzLXXWko8S3WIXwiAoCEIAABCDQRAKLS1luxO81rJsyJb5yEy1FniEAAQhAAAIVElglUx98o8twRabEN6sQIFFBAAIQgAAEmkhgi0x98OWGdWGmxPdtoqXIMwQgAAEIQKBCAvtn6oPPdxnOzJS40yVAAAIQgAAEukzg7Ex98OmGflymxB+UxDqALsueskMAAhDoNoFHS/pLpj74M0b/rkyJe6fAYd22PaWHAAQgAIEOE/hQxv737ea+S8YM3CNprQ4bn6JDAAIQgEA3CawtyVvxRtk2X8c1LzX2J2fMgAt1oqSHddP+lBoCEIAABDpIwH3eSZn73vXNfVFJd2TOyHs6KACKDAEIQAAC3SRwQOY+9/ay719A/1uZM/NXSa/qpg4oNQQgAAEIdIjAP0pyn1fHtP6ocZ7az3u/zJlxpg1kvqR5/RnjPQQgAAEIQKAFBDzt7z3/uVb99w8O9unnuWmAAUAvc14TwMLAfuvwHgIQgAAEmkzgMQGe+ff6WL9u3A/z4ZKuDzQI8O6AwyXZRzIBAhCAAAQg0EQC3ud/RObV/v0dv99fO9NM+1GBBgC9DHuq5CxJb5O0eTkg4BTBJlYD8gwBCECg3QR8qp9vWu3b34/V7eEvwnR/rz/tvdr3wN+FTQIOAHoZ5jXvghH4wx8NoAE00A4NPOXvev/yiwsYBGRdmUkFa0cFw47YEQ2ggYgauGhY5+/v92YAwAAADaABNIAG0EArNbDXbAOApSXdiOFbafiIo1HyxF0SGkADaCCNBm6StOxsAwD/L7eHIsSQRgxwhjMaQANooDsaePdcnb//v7ykW5kFYBYADaABNIAG0EArNHCbpBVGGQD4moMweiuMzui+O6N7bI2t0QAaGKYBz+yPHJaUdDmDAAYBaAANoAE0gAYarb1F4KkAAAVKSURBVIErJC01cu9fXrgjRm+00YeNBPmeuwQ0gAbQQHc08JJxO//e9d9gEMAgAA2gATSABtBAIzXw9V5nPsnrmpK8dYDRIgzQABpAA2gADTRHA97Sv8YkHX//b14c4OxiRNcc0WErbIUG0AAayKuBv0raob8jn+b9YcwCMAuCBtAAGkADaKARGjhkmg5/8LeLSjoDwzfC8Iy884684Q9/NIAGcmrgR5IWGezEp/1sB0HnMwhgEIAG0AAaQANoIKQGfNjPStN29sN+v5qkP2D4kIbPOeIkbe540AAaQAN5NXC1pLWGdd5Vfb8eBwYxAGAQiAbQABpAA2E04BX/7puTBCd0JcYPY3xG3nlH3vCHPxpAA7k08EdJGybp+fsSWVXSrxgEMAhAA2gADaABNJBFAxdLsr+eLMGLDdgdwMg318iXdNEeGkADXdWAV/uvmKXn70vU2w0OlPQXRoBZRoBdFT/lpuFHA2igixqwk58PS/L2/DDheZKuZxDAIAANoAE0gAbQQC0a8GI/e+cNGex3+GQMX4vhuzjSpczc4aEBNIAGHtLASVX49k8xcvDxg5czEGAggAbQABpAA2hgKg1cJmm7FB13lWksWUTmtQG3YfypjM/olzsgNIAG0ED3NHBr0XceIMl9aWPDspL2lHQdAwEGAmgADaABNIAGZtXATUVv75vn7Cv8qxx1LFPMBuwt6QKMP6vxGel3b6SPzbE5GkAD7hv3kuS+stVhA0nzmRVgIMBgEA2gATTQYQ34bv9YSVu2usefpXDrSNpd0gnFo4JbOiwE7gC4A0ADaAANtFsDd0r6rqT9JW0qad4sfWPn/mWnQp4d2FnS2yV9RtJZ5THEXgl5s6T7GCRwx4AG0AAaQAPBNOC+yX2U+6rzJZ1ZnM736bIvc5/mvs19HAECEIAABCAAAQhAAAIQgAAEIAABCEAAAhCAAAQgAAEIQAACEIAABCAAAQhAAAIQgAAEIAABCEAAAhCAAAQgAAEIQAACEIAABCAAAQhAAAIQgAAEIAABCEAAAhCAAAQgAAEIQAACEIAABCAAAQhAAAIQgAAEIAABCEAAAhCAAAQgAAEIQAACEIAABCAAAQhAAAIQgAAEIAABCEAAAhCAAAQgAAEIQAACEIAABCAAAQhAAAIQgAAEIAABCEAAAhCAAAQgAAEIQAACEIAABCAAAQhAAAIQgAAEIAABCEAAAhCAAAQgAAEIQAACEIAABCAAAQhAAAIQgAAEIAABCEAAAhCAAAQgAAEIQAACEIAABCAAAQhAAAIQgAAEIAABCEAAAhCAAAQgAAEIQAACEIAABCAAAQhAAAIQgAAEIAABCEAAAhCAAAQgAAEIQAACEIAABCAAAQhAAAIQgAAEIAABCEAAAhCAAAQgAAEIQAACEIAABCAAAQhAAAIQgAAEIAABCEAAAhCAAAQgAAEIQAACEIAABCAAAQhAAAIQgAAEIAABCEAAAhCAAAQgAAEIQAACEIAABCAAAQhAAAIQgAAEIAABCEAAAhCAAAQgAAEIQAACEIAABCAAAQhAAAIQgAAEIAABCEAAAhCAAAQgAAEIQAACEIAABCAAAQhAAAIQgAAEIAABCEAAAhCAAAQgAAEIQAACEIAABCAAAQhAAAIQgAAEIAABCEAAAhCAAAQgAAEIQAACEIAABCAAAQhAAAIQgAAEIAABCEAAAhCAAAQgAAEIQAACEIAABCAAAQhAAAIQgAAEIAABCEAAAhCAAAQgAAEIQAACEIAABCAAAQhAAAIQgAAEIAABCEAAAhCAAAQgAAEIQAACEIBAtwn8Py5x3c7L2h0UAAAAAElFTkSuQmCC;" vertex="1" parent="1">
          <mxGeometry x="-1070" y="487" width="92" height="92" as="geometry" />
        </mxCell>
        <mxCell id="5XS556nmQgQ2dr4hD8sf-3" value="" style="shape=image;verticalLabelPosition=bottom;labelBackgroundColor=default;verticalAlign=top;aspect=fixed;imageAspect=0;image=data:image/png,iVBORw0KGgoAAAANSUhEUgAAAgAAAAIACAYAAAD0eNT6AAAAAXNSR0IArs4c6QAAIABJREFUeAHtnQe4BVV1tj+KUqTaEGwIAiqCiA2R35KqEhuagN2oRFFiMMYWe42KXWOJDQWJYjREosESLEFFsEQFNajYEBUpVpDqf794Dzlc7tx7zqw9c/aaeffz3OeeO/fMnrXftWavb/bM7C0Np2wl6c8kPVPSUZJOlnSGpPMkXSLpd/zAgBggBogBYmCGGHDOcO5wDnEuOXI5t+wvacvhpM3cLbmBpKdJOokkz0k9w0mNCEQIEwPEQDQGLA4+K+kpkq6fO4XmtP5PJX1U0mV0+iR+YoAYIAaIgQXFwKWSjpf0xzlTaS6rPfxyyoIcHVWN7M+VBzFADBADw42Bzy+NRt89V0rNYa2HWd5F4kflEwPEADFADFQeA8dJ2jFHaq3fykdJ+k3lDkfVD1fV41t8SwwQA/PGwK8lPbz+9FqvhddYfvJyXvB8n5OVGCAGiAFioIYYeIekzetNs3Vads2lhyo+w1U/Q33EADFADBADyWPAzwZcu85UW59VN5T0jeQOr0F5YgNXQMQAMUAM1BEDp0nya+uUNQhYJZH86whYOg78QAwQA8RAuRg4XdJ118h/o/7XFsszLhFw5QIOlrAkBogBYqCeGPCkdX6+jbKCgKfvJVBhQAwQA8QAMTDkGHjPitw3+j8PIfkjfogBYoAYIAZGEgOPHn3WXwawi6QLR+L0Iata2sZVGzFADBADs8XABUuvue+MCJA+TPJH9RMDxAAxQAyMLAa8hsCoywM6cLhXajpB0t9IusPyU5ebjJoyjYcABCAAgXkIOGf4iX3nkMOWc4oX/ik9wnHfeYwa0nc3lOR3I0sB/ZWk50nyJEIUCEAAAhCAQEkC15L0fEme5rdU3vrqUt7aoKSRWeo6oCDEIyRdL0vDsRMCEIAABNIS2L7wNPX3SUsiYPhnCwgAD/f/dcAGdoUABCAAAQi0IeDbzM5B0dGAE9scPPM+uxWAdvHSxEH3zAwB2yEAAQhAIDWB/QuIgMsl+W240ZQXFRAAnjuAAgEIQAACEFgkgUML5DM/vzaaEp3v/59GQ4qGQgACEIBA7QTeFhQBp9bewFL2+QGKyD2T8yX5aUwKBCAAAQhAoAYC20o6L5DbfBtgFA+yPzgAycLhqTV4GxsgAAEIQAACUwSeHsxtD5yqa7AfXxmA9BtWUhpsXNAwCEAAApkJeEVbT/HbdoT75ZkbP6vtkal/PzDrQfgeBCAAAQhAoGcC/xYQAMf1bOtCDvftAKBHLMRiDgoBCEAAAhBYn8AjA/nt9PWrz/8ND+O3HSIZ1buS+V1NCyAAAQiMisDNAvntl0MntZEkP+3YRgBcJmnjoQOifRCAAAQgkJbA1QM5zrnRa+QMtmzdMvlbMAxeHQ3W6zQMAhCAwHgIRBYL2nLImK4TEADnDBkMbYMABCAAgUEQcK5qM8rtfZwjB1sQAIN1LQ2DAAQgAAFJCICGMEAANIBhMwQgAAEIDIIAAqDBjUMRAH6Y0VM/3ljSTvzAgBggBoiBhcSA+2D3xTU9PIcAGJgA2FTS/SW9WdJXJP02cI+n7b0h9mt/Xw12sCMGhh0D7pPdN79J0gGSNmnIQX1sRgA0UM42AuDFGV4myQsQ0YHAgBggBoiBHDHghXleKmm7hlzU5WYEQAPdLALAQ/xPWvr5FYkf4UMMEAPEQNoY+IWkw3q+RYAASCwArBhP4IRPe8JzhZbjCg0/4ac+Y+BjPb5ihwBIKgD8QF9krYI+A5pj0YESA8QAMTB7DHiu/R0bclPJzQiABpo13wLYQdIZXPlz5U8MEAPEwGBjwH389g35qdRmBEADyVoFgOdvPpmTfrAnPVdJs18lwQpWQ4+Bz0m6WkOOKrEZAdBAsVYB4KdFhx70tA8fEwPEADHw+xh4UUOOKrEZAdBAsUYBsLukixEACCBigBggBkYTAxdJ8tK9XRQEQAPVGgXAMZz0oznpufrhCpgYIAYmMXB0Q56KbkYANBCsTQB4GsnLEAAIAGKAGCAGRhcDl0q6YUOuimxGADTQq00APIOTfnQn/UT985srQWKAGHhaQ66KbEYANNCrTQD4aVA6ARgQA8QAMTDOGPivhlwV2YwAaKBXkwDYTNIlCAAEEDFADBADo40BPwDuxd5KFgRAA82aBMCeBU76syV9hx8YEAPEADGwkBhwHxwdvbllQ75quxkB0ECuJgGwfyBwPHJwr4Y2shkCEIAABPoj4L7YD/S1FQL3KGwqAqABaE0C4MBAwBzf0D42QwACEIBA/wQ+EujPnQtKFgRAA82aBMBDAgFzVEP72AwBCEAAAv0TcJ/cdgTAuaBkQQA00EQANIBhMwQgAAEItCaAAGiNrr8dEQD9seZIEIAABMZCAAGQwNMIgAROwkQIQAACyQggABI4DAGQwEmYCAEIQCAZAQRAAochABI4CRMhAAEIJCOAAEjgMARAAidhIgQgAIFkBBAACRyGAEjgJEyEAAQgkIwAAiCBwxAACZyEiRCAAASSEUAAJHAYAiCBkzARAhCAQDICCIAEDkMAJHASJkIAAhBIRgABkMBhCIAETsJECEAAAskIIAASOAwBkMBJmAgBCEAgGQEEQAKHIQASOAkTIQABCCQjgABI4DAEQAInYSIEIACBZAQQAAkchgBI4CRMhAAEIJCMAAIggcMQAAmchIkQgAAEkhFAACRwGAIggZMwEQIQgEAyAgiABA5DACRwEiZCAAIQSEYAAZDAYQiABE7CRAhAAALJCCAAEjgMAZDASZgIAQhAIBkBBEAChyEAEjgJEyEAAQgkI4AASOAwBEACJ2EiBCAAgWQEEAAJHIYASOAkTIQABCCQjAACIIHDEAAJnISJEIAABJIRQAAkcBgCIIGTMBECEIBAMgIIgAQOQwAkcBImQgACEEhGAAGQwGEIgAROwkQIQAACyQggABI4DAGQwEmYCAEIQCAZAQRAAochABI4CRMhAAEIJCOAAEjgMARAAidhIgQgAIFkBBAACRyGAEjgJEyEAAQgkIwAAiCBwxAACZyEiRCAAASSEUAAJHAYAiCBkzARAhCAQDICCIAEDkMAJHASJkIAAhBIRgABkMBhCIAETsJECEAAAskIIAASOAwBkMBJmAgBCEAgGQEEQAKHIQASOAkTIQABCCQjgABI4DAEQAInYSIEIACBZAQQAAkchgBI4CRMhAAEIJCMAAIggcMQAAmchIkQgAAEkhFAACRwGAIggZMwMUxgY0n3lvQKScdIeo+k50i6TbhmKoAABFYjgABYjUpl2xAAlTkEc4oTuIek7y4l/N81/HxM0o7Fj0qFEBg3AQRAAv8jABI4CRNbEzhE0uUNiX9aEJwnaa/WR2FHCEBgJQEEwEoiFf6NAKjQKZhUhMCBMyb/iRA4S9K2RY5MJRCAAAIgQQwgABI4CRPnJnBHSRfOcOU/Sf6T36+Z+0jsAAEIrEYgIgAevFqFgW3ntOgLJn2Cc+RgCwJgsK4dbcNuIumnLU/48yVtOlpyNBwC5Qi8vuU56MR7z3Jm/G9NCIAGoAiABjBsTklgK0lfC3Q87nxul7LlGA2BuggcFjgPdyncFARAA1AEQAMYNqcjcDVJfqJ/MnTX9vcB6VqOwRCoj8BN53wGZ3K+fqODpiAAGqAiABrAsDkdgbcUSP7uhPZP13IMhkCdBN7b4px8aAdNQQA0QEUANIBhcyoCT23R0UyuOFb+vnGqlmMsBOolsL2kM+c4N4+VtGEHzUEANEBFADSAYXMaAveXdNkcnczKhD/993+naTWGQiAHgVtI+vYM56eT/xYdNQkB0AAWAdAAhs0pCPiBvd/M0LlMJ/m1Ph+UotUYCYFcBLaW9GJJqyVi3/N/WEdX/hNKqx13rX5g+n/OkYMtCIDBunbwDfNQ/Y8LJv/3DZ4YDYTAYglsJOm2ku67/KyNHxTsoyAAGigjABrAsLlqAltK+krB5P+lDocfqwaJcRAYAQEEQIOTEQANYNhcLQFfRRxXMPn/SNINq20thkEAAlECCIAGggiABjBsrpZAZIax6Xt7/uznB5j4p1pXYxgEihBAADRgRAA0gGFzlQSeWPDK328O3KfKVmIUBCBQkgACoIEmAqABDJurI+D5wS8tKAA8VSkFAhAYPgEEQIOPEQANYNhcFYFbS/pVweTvWQMpEIDAOAggABr8jABoADPCzZ6EY09Je1T2RPwOkn5QMPkfL2njEfqXJkNgrAQQAA2eRwA0gBnR5gdI+vSKhTsuWd7m93UXWSxKvlww+Z8myZOSUCAAgfEQQAA0+BoB0ABmBJs3l+TpN1c+Gb/yby/o4e/2XTwn+Cz2rbS36W9PGsQ8/317keNBYPEEEAANPkAANIAZ+OZNJX1ihuQ/SaYfkuT37/ssr5nDvomdTb8vkLRPn8ZzLAhAoBoCCIAGVyAAGsAMeLOvrD3tbVOybNp+aI9MDm5hX5Pdl0tijv8encehIFAZAQRAg0MQAA1gBry57ZX1T3p6eO7ukvwMQlNCn3f7kwfsS5oGAQisTwAB0MAIAdAAZqCbnQznTaDT379rx1x2l/TzoI3T9r6tY3upHgIQqJ8AAqDBRwiABjAD3PygFU/6TyfKWT93eRtge0nfL5j8P7m0BOnVB+hHmgQBCMxHAAHQwAsB0ABmYJt95f7bAsn17zrispmkkwrYNxEyX5e0bUe2Ui0EIJCLAAKgwV8IgAYwA9rsyX1KDas/rAMufijxAwWT/88k9bXOeAc4qBICEChMAAHQABQB0ABmIJtvJOnMgsl1pw64vLygfRdKumMHNlIlBCCQlwACoMF3CIAGMAPY7BnvvlIwuX6kAyaPKmifX/d7cAc2UiUEIJCbAAKgwX8IgAYwyTd7oh9P7zu5Jx797ecHblWYiZ9LuKigjX9f2D6qgwAEyhLw7T6/6XOPpYnI7iLJI5R9FARAA2UEQAOYxJvbTvSzlkjwxDwly80lnV8w+R9R0jjqggAEihLwmh7PkXTWKuf8lyT9haQNih7xypUhAK7M44q/EABXoBjMh1evcpKtldzX+9/zCpO59tJQ/bcK2uiRjk0K20h1EIBAGQK7LM3E+c0ZznevOeK3gbooCIAGqgiABjBJNz9lhhNtvYQ//f+jCitz35r4bEEbvy3JgoICAQjUR8Dn5nfmON/fX7i/mRBBAExIrPiNAFgBJPGfnu/+sjlOtulEv9rnDxee+tdDfO8uaJ9P6l0T+wvTITB0Ake3ON89YVnpggBoIIoAaACTbHOpiX4mQuALknzfrmR5cYvOYGLPyt9+ePBuJY2jLghAoCiBm7S8IDm1qBW/rwwB0AAVAdAAJtHmWxZ+oO4MSdsVbv8jCiZ/v+730ML2UR0EIFCWwBMC53zpibwQAA2+RQA0gEmy+fqSfhA40VZeWXsWvd0Kt/3OhaYhntj63ML2UR0EIFCewOsD/dI9C5uDAGgAigBoAJNgc+mJfi6QtG/hdltMnBfoCCZJf/LbTwp3+bpQ4eZTHQRGS8APEE/O23l/l57QCwHQEIYIgAYwlW8uPdHPpUuzBt6vcJuvJen0QCewstM4kdf9CnuI6iDQHYGIAHhIYbMQAA1AEQANYCre3MVEP48v3F4vw/uJgsnfzyVct7CNVAcBCHRHAAHQHdtiNSMAiqHsraLaJ/rxEP27CiZ/r2To6UMpEIBAHgIIgAS+QgAkcNKUibVP9GNTPXPgyuH7tn9fLOkPp9rPRwhAIAcBBEACPyEAEjhp2cTaJ/qxmQdK8mt6bRP+yv0ek8c9WAoBCEwRQABMwaj1IwKgVs9c2a4ME/3sV/h1vxddGQF/QQACiQggABI4CwFQv5NuICnyFOvKq+ouJvrZSdLZBa/83yfJDztSIACBnAQQAAn8hgCo30nHFkysnujHq3OVLNeccbWvlUKk6e9TJG1e0kDqggAEeieAAOgd+fwHRADMz6zPPXZuOZ/2asn1N5LuUNj4q0n6eEGB8t0OpiEu3GSqgwAEZiCAAJgB0qK/ggBYtAfWPr4fglstmc+7rYuJfmz5mwvZ5/b8QtIea+PgvxCAQBICCIAEjkIA1O2klxRKsKUn+jG1Zxayzcn/Ekl/XLcrsA4CEJiDAAJgDliL+ioCYFHkZztuCQHw/NkONde3/rzgrQkLgEPmOjpfhgAEaieAAKjdQ5IQAHU76eDgVfbbO1g853aS/DzBvLchmr5/eN0uwDoIQKAFAQRAC2h974IA6Jv4fMfzcr+XtUy2H5a08XyHW/fbO0r6SUt7VhMA/y5po3WPyhcgAIFsBBAACTyGAKjfSX4nfrXkudY2v0q3ReGmbSXpqy1sabLzi5KuUdhGqoMABOoggACoww9rWoEAWBNPFf+84dI98p/OkXi/08GrdH7d76Nz2NCU9CfbfyTJExxRIACBYRJAACTwKwIggZMk7T3j0PupkiwYSpc3Fkz+v5R0q9IGUh8EIFAVAQRAVe5Y3RgEwOpcaty6naQjll+Zm1xJT37/WpLfGNiyA8NLrkDo+Qju1YGNVAkBCNRFAAFQlz9WtQYBsCqWqjdeW9IDJP2tpCdIuoekzTqy+IDAQ4gTcTL9+9CO7KRaCECgLgIIgLr8sao1CIBVsbBR0m0keWRhOoFHPr8aqhCAwGgIIAASuBoBkMBJCzDRrx+eWTD5+5VEXvdbgCM5JAQWRAABsCDw8xwWATAPrXF8188RfKVg8v+apK3HgY5WQgACywQQAAlCAQGQwEk9muir9OMKJv+zOnoroUckHAoCEGhBAAHQAlrfuyAA+iZe9/FeXzD5XyDp9nU3F+sgAIGOCCAAOgJbsloEQEmauet6YsHk7+mL75sbB9ZDAAIBAgiAALy+dkUA9EW67uPcc2l5X7+jH3nKf3rfw+puLtZBAAIdE0AAdAy4RPUIgBIUc9dxa0m/Kpj835IbB9ZDAAIFCCAACkDsugoEQNeE665/B0k/KJj8j+9gBcK6CWIdBCCwGgEEwGpUKtuGAKjMIT2as7mkkwsm/9MkbdOj/RwKAhColwACoF7fXGEZAuAKFKP6sKGkYwsm/x9LuvGoCNJYCEBgLQIIgLXoVPI/BEAljujZDE/LO/3QXuSzX/fbp2f7ORwEIFA3AQRA3f75X+sQAAmcVNjEgwsm/8slHVTYPqqDAATyE0AAJPAhAiCBkwqaePeG5YTbjgB4qWAKBCAAgZUEEAAriVT4NwKgQqd0ZNItJP284NX/2zqyk2ohAIH8BBAACXyIAEjgpAImXk/S9wsm/09KunoBu6gCAhAYJgEEQAK/IgASOClo4maSTiqY/L8hadugTewOAQgMmwACIIF/EQAJnBQw0a/7faBg8v+ZpJsG7GFXCEBgHAQQAAn8jABI4KSAiYcXTP4XSto3YAu7QgAC4yGAAEjgawRAAie1NPFRBZO/X/d7cEs72A0CEBgfAQRAAp8jABI4qYWJd5V0UUEB8IwWNrALBCAwXgIIgAS+RwAkcNKcJt5c0vkFk/8/S9pgThv4OgQgMG4CCIAE/kcAJHDSHCZee2mo/lsFk/+nJW0yx/H5KgQgAAETQAAkiAMEQAInzWjippI+WzD5f1uS44MCAQhAYF4CCIB5iS3g+wiABUDv4JAeon93weR/rqRdO7CTKiEAgXEQQAAk8DMCIIGTZjDxxQWT/8WS7jbDMfkKBCAAgSYCCIAmMhVtRwBU5IyWpjyiYPL3634PbWkHu0EAAhCYEEAATEhU/BsBULFzZjDtzpJ+W1AAPG+GY/IVCEAAAusRQACsR6iC/yMAKnBCSxN2luSpedsu5btyv/fyul9LT7AbBCCwkgACYCWRCv9GAFTolBlMupak0wsm/xMl+S0CCgQgAIESBBAAJSh2XAcCoGPAHVTvZXhPKJj8z5B03Q7spEoIQGC8BBAACXyPAEjgpCkT/brfuwom/19IuuVU/XyEAAQgUIIAAqAExY7rQAB0DLhw9c8tmPz9ut8fFraP6iAAAQiYAAIgQRwgABI4adnEAyX5Nb2VD++1/fsxeZqOpRCAQDICCIAEDkMAJHCSpP0Kv+7niYMoEIAABLoigADoimzBehEABWF2VNX1JJ1d8Mr/GEkbdmQr1UIAAhAwAQRAgjhAANTvJCfstsP8K/c7SdJm9TcZCyEAgeQEEAAJHIgAqNtJN5Z0aSEB8F1J29XdXKyDAAQGQgABkMCRCIC6nfToQsn/l5L2qLupWAcBCAyIAAIggTMRAHU76aUFBMAlkv6k7mZiHQQgMDACCIAEDkUA1O2klxUQALzuV7ePsQ4CQySAAEjgVQRA3U5y8l75IN88fx9ed/OwDgIQGCgBBEACxyIA6nbSToHJf/6V1/3qdi7WQWDABBAACZyLAKjfSR9sMQrwBUnXqL9pWAgBCAyUAAIggWMRAPU76SaSzp9DBPxA0g71NwsLIQCBARNAACRwLgIggZMk3XFGEeClfXfO0SSshAAEBkwAAZDAuQiABE5aNvFGkj4g6bJVRgMukvQGSdfM0xwshQAEBkwAAZDAuQiABE5aYaKFwF8ubfPSwH8vyasEbrPiO/wJAQhAYJEEEACLpD/jsREAM4LiaxCAAAQgMDMBBMDMqBb3RQTA4thzZAhAAAJDJYAASOBZBEACJ2EiBCAAgWQEEAAJHIYASOAkTIQABCCQjAACIIHDEAAJnISJEIAABJIRQAAkcBgCIIGTMBECEIBAMgIIgAQOQwAkcBImQgACEEhGAAGQwGEIgAROwkQIQAACyQggABI4DAGQwEmYCAEIQCAZAQRAAochABI4CRMhAAEIJCOAAEjgMARAAidhIgQgAIFkBBAACRyGAEjgJEyEAAQgkIwAAiCBwxAACZyEiRCAAASSEUAAJHAYAiCBkzARAhCAQDICCIAEDkMAJHASJkIAAhBIRgABkMBhCIAETsJECEAAAskIIAASOAwBkMBJmAgBCEAgGQEEQAKHIQASOAkTIQABCCQjgABI4DAEQAInYSIEIACBZAQQAAkchgBI4CRMhAAEIJCMAAIggcMQAAmchIkQgAAEkhFAACRwGAIggZMwEQIQgEAyAgiABA5DACRwEiZCAAIQSEYAAZDAYQiABE7CRAhAAALJCCAAEjgMAZDASZgIAQhAIBkBBEAChyEAEjgJEyEAAQgkI4AASOAwBEACJ2EiBCAAgWQEEAAJHIYASOAkTIQABCCQjAACIIHDEAAJnISJEIAABJIRQAAkcBgCIIGTMBECEIBAMgIIgAQOQwAkcBImQgACEEhGAAGQwGEIgAROwkQIQAACyQggABI4DAGQwEmYCAEIQCAZAQRAAochABI4CRMhAAEIJCOAAEjgMARAAidhIgQgAIFkBBAACRyGAEjgJEyEAAQgkIwAAiCBwxAACZyEiRCAAASSEUAAJHAYAiCBkzARAhCAQDICCIAEDkMAJHASJkIAAhBIRgABkMBhCIAETsJECEAAAskIIAASOAwBkMBJmAgBCEAgGQEEQAKHIQASOAkTIQABCCQjgABI4LCIADhX0rYFfx4j6Xctf44paEfJNlFX2RiBJzyJgRwx4D65bX/uXFDSz85VbW1xjhxsiQiAtkDZr30wwg52xAAxQAz0FwMIgIB6IlD7C1RYw5oYIAaIgbIxgABAALQePuJkLHsywhOexAAx0GcMIAAQAAgAYoAYIAaIgRHGAAJghE7vU2FyLK5oiAFigBioMwYQAAgAlD8xQAwQA8TACGMAATBCp6PG61Tj+AW/EAPEQJ8xgABAAKD8iQFigBggBkYYAwiAETq9T4XJsbiiIQaIAWKgzhhAACAAUP7EADFADBADI4wBBMAInY4ar1ON4xf8QgwQA33GAAIAAYDyJwaIAWKAGBhhDCAARuj0PhUmx+KKhhggBoiBOmMAAYAAQPkTA8QAMUAMjDAGEAANTr9c0nn8wIAYIAaIAWKg4hhwrmo7woIAaIB3zmAXSaZhEIAABCAwFALOVQiAVbxpddMWDAJgFaBsggAEIACBqgggABrcgQBoAMNmCEAAAhAYBAEEQIMbEQANYNgMAQhAAAKDIIAAaHAjAqABDJshAAEIQGAQBBAADW5EADSAYTMEIAABCAyCAAKgwY0IgAYwbIYABCAAgUEQQAA0uBEB0ACGzRCAAAQgMAgCCIAGNyIAGsCwGQIQgAAEBkEAAdDgRgRAAxg2QwACEIDAIAggABrciABoAMNmCEAAAhAYBAEEQIMbEQANYNgMAQhAAAKDIIAAaHAjAqABDJshAAEIQGAQBBAADW5EADSAYTME5iSwraR7SzpU0lMX9ONj2wbbQoEABH5PAAHQEAkIgAYwbIbAjARuLOkoSZcEFtZquyBX034XSzpS0o1mbANfg8CQCSAAGryLAGgAw2YIzEDgzpLOrSjxrxQE7vhsIwUCYyaAAGjwPgKgAQybIbAOgZtL+nnFyX8iBmzjbuu0hX9DYMgEEAAN3kUANIBhMwTWIfCfCZL/RAR8cp228G8IDJkAAqDBuwiABjBshsAaBG6bKPlPRMDea7SHf0FgyAQQAA3eRQA0gGEzBNYg8OyEAuCZa7SHf0FgyAQQAA3eRQA0gGEzBNYgcERCAfD2NdrDvyAwZAIIgAbvIgAawLAZAmsQeGdCAWDRQoHAGAkgABq8jgBoAMNmCKxB4AUJBcDz1mgP/4LAkAkgABq8iwBoAMNmCKxBYL+EAuCOa7SHf0FgyAQQAA3eRQA0gGEzBNYgsIGkLyQSASdLss0UCIyRAAKgwesIgAYwbIbAOgRuvzTf/4UJRIBtvN06beHfEBgyAQRAg3cRAA1g2AyBGQgcIOmCikXAbyTdb4Z28BUIDJkAAqDBu9sEOq9fNNTJZgiMicCtlubbPyFwHk0m6in92zMV7jkmR9BWCDQQcK5qe345Rw62bBwAc6mkDQdLhoZBYD4Cu0o6RNILJb1kQT8+tm3YZT7T+TYEBktgI0mXtcxzl0vy/oMukfuYXgqVAgG1LlJeAAAgAElEQVQIQAACEKiRwE4tk79HDH5dY4NK2/T9AKA/L20M9UEAAhCAAAQKETgwkN++W8iGqqv5eADQkVW3DOMgAAEIQGDMBI4O5LePjAHcPwYAnS/p6mOARBshAAEIQCAVgatJco5q+wDga1O1tqWxBwcAGewjWx6X3SAAAQhAAAJdEXg0uW19tDcNQvqRpM3XPwzfgAAEIAABCPRCYDNJPwzmth17sbSCg0QeBPQowHMraAMmQAACEIAABEwgumDXd8aE8XVBpeT3LP9sTMBoKwQgAAEIVEng3oF3/yfPC7yqypZ1ZJTnCp80vO1vz7bEzGMdOYhqIQABCEBgXQKemfOXBfLZ3useaWBfOK0AtJ9LusfAuNAcCEAAAhCon8D+kiLT/k4ufr9Wf1PLWxh9YnICz1MEP4PXA8s7iBohAAEIQOAqBDZZGvJ/VoFh/0kOG+WbbX5n8nsFRgEmEH8g6a/GMJfyVcKRDRCAAAQg0DWBDSR5Nlo/sDfJO9HffiB+tHPbPLYgyIkj/JrgGyX9qaRtu44I6ocABCAAgcEScA65u6Q3LV1gntVBvvJI+GiLVz76YgdQJ2LAv/2cgBUbPzAgBogBYoAYmDUGnDumc0npzyezwq10h4L3Uko7iPq6PQHgC19igBgYYwz42bXbjvbSf0XDva74GIOANuN3YoAYIAbGFwNMZjclAjaUFFklkBNofCcQPsfnxAAxkDEGPsHD6lPZf/nj9pK8HnJGh2IzfiMGiAFigBhYLwb8/MF2V01/bDGBnSX9BBGACCIGiAFigBgYWAz8TNJupPq1CXhKRINaT0nxfxgRA8QAMUAMZIiBsyWNbrrftVN98389EvBtRAAiiBggBogBYiB5DPjWNlf+zfl+1f/sIOnE5I7PoEyxkSsoYoAYIAa6iYFPLU0idL1VMxwb1yWw8dI3/LqEl/8lQGFADBADxAAxkCEGLl+aifY1kjzlPSVIYD9JX0UEIIKIAWKAGCAGKo+Br0i6UzDnsfsKAh4NOIy3BDj5Kz/5M1ydYCNX0cRA+Rj4saS/luRcRemIwGbLkJkzoHwA0ynAlBggBoiB+WLgDEmHSnJuovREwLMH3kXS23ltkFEBRgWIAWKAGOgxBvyq+lsl3VmSlwmmLJCAxcBekp4o6ShJXmXpFz0GA4p5PsUML3gRA8RAlhjwqoDOKc4tzjG3IukvMNvPcWgPyVxH0k78wKBgDHwuIC4fUtCOocW12bRNCifBlXO8cAw4d2w6R77hqxCAwAgI+GqgbaLaZwR82jZx3wBX+4QCAQhAAAIQ6JTA1wOJao9OLctduYdW2wor+4QCAQhAAAIQ6JTA9wOJytNcU1YnsEuAq31CgQAEIAABCHRK4NxAomJa0GbXePrvtiMA5zRXy38gAAEIQAACZQhcFEhUW5YxYZC1bB3g+ttBEqFREIAABCBQDQHP7d32KtX7bVRNS+ozxDOoRdgy73p9PsUiCEAAAoMhsE0gSV04GArdNeTiAF+PIFAgAAEIQAACnRC4QSBBcZ96fZecH+B7/fWr5xsQgAAEIACBdgRuFkhQPKm+PvMzA3x3Xb96vgEBCEAAAhBoR+A2gQTFu+rrMz89wHfv9avnGxCAAAQgAIF2BLz4R9sH1Zitbn3mXwzwtW8oEIAABCAAgU4I3DOQoD7SiUXDqvQ/A3zvMSwUtAYCEIAABGoi8KBAgnpvTQ2p1Jb3B/geVGmbMAsCEIAABAZA4NBAgnrzANrfdRPeFuD7uK6No34IQAACEBgvgWcFEtRLx4tt5pa/PMD3GTMfhS9CAAIQgAAE5iTwykCCevqcxxrj1yMCy+KBAgEIQAACEOiEwBEBAXBIJxYNq9LILZa3DwsFrYEABCAAgZoIfDAgAHhIbX1PPiTA99j1q+cbEIAABCAAgXYETgwkqLu3O+So9to/wPfToyJFYyEAAQhAoFcCns2v7URA+/Rqac6D3SnA99ScTcZqCEAAAhDIQODHgQS1W4YGLtjG3QN8f7Rg2zk8BCAAAQgMmMBFgQS13YC5lGraDgG+vy1lBPVAAAIQgAAEpglsEUhOvm2wyXRlfF6VwOZBxt6fAgEIQAACEChK4EaB5HRBUUuGXZmv5Ns+Z3GDYaOhdRCAAAQgsAgCewYS01mLMDjpMX8S4LxH0jZjNgQgAAEIVEzgboHE9OWK21WbaV8NcL5LbY3BHghAAAIQyE/ggEBi+mj+5vfWgsiSwPfrzUoOBAEIQAACoyHw+IAAOHI0lOINPTrA+bHxw1MDBCAAAQhA4MoEnh9ITCxUc2WWa/316gDn565VMf+DAAQgAAEItCHwlkBiemqbA450Hy/r2/YtgDeNlBnNhgAEIACBDgkcF0hMf9mhXUOr+uAAZxYEGlo00B4IQAACFRA4OZCYvMgNZTYC9wlwPmm2Q/AtCEAAAhCAwOwEzgwkplvPfpjRf/P2Ac7fGz09AEAAAhCAQFECG0iKrANwvaLWDLuy6wcEwIWS7CsKBCAAAQhAoAgBJ/C2D6ZdLGnDIlaMo5KNJF0S4H3tcWCilRCAAAQg0AcBhqX7oPx/x4jcbtn7/6rhEwQgAAEIQCBG4AGBK9LPxA49yr39MF/bEZf7jpIYjYYABCAAgU4I/G0gIR3TiUXDrvT9Ad5PGDYaWgcBCEAAAn0SeFUgIb2yT0MHcqzXBngz6+JAgoBmQAACEKiBwL8EEtKTamhAMhueHODNiEsyZ2MuBCAAgZoJnBJISKxQN79nI89cMBnQ/LzZAwIQgAAEGgicGxAAt2qok83NBPwkf9uHAM9urpb/QAACEIAABGYn4PfK2yYj77fV7Ifim8sEtg4yvyYkIQABCEAAAlECdwoko59GDz7i/c8JcN9nxNxoOgQgAAEIFCLglfzajgB8rpANY6wmsvjSw8YIjDZDAAIQgEBZAv8QEADvLmvKqGp7T4D7C0dFisZCAAIQgEAnBCKT0jy/E4vGUamTeNuRl/eNAxGthAAEIACBLgmcGkhEB3Vp2MDrflCA+1cHzobmQQACEIBAxwQ2D65Md8uO7Rty9X59su0IgFcT3GzIcGgbBCAAAQh0S+COwSS0SbfmDbp2s4ssC+wVHCkQgAAEIACBVgQeHxAAp7U6IjtNE/h6gP8h0xXxGQIQgAAEIDAPgbcGEtB75zkQ312VgOf1b3sb4C2r1shGCEAAAhCAwAwEvhRIQM+eoX6+sjaB5wT423cUCEAAAhBIQmALSX76+82SjpP0sQX/XBxIQL4FsGj7sx/fDNuOANh3i26/Y9ix/EBJjm0KBCAAAQisQuCRkryQS9sOn/1gV3MMeFpozypJgQAEIACBKQKvIPEjfEYSA4dPxT0fIQABCIyawMEj6fhrvjrFtn5HTx416jOexkMAAhCQ5GVfI6u+kbj6TVzwLsP7ZywTTf8HAQiMnUBkpT2SUZlkBMfFcGTFwrH3frQfAiMn8E6G/7n3P9IYeMfIz32aDwEIjJzAR0fa+XPVvZir7pq4O/YpEIAABEZL4FgEACMAI42BD4z2rKfhEIAABJZWbHvpSDv/mq5EsWUxoxH/QA8AAQhAYMwE9kUAMAIw0hjYZ8wnPm2HAAQgYAIfH2kC4Mp7MVfeNXA/gVMfAhCAAASkHSV5mtQaOmZswA9dx4DnvdiJEx8CEIAABH5PYE9J30MEIIIGHgPfleRYp0AAAhCAwBSBrSQ9X9KZA08CXV9hUn99oxiOacf2llPxzkcIQAACEFhBYANJu0q6i6Q/4gcGiWPAMexYdkxTIAABCEAAAhCAAAQgAAEIQAACEIAABCAAAQhAAAIQgAAEIAABCEAAAhCAAAQgAAEIQAACEIAABCAAAQhAAAIQgAAEIAABCEAAAhCAAAQgAAEIQAACEIAABCAAAQhAAAIQgAAEIAABCEAAAhCAAAQgAAEIQAACEIAABCAAAQhAAAIQgAAEIAABCEAAAhCAAAQgAAEIQAACEIAABCAAAQhAAAIQgAAEIAABCEAAAhCAAAQgAAEIQAACEIAABCAAAQhAAAIQgAAEIAABCEAAAhCAAAQgAAEIQAACEIAABCAAAQhAAAIQgAAEIAABCEAAAhCAAAQgAAEIQAACEIAABCAAAQhAAAIQgAAEINAbgd0lHSLpCEkflvR5SV8Y6M8pkj4k6ZmSdu6NsLSBpLtLeqOkTw2U7VBjhnYNtz/o27fuW93Huq91n3uLHvsgDgWBKwhsIelxkk6V9LuR/lws6VWSrn4FlW4+3GxZVI2VM+0e7zmG79f3/dckPVbSNbrpfqgVAlcmcD9JPxxp0l+tQ/p4hyLgtpLOh/VoReZq8ca29ZPiGBl9X9J9rtxV8xcEyhHYRNI7SUarJqPXlcN8RU3bSDoT3qvyHmMHT5tJ/LPEwDs6vCC5onPiw7gIbL1873mWABzjdy6V5KH6kuVFJH+SPzFADLSIgU9I2qpkZ0Rd4yWwkaR/bxGEYxMCLywYIn7oj9ssXPGN7RyiveVi/nhJGxfsk6hqpAReQ/Kf6SrET+eXKn7DgM4QBsQAMRCJgVeW6pCoZ5wE9pF0GclopmR8esEQ2RfmMzGPdI7sS3Idegy4775dwX6JqkZEwMPQXyQRzZyIPEdAqXJLuM/MfeidOO1DqERi4ORSnRL1jIvAXUhCcyUhT85Rqmwu6QL4z8U/0kmyL0l2yDFw51IdE/WMh8DRJKC5EtC9CofG++E/F/8hd+C0DYESiYF3F+6bqG7gBDyrFFegs3c6HmbzLZOSZS+ev0AAIAKJgQIx4L6cmQJL9s4Dr+v+BYIuolgz7XuepF06ioen4AcSADFADBSIgQM66qOodoAEjiwQcJmSeFtbz5C0Z8f+/1tJl+APkgAxQAwEYsB9OgUC6xK4GvPPr9vRnCbpaZL8sF4fxbMMehpm1gWY/bZMW1HHfjAeYgy473DfToHAmgT+JKAyfeK8VtJtBvrjpY+3XZNet//0zF7Xl7T3QPkONW5o13D7hD596741Ik7ct1MgsCaBNwWDbLc1a+efEIAABCDQhoCfNYoIgDe2OSj7jIfAhpLOCgSZh8YpEIAABCDQDYGvB/rnn0hyH0+BwKoEolPQllwQZ1UD2QgBCEBgxASiq4TeccTsaPo6BA4PqEsPTfl+GAUCEIAABLohcNtgH/2ybsyi1iEQ+J9AcHn52tKT4QyBKW2AAAQgUIqA+9jvB/rpb5UyhHqGRcDvs0ceMHn1sHDQGghAAAJVEogu0e7FxigQuBKB5wQFgBcPokAAAhCAQLcE7hrsq5/drXnUnpHAfweC6hxJfkedAgEIQAAC3RLYSNLZgf76y92aR+3ZCOwYCCbfNnhbtgZjLwQgAIHEBN4e7LN3Stx2TC9MwPPNR+7//1lhe6gOAhCAAASaCXj58Uif/cTmqvnP2Aj8VyCYfiVp07EBo70QgAAEFkhgE0m/DPTbn16g7Ry6IgLXlXRpIJDeW1FbMAUCEIDAWAgcE+i3L5N0vbGAop3NBP4qEEQegjqouWr+AwEIQAACHRF4YLDvfnRHdlFtIgL/EQiiiyVtk6itmAoBCEBgKAS2lnRRoP/+0FBA0I52BLZcWtf+t4EA+nC7w7IXBCAAAQgUIBC5gHPfv1UBG6giKYHoENLBSdvt92gPkPROSZ+R5OkxvzPDz6mSPrY05fHzJHW97LFHVg6RdKykL85g28T+L0n6N0mPl3TNjv1z0yXx6AmkPirJbCY2rPX728vMj1za5wE9zB/hCapeL8kPPX1zRhu/IelTkl4lqevFU64uyefh0ZI+O6N95vs1ScdL+ntJN+7Yz9eRdNjSWh/HSfJ8IWv5d/p/p0h6vyT3E1t0aKPPxecvn5uzxqHPeZ/77gPuJ8l9QsbCLdyMXqvE5jE+RLL3crKKvELjff3gpBOLn8YtXR4uyZMrRW08T1IX9/mctDz18yUFbPTyprcvDVDS9SV9vIB99oETn5Ng6WJxYkEU9bOHgb1KXBdJ7AnBp80nbfNStBZ8JYvPvTcEH2Ke2GdBdeuSxvVU13bB9vMQd0+Oqu0w0ddI/OpgtuIpNH9ToMOddBr+/cnCIuAZhe2zjS8o6Cgnf1/xTzOIfr5w6WrsjwvaeJOlq84fFbbxDEnbF7TRV51+hibKbnr/fy0sAizypuuPfr5ckgVFieJXjz1KE7Vpen/3DRmnND8xwIHXuEtEY8I6PHnPdPDP+9mTB2UqfuWlxFX1apx8FVKi2CfuJFc7RnSbb3mUKKWTwqRd50u6QQEDr7Y0pPuVjhh6yLjEipe7Svp1RzY+twBDV/GIjuzzyNmdC9j45o7s+5kkX1VnKk8Kstg/U2OxtQwBT9876Xzb/M42leQ/Btu7FiN3arcIumXD5XvUax0n8j/fm42u17BLoWH/pna8NcjQu0fviTbZNtl+YAEb39dhLF4gaYegjZstcTyrQxv9bECkeDU7v8c+8Unp3761l6lEp3Ivcd5l4jV6W8e2mISvCn0/vHRHMV3fi4NRtV/H9tnWPwja6KvL6TaX/lxiONIP0pW2a7q+6Jsvfrgz8urWtC1Nn6PTvPr2RFPdpbZHlqR9acf2eTTKt7oylchibh71iF4cZGI1elvHtpzkXh13GO4Uo1NrPqUHG58VjHy/AVEqATTVs0/ARndikVktm2ya3u7pVyPlT3pg+C8RAyUd3oONjwnYGLnnPe3LtT67z8hUosu5l7gtk4nXqG19TfAE3yMZvT8NtnetjmLyv9ODTF7Rg42+DRIpXd1bnzD07/sEDPRzHtN1dfX5GgEbH9qDjU6QkeJX47piN6nXCatt8bk2qaer3+4zMpU9g0z8yitlJAT8RHPbE8f7Ziu+qmzb3ln3OzkI5dk92OhXxSIlsmjUrBwjT2H73vWsx2n7PQ/fRx4EvHcPNv57xMmSXteDjX8TsPELPdh3h4B9i9o18krp94Jxvag2c9w5CdwmePJ4eDBb2bbjh9ecTLw+d6TcP+iXWRLagyIGLj0d/caObfSDXV6cKlL8sOMsLNp+xxMtRcrOHdvndr0kYqCkx/Zg4x8FbDyiY/v8eqb7jGzl5UEuniOFMnACLwwGyb5J+XjWtLad/iz7RV+l8UxpkeU917PR7zhH121wp73ecSL//0SB2Or6ATHPvBctFhERTuvte7uggZ7voMsHFc9emrjID+a2LffqmJ+n181Y7hTkUnK+kIz8RmHzaYEg8Wxefl0tY/GUrl29Y39SoeEzP6S3Xufe9v8WfiWKH3Zsa8Na+9k3keH/Sds8gtCVkHLiKjF3epe3AT44ARH8/dqO/OwYiE4G5FswvuW2Vjy1/Z/jMOPwv93tvjny+qanUaYMmIDf4257Yng/DwFnLl3cZz9Xkod1SxRfFfkqOOKj1fb1Q2Glpiz2vPM/7cDG6PMJ0/z9Glvp98Q97XHJ2Qr9rvlqvops+0HBNd79oGMXIxWeVrnERYTXofC5F+G12r7RN2Wm43ARn98UZNL1GieLYMIxlwk8LRgcfoUpe3lqwVfFvKDI7oWB+FbAB4J+mu7Y3OGWuGqdbqY7CS+sM32ctp+dqN3pRh6sm7Zt8tkzH5YaCfAcEnefVFzot5Ogb1eUGpXye+CeEKZkuVbB9RQcH14AylP4liqeSyDy4Nt0zFrguW/IXqJvPPl1ZMpACXw+0Gn/POHkGE1u9Kx9ftWp7eRA7mw9/WbJzmylrZ4W+CMt78X6ISa/s3/flZUW/NsjCl4hru1VoidbOWpptbguXyn1a4F+vemHLeP+u8tJ+toFua2s6raSvCBLG7Fi8eChcD+0F7mnvtKm6b8tzA5aHplqM8eC13nwWwmRh/6m7Vn52W9+/F1g+mf3Ae4Lbr6y4qR/Ryc9+1zSdmP2OgS8OlrkasOd9dCKOzcnCU9rPOtP5B3wNvw8I9kN57DP3+17FrPNlzpRL8AzK0M/ZFZiGHgenr6andU+f6/vp8A9O6en8J3VRl/tO/n1WSz6bjSHjV7boSthslq7fW7Oys/f87lfeuRpNbv63vbuloLXIyLOESXW5Oi7zRxvHQJeH356yGvez35NjQIBCEAAAnUT8LLL8/bv099/XN3Nw7o2BCJro3uBkb6vfNu0kX0gAAEIjJ2AR+Qiy5779iFlQAT8/ndk7fFjB8SCpkAAAhAYOoF/C4wCOFdcc+iAxtS+hweCwUND3p8CAQhAAAI5CDwi2Od7zQrKQAj4Cn76Hs88n/3kb5dPQQ8EMc2AAAQgUA0BP/TqVxvn6eunv+tXkSkDIBC9H/SfA2BAEyAAAQiMjcAJAQHgZwh47msAEeMJUaaV3byfDx0AA5oAAQhAYGwE/jrY93c5j8jYfLGw9nr2rXmT/uT7fifU75VTIAABCEAgF4Ho3C+eIImSmEB0VqjoGveJ0WE6BCAAgfQETglcAHq2zr4nFUsPvKYGePGSydV8m99Pr6kx2AIBCEAAAnMR8PLVbfr+yT5dTeE8VyP4cjsCbwg6/2btDsteEIAABCBQAYFdgzngHytoAya0IBBdG/rrLY6ZZZetl2bKevLS8q6fWVpI5SdznCBe2MQLxHiuba+61WXxifsKSV+T9Is5bPSiMl7X24vgdC3gfHXgZ0zOWFpJzWwmVw3r/fZywl50xKuvdTnnvm+BPWp5UaUfzbEKpF+fOlOSV1L0+9Cep7+rcp2l+de9TLVvt/1sDoaendMr4b1d0v/ryrjlevdcehXYyxe7T/j1HDZ6CNkLZ72kg5UKp5vslRqPlvS9OePQ5777APcF7hOGWr4xh89Wnrs+b4a4XsJQfX1Fu+4YcLqDoOT67FcYVcGHe83Z0a48Iab/Pl6S37ctWSzcXhCcuXFioxOZO9/SCcxJ28lxcpzIb6/p3sU6E3tJOr2QjRZhXYiph80p7tbi7BUFvZR0yWIB9dql5Zq9ZPNax57lf79dFnwlk4nnJ/GKmbMcf73vWHy5bxhieXGQ0R2GCGXobXpZ0OlepnRo5YGFOrPpzuSbha9i3xb027Rtk8++Si/V8W61PCoxqbvEb79t4pnLShXH7q8Kc/TVrJeRLlWir2itxt2jCKVWCLQQ/dfCDG3zKwsB9FS1PvdW49B2m4WO+4ihldsFOfkigpKMwP8EnO7hz1IJoxZsu8w5PDhPJ1Jq1iwPV89z3Hm+e0ghR/xzRzb6CrFEgvXkJT/oyEYnnBJPRd9+jtsR8/jY331TIT/79sy8x571+yVGfCKzm65lp2+t3LQQw1qqcV8eOSc8kkZJROCWwZPXw35DK75HuNaJH/3fPkFgTixndWij77tHrw73Xl4vPMqqaf9/CTL07l0mLtv92AI2erW1JgbR7Z6622I3Unw/fJ7nTua1+VvBC4x9O+TnthwVgVfpvq8LMtu90nZh1ioEnhV09t1WqTPzpuh0yLN0cK8JAvJDhbMcJ/Kd6D3Owzu20aMAvsUQKV/p2MZPRYyTtF0Ht6FWxsQzgzY+pGOGtjdyX9kPJK5sc8m/PQ2u+4whlT8IMovG1JBYVt+WLwWcfY6kjatv4XwGRu+BzdK5fHY+k67y7WcEfDaLff7O865y1Pk2fLIHG/ebz6QrfXuTjkcozNBDxJGyfw8Mo8t3v7oHGyNTjH++B/uG9gyUHwSe5y2TlX3KFyNBz779Edgx2An6taKhFb8mtDKgS//tYc1I8St/pW1aWZ/nhYiUr/ZgY2T+8e17sM9MI4uk+LXClX4p/bdfbYuUd/Vg43MDBvpcK81sZX3uM4ZW3hHkdpOhARlie54YdHJ0mLhGpowA/L7DHPoIgJ+j8BsFKzvzkn8zAlCGLyMA/feU9w6eG3/Tv8kccV4Cnw442a9ORR8Um9fePr7fxzMA0Qcn+xilcAcQKS8PxNYsSfhiSdtEDJTU9SiFz69I6eMZAD8DFCl9jFJEHpr17HSzxFPb71jkRUZ5Iuy73HdTSZ4orC0X3wKkVEzgusHXi95XcduipnmilLaBP8t+dwoa6PvX88xKOItN09/xsx3RB5u6HkmJ3ru2C6Jzn08zW+3z44N+9u6f6DAW/RZAdNIiT/QUSRSrcZve9h1JnmegbfHMh9P1lf78nraGJdjPb9q05eXY8syVlEoJPDrgXAfFgyptVwmz3Cn6KfO2wb/Wfh8sYaCkx3Rkn233xDMlSqQDWYuhr/73KGCgZ8Pz9KVrHavt/3zv2UItWvwaW4nZ9VZrx1ujxi3v76e+V6u/xLYDC9j4oY7scx+xWwH7aq3iwUFuj6y1YdglRU4Kd8Bdzsteg38e3sE9Ys/H7ilJSxRP2OFZ+0p0stN1HBN873q6bY6R0jOw+b79X00fJPjZw8sexp1mEP3s9+I9J36p8neF7XP7/PZPqaFrPzUe6U+aeJdaXMZXoh5JaDpOm+2OQ0/PPOTiOR4uCnDzFOCUCglsGZzp7j8qbFMXJnkWsvMCJ8B0x3LC8nvdJe10x/vS4K2ciY2+yvTUq6Vf67Tg+Wghhj/vaPpV367wIkUTFpHfFjwlRidWxolH7OZZXGetNvj2SekFbfxQpWcWLPFgpS8wvOhRyRlG/TxFqdsp7hNKzFC40sc1/u01TNaKpbX+V2KujhqZpLfpoIBT7fCSV2C1w/Q84h7i9Nzp88wZ74Tq2fr8rET0gbr1GHlaXE944mk457l1YXXvoeo3dpS0pu32O+0eXfCQ+zxD2k56pyzF63MKjp5M2zX57OH6xy0nCS86tFbHtvJ/fmfaM/Z5emYvitNV8auLL5T05aVV6TwBzUo7mv72/dgfLq9M+YddGbdcr9+J/6dlQTXP1aNXiPRKdJ5XoMvpde8jybemfG7OE4c+990HuC9wnzCWEr3V+BdjAZWpnZGH3HzSuCOiQAACEIDAsAlE30TxeiCUigj4Sicyd/eJFbUFUyAAAQhAoFsCniyqaXRpve1+Q8SvFFIqIRCdXvRJlbQDMyAAAQhAoHsC0YdQ79G9iRxhVgJ+9Wc91eTl9HYAAANBSURBVLbW/3ee9UB8DwIQgAAE0hPwtL5r5YT1/udnQigVEPBT417qdT2HNf3fq6dRIAABCEBgXAQis2Y65zj3UBZM4C6B5G9REFmUY8FN5/AQgAAEINCSgPv+pgvDWbZ7RkbKgglEl+4sObnJglFweAhAAAIQmJHArYICwHOMUBZMIDLZyXcXbDuHhwAEIACBxRGIzKbo/FFyYqfFUUh65L2DCs6ru1EgAAEIQGCcBF4RzCF7jRNbHa1+QdB50RXs6qCAFRCAAAQg0IbAfsEc8rw2B2WfMgS+FnCel56NLMlZpgXUAgEIQAACiyLgHBBZhtxvElAWQGCHQPL3E55vXoDNHBICEIAABOoi4Hf6Z3nqv+k7zkWUnglE13VmJqeeHcbhIAABCFRIwLmgKbnPst0L0VF6JuAVxGZxzmrf8RKsXuqTAgEIQAAC4ybg1S7PD+QT5pJZQPy8K+CwoxdgL4eEAAQgAIE6CTgnrHaxOMu2d9TZpGFb5XXYZ3HOat85bNhoaB0EIAABCMxBwDlhtVwxyzYuKOcAXeqrEcU2i1P5TvsTAnawIwaIgbHEgEejKT0TiE7gMJbgpJ10xMQAMUAMdBcDL+k593E4SQcHhmw4Gbo7GWALW2KAGBhTDPwlGbl/ArsjAFrfsxrTyUlbSUbEADHQZQzs1n/644gm8D+IAEQAMUAMEAPEwIJi4Buk4sUReOaCnN6lmqRurlaIAWKAGMgRA09fXPrjyNsEJ3DgJMtxkuEn/EQMEAO1xYAnlNuWNLxYAk9mFIDhP2KAGCAGiIGeY+BJi019HN0ENpb0+Z4dX5sSxR6ujogBYoAY6C8GTpK0ESm4DgJejelMRABXAMQAMUAMEAMdx8CPJd2wjtSHFRMCe0k6u2PHo7D7U9iwhjUxQAzUFgM/lbTnJOnwuy4CN5f0TUQAVwDEADFADBADhWPg65J457+unH8Va7aU9GZJlxV2fm1KFHu4OiIGiAFioPsYuFTSGyRtcZVsw4ZqCdxa0nslXYIQ4EqAGCAGiAFiYM4YuFjSeyT59jIlKYHrSnqUpCMlfVnSuZKs6FDOMCAGiAFigBhwDDgnODc4RzhXPHLpqt+5Y9Dl/wN6+4n3qJT87gAAAABJRU5ErkJggg==;" vertex="1" parent="1">
          <mxGeometry x="-1174" y="713" width="82" height="82" as="geometry" />
        </mxCell>
        <mxCell id="5XS556nmQgQ2dr4hD8sf-7" value="" style="shape=image;verticalLabelPosition=bottom;labelBackgroundColor=default;verticalAlign=top;aspect=fixed;imageAspect=0;image=data:image/svg+xml,PHN2ZyB4bWxucz0iaHR0cDovL3d3dy53My5vcmcvMjAwMC9zdmciIHhtbDpzcGFjZT0icHJlc2VydmUiIHN0eWxlPSJlbmFibGUtYmFja2dyb3VuZDpuZXcgMCAwIDE1MDQgOTQwOyIgdmlld0JveD0iMCAwIDE1MDQgOTQwIiB5PSIwcHgiIHg9IjBweCIgaWQ9IkxheWVyXzEiIHZlcnNpb249IjEuMSI+PGRlZnMgaWQ9ImRlZnMyOSIvPiYjeGE7PHN0eWxlIGlkPSJzdHlsZTIiIHR5cGU9InRleHQvY3NzIj4mI3hhOwkuc3Qwe2ZpbGw6IzAzMDMwNDt9JiN4YTsJLnN0MXtmaWxsOiM0RjRGNEY7fSYjeGE7CS5zdDJ7ZmlsbDojNTE5OUZDO30mI3hhOwkuc3Qze2ZpbGw6IzAxNkJGQjt9JiN4YTs8L3N0eWxlPiYjeGE7PGcgaWQ9ImcyNCI+JiN4YTsJPHBhdGggc3R5bGU9InN0cm9rZS13aWR0aDowLjg0NzMyOCIgaWQ9InBhdGg0IiBkPSJtIDIwNi43MjAyNyw3NTUuMjQwMTIgYyAtOC4xMzQzNSwtNDMuMjEzNzIgLTE2LjI2ODY5LC04Ni41MTIxNyAtMjQuNDAzMDQsLTEyOS43MjU4OSAtMy4xMzUxMSwtMTYuNjkyMzYgLTYuMDE2MDMsLTMzLjQ2OTQ1IC05LjMyMDYxLC01MC4xNjE4IC0yLjcxMTQ0LC0xMy41NTcyNSA1LjE2ODcsLTIzLjU1NTcyIDE5LjE0OTYxLC0yMy4zMDE1MiA0Ny45NTg3NiwwLjg0NzMzIDk1LjkxNzUxLDEuODY0MTIgMTQzLjg3NjI2LDIuNzk2MTggMS40NDA0NiwwIDIuNzk2MTgsMCA1LjMzODE3LDAgMCwtMTAuMzM3NCAtMC4xNjk0NywtMjAuMjUxMTMgMC4wODQ3LC0zMC4xNjQ4NyAwLjE2OTQ3LC03Ljg4MDE0IDQuNTc1NTcsLTEzLjY0MTk3IDExLjg2MjU5LC0xNS42NzU1NiA3LjExNzU1LC0yLjAzMzU5IDEzLjM4Nzc4LDAgMTcuNDU0OTUsNS45MzEyOSAyLjIwMzA1LDMuMTM1MTIgMy4xMzUxMSw3LjYyNTk1IDMuMzA0NTgsMTEuNTIzNjYgMC41MDg0LDkuMjM1ODggMC4xNjk0NywxOC40NzE3NSAwLjE2OTQ3LDI5LjkxMDY3IDEzLjY0MTk3LDAgMjYuODYwMjksLTAuMTY5NDYgNDAuMTYzMzMsMCA3OS4zOTQ2MiwxLjM1NTczIDE1OC43ODkyMywyLjcxMTQ1IDIzOC4xODM4NSw0LjMyMTM4IDQuOTk5MjMsMC4wODQ3IDcuMTE3NTUsLTAuNjc3ODcgOC4wNDk2MSwtNi4yNzAyMyAzLjU1ODc4LC0yMS4wOTg0NiA3Ljg4MDE1LC00Mi4wMjc0NiAxMS44NjI1OSwtNjMuMDQxMTkgMi43OTYxOCwtMTQuNzQzNSA4LjA0OTYxLC0xOC44OTU0MSAyMi44Nzc4NSwtMTguMzg3MDEgOS45MTM3NCwwLjI1NDIgMTkuOTEyMiwwLjA4NDcgMzAuODQyNzMsMC4wODQ3IDAuODQ3MzMsLTkuNTc0OCAxLjg2NDEyLC0xOS40MDM4MSAyLjU0MTk5LC0yOS4yMzI4MSAxLjc3OTM4LC0yNC40ODc3NyAzLjEzNTExLC00OS4wNjAyOCA1LjE2ODcsLTczLjU0ODA1IDAuNDIzNjYsLTUuNDIyOSAyLjAzMzU4LC0xMS4wOTk5OSA0LjU3NTU3LC0xNS43NjAzIDIuOTY1NjQsLTUuNDIyOSA4LjcyNzQ3LC03LjExNzU1IDE1LjA4MjQzLC03LjAzMjgyIDI0LjgyNjcxLDAuMTY5NDcgNDkuNjUzNDEsMC4wODQ3IDc1LjU4MTY0LDAuMDg0NyAtMy4zMDQ1OCwtMTIuNzk0NjUgLTYuNDM5NjksLTI0LjkxMTQzIC05LjY1OTU0LC0zNi45NDM0OSAtMS45NDg4NSwtNy41NDEyMSAtMy45ODI0NCwtMTQuOTk3NyAtNi4wMTYwMiwtMjIuNTM4OTIgLTIuNTQxOTksLTkuNDkwMDcgMS42OTQ2NSwtMTcuMDMxMjkgMTEuMDE1MjYsLTE5LjQ4ODU0IDkuMTUxMTQsLTIuNDU3MjUgMTcuNzA5MTUsMS43NzkzOSAyMC4zMzU4NiwxMC43NjEwNyA1Ljg0NjU3LDIwLjU5MDA2IDExLjYwODQsNDEuMTgwMTMgMTYuNzc3MSw2MS45Mzk2NiAxLjI3MDk5LDUuMjUzNDMgMy4zODkzMSw2LjQzOTY5IDguMzg4NTQsNi4zNTQ5NiAzMC42NzMyNywtMC4xNjk0NyA2MS40MzEyNywwLjA4NDcgOTIuMTA0NTMsLTAuMTY5NDcgMTAuMDgzMiwtMC4wODQ3IDE3LjM3MDIyLDMuMTM1MTEgMjMuNDcwOTgsMTEuNjkzMTMgMzguNTUzNDUsNTQuMTQ0MjQgNzcuNjk5OTUsMTA3Ljg2NDgyIDExNi4zMzgxNSwxNjEuOTI0MzQgMi45NjU2LDQuMTUxOSA2LjEwMDgsNS4zMzgxNiAxMC43NjExLDUuNDIyOSA1Ni4yNjI1LDAuNjc3ODYgMTEyLjUyNTEsMS41MjUxOSAxNjguNzAyOSwyLjM3MjUxIDcuMjg3LDAuMDg0NyAxNC41NzQxLDAuNTA4NCAyMS44NjExLDEuMDE2OCA3LjU0MTIsMC41MDgzOSAxMy44MTE0LDYuNTI0NDIgMTQuMjM1MSwxMy45ODA5MSAwLjA4NSwxLjk0ODg1IC0wLjU5MzEsNC40MDYxIC0xLjg2NDEsNS44NDY1NiAtMjkuMjMyOCwzMi4yODMxOSAtNTguNTUwNCw2NC40ODE2NCAtODcuOTUyNyw5Ni42ODAxIC0zNC4xNDczLDM3LjM2NzE1IC02OC4zNzkzLDc0LjczNDMxIC0xMDIuNTI2NiwxMTIuMTAxNDcgLTguMjE5MSwtNi40Mzk2OSAtMTYuNTIyOSwtMTIuODc5MzkgLTI0LjY1NzMsLTE5LjQwMzgxIC0wLjMzODksLTAuMjU0MiAtMC4wODUsLTEuMzU1NzIgLTAuMDg1LC0yLjExODMyIDUzLjEyNzUsLTU4LjEyNjY5IDEwNi4xNzAyLC0xMTYuMTY4NjQgMTYwLjU2ODYsLTE3NS42NTEwNSAtNi45NDgxLDAgLTExLjc3NzgsMC4wODQ3IC0xNi42MDc2LDAgLTc3Ljk1NDIsLTEuMTAxNTMgLTE1NS45MDgzLC0yLjExODMyIC0yMzMuODYyNSwtMy41NTg3OCAtNi40Mzk3LC0wLjA4NDcgLTkuNzQ0MywxLjY5NDY2IC0xMS44NjI2LDcuNjI1OTUgLTIuNzk2MTgsNy45NjQ4OCAtNi40Mzk2OSwxNS42NzU1NyAtOS40OTAwNywyMy42NDA0NSAtMy4yMTk4NSw4LjQ3MzI3IC02LjAxNjAzLDEwLjU5MTU5IC0xNS4yNTE5LDEwLjQyMjEzIC0yNi43NzU1NiwtMC41MDg0IC01My41NTExMiwtMS4wMTY3OSAtODAuNDExNDEsLTEuNDQwNDYgLTEwNi40MjQzNywtMS45NDg4NSAtMjEyLjg0ODc0LC0zLjg5NzcxIC0zMTkuMjczMTEsLTUuODQ2NTYgLTEyMC4wNjYzNSwtMi4yODc3OSAtMjQwLjEzMjcsLTQuNTc1NTcgLTM2MC4xOTkwNSwtNi44NjMzNiAtMS42MDk5MiwwIC0zLjIxOTg1LDAuNDIzNjcgLTUuMDgzOTcsMC42Nzc4NyAwLDEuNzc5MzkgLTAuMjU0MiwzLjMwNDU4IDAsNC42NjAzIDQuMzIxMzcsMjMuNDcwOTggOC44MTIyMSw0Ni44NTcyMyAxMy4yMTgzMiw3MC4zMjgyMSA1LjY3NzA5LDMwLjU4ODUzIDExLjM1NDE5LDYxLjI2MTggMTcuMDMxMjgsOTEuODUwMzMgLTcuMjg3MDEsOS41NzQ4IC0yNC45OTYxNywxMi4zNzA5OSAtMzIuNDUyNjUsMi4zNzI1MiB6IE0gOTgzLjcxOTg2LDQxMy4zNDMzNSBjIC03LjM3MTc1LC0xMC4yNTI2NiAtMTMuNzI2NzEsLTE4LjgxMDY4IC0xOS41NzMyNywtMjcuNjIyODggLTIuOTY1NjUsLTQuNDA2MTEgLTYuNTI0NDMsLTUuNjc3MSAtMTEuNjA4MzksLTUuNjc3MSAtNTkuNDgyNDEsMC4xNjk0NiAtMTE4Ljg4MDA5LDAuMTY5NDYgLTE3OC4zNjI1LC0wLjA4NDcgLTYuMTAwNzYsMCAtOC4zODg1NSwxLjI3MDk5IC04LjgxMjIxLDcuODgwMTQgLTIuMDMzNTksMzMuMDQ1NzkgLTQuNjYwMzEsNjYuMDkxNTcgLTcuMDMyODIsOTkuMDUyNjIgLTEuMDE2OCwxNC4wNjU2NSAtNy42MjU5NSwyMC4xNjY0MSAtMjEuNjA2ODYsMTkuOTEyMjEgLTkuNDkwMDcsLTAuMTY5NDcgLTE4Ljk4MDE0LC0wLjU5MzEzIC0yOC40NzAyMiwtMC4zMzg5MyAtMS45NDg4NSwwLjA4NDcgLTUuMTY4NywyLjAzMzU4IC01LjUwNzYzLDMuNjQzNTEgLTMuNTU4NzcsMTYuNjA3NjIgLTYuNjkzODksMzMuMjk5OTggLTEwLjE2NzkzLDUxLjA5Mzg2IDMuMjE5ODUsMCA1Ljg0NjU2LC0wLjA4NDcgOC40NzMyOCwwIDM1LjA3OTM3LDAuNjc3ODYgNzAuMTU4NzQsMS41MjUxOSAxMDUuMjM4MTEsMi4yMDMwNSA1MC42NzAyLDAuOTMyMDcgMTAxLjM0MDQsMS42OTQ2NiAxNTIuMDEwNjEsMi42MjY3MiAzLjcyODI0LDAuMDg0NyA1LjMzODE2LC0xLjEwMTUzIDYuNzc4NjIsLTQuNzQ1MDMgMy4yMTk4NCwtOC4zODg1NSA3LjU0MTIyLC0xNi4zNTM0MyAxMS4wMTUyNiwtMjQuNjU3MjQgMy4yMTk4NSwtNy43MTA2OSA4LjcyNzQ4LC0xMS41MjM2NiAxNi44NjE4MiwtMTEuNjA4MzkgOS40OTAwNywtMC4xNjk0NyAxOC45ODAxNywtMC4wODQ3IDI4LjQ3MDI3LC0wLjA4NDcgMTMuOTgwOSwwIDI3Ljk2MTgsMCA0Mi43OSwwIC0yLjExODMsLTMuMTM1MTEgLTMuNjQzNSwtNS41MDc2MyAtNS4zMzgyLC03Ljg4MDE1IC0xNC45MTI5LC0yMC43NTk1MyAtMjkuOTk1NCwtNDEuNDM0MzMgLTQ0LjczODksLTYyLjM2MzMyIC00LjQ5MDgsLTYuNDM5NjkgLTguNDczMiwtOS41NzQ4MSAtMTcuNzA5MTIsLTkuMzIwNjEgLTQwLjQxNzU0LDEuMTg2MjYgLTgwLjkxOTgxLDAuNTA4NCAtMTIxLjMzNzM0LDAuNDIzNjcgLTEwLjkzMDUzLDAgLTE3LjUzOTY5LC02LjI3MDIzIC0xNy42MjQ0MiwtMTYuMTgzOTYgMCwtOS43NDQyNyA2Ljg2MzM1LC0xNi4yNjg3IDE3LjUzOTY4LC0xNi4zNTM0MyAxMS42OTMxMywtMC4wODQ3IDIzLjM4NjI1LDAgMzUuMDc5MzgsMCAyMy42NDA0NCwwLjA4NDcgNDcuNTM1MDgsMC4wODQ3IDczLjYzMjc4LDAuMDg0NyB6IiBjbGFzcz0ic3QwIi8+JiN4YTsJPHBhdGggc3R5bGU9InN0cm9rZS13aWR0aDowLjg0NzMyODtmaWxsOiMwMDAwMDAiIGlkPSJwYXRoNiIgZD0ibSAyMDYuNzIwMjcsNzU1LjI0MDEyIGMgNy40NTY0OCw5Ljk5ODQ3IDI1LjE2NTY0LDcuMjg3MDIgMzIuNjIyMTIsLTIuNzExNDUgNC4wNjcxNywtMy4zMDQ1OCA4LjMwMzgxLC02LjM1NDk2IDEyLjExNjc5LC05LjkxMzc0IDIwLjkyODk5LC0xOS42NTggNTMuMzgxNjUsLTI0LjQ4Nzc3IDc3LjY5OTk2LC05LjgyOSA5LjY1OTUzLDUuNzYxODMgMTcuNzkzODgsMTQuMjM1MTEgMjYuMjY3MTYsMjEuODYxMDYgMTAuNzYxMDYsOS42NTk1NCAyNC42NTcyNCwxMC4xNjc5MyAzNS41ODc3NywwLjY3Nzg2IDMuNjQzNTEsLTMuMjE5ODQgNy4yMDIyOCwtNi41MjQ0MiAxMC41OTE1OSwtOS45OTg0NyAyNS4xNjU2NCwtMjUuMTY1NjMgNjAuOTIyODcsLTI4LjEzMTI4IDg4Ljc5OTk2LC03LjAzMjgyIDYuMTg1NDksNC42NjAzIDExLjM1NDE5LDEwLjU5MTYgMTcuMDMxMjksMTYuMDE0NSAxMS4xODQ3MiwxMC41OTE1OSAyNi4wMTI5NiwxMC44NDU3OSAzNy4zNjcxNSwwLjMzODkzIDMuMjE5ODUsLTIuOTY1NjUgNi40Mzk2OSwtNi4wMTYwMyA5LjMyMDYxLC05LjIzNTg3IDI0LjY1NzI0LC0yNy4zNjg2OSA3MC43NTE4NywtMjcuMTk5MjMgOTMuODgzOTIsLTIuODgwOTIgNC4xNTE5LDQuNDA2MTEgOC4zMDM4MSw5LjE1MTE0IDEzLjMwMzA0LDEyLjM3MDk5IDUuMDgzOTcsMy4yMTk4NCAxMS4xLDUuNjc3MDkgMTcuMDMxMjksNi43Nzg2MiAxMS4zNTQxOSwyLjAzMzU5IDE4LjY0MTIxLC01Ljc2MTgzIDI1LjQxOTg0LC0xMy4xMzM1OCAyMS4yNjc5MiwtMjMuMjE2NzggNDYuNzcyNDksLTI5LjU3MTc0IDc2LjE3NDc3LC0xOS40MDM4MSAxMy4zMDMwNCw0LjU3NTU3IDIyLjc5MzExLDE0LjY1ODc3IDMyLjE5ODQ1LDI0LjU3MjUxIDEwLjU5MTYsMTEuMDk5OTkgMjguMzAwNzUsMTEuMDk5OTkgMzkuMTQ2NTUsLTAuMDg0NyA0LjQwNjEsLTQuNTc1NTcgOC44OTY5NCwtOC45ODE2OCAxMy42NDE5NywtMTMuMjE4MzIgMjQuMjMzNTgsLTIxLjM1MjY2IDYyLjI3ODYsLTIxLjI2NzkzIDg2LjI1Nzk3LDAuMzM4OTMgNS41OTIzNyw1LjA4Mzk3IDEwLjc2MTA3LDEwLjY3NjMzIDE2LjYwNzYzLDE1LjQyMTM3IDEwLjI1MjY2LDguMzAzODEgMjIuNDU0MTgsOC4yMTkwOCAzMi43MDY5LC0wLjA4NDcgNC4zMjEzLC0zLjQ3NDA1IDguMzg4NSwtNy40NTY0OSAxMi4yODYyLC0xMS40Mzg5MyAxNi45NDY2LC0xNy4yODU0OSAzNy42MjE0LC0yMy4xMzIwNSA2MC44MzgxLC0xOC4zODcwMSA5LjIzNTksMS44NjQxMiAxNy43MDkyLDcuMDMyODIgMjYuNjA2MSwxMC43NjEwNiAwLDAuNjc3ODYgLTAuMzM4OSwxLjc3OTM5IDAuMDg1LDIuMTE4MzIgOC4yMTkxLDYuNTI0NDIgMTYuNDM4MSwxMi45NjQxMiAyNC42NTcyLDE5LjQwMzgxIDguNTU4LDYuMTAwNzYgMjAuNjc0OCw0LjQ5MDgzIDI5LjgyNiwtMy4zODkzMSA5LjMyMDYsLTguMDQ5NjIgMTguMjE3NSwtMTcuMjAwNzYgMjguODA5MSwtMjMuMjE2NzkgMjIuOTYyNiwtMTMuMDQ4ODQgNTIuMjgwMSwtOC45ODE2NyA3Mi4xOTIzLDguMzAzODIgMy4zMDQ2LDIuODgwOTEgNi43Nzg2LDUuNjc3MDkgOS42NTk2LDguODk2OTQgNy4wMzI4LDguMDQ5NjEgMTUuMzM2NiwxMi43MDk5MSAyNi4yNjcxLDEzLjk4MDkxIDEyLjk2NDEsMS41MjUxOSAxNy45NjM0LDkuNDA1MzQgMTYuNTIyOSwyMi43MDgzOCAtMS4wMTY4LDkuMjM1ODcgLTkuNDkwMSwxNS4zMzY2MyAtMjAuODQ0MiwxNS4yNTE5IC0xOS44Mjc1LC0wLjE2OTQ2IC0zNS4yNDg5LC05LjQ5MDA3IC00OC43MjE0LC0yMy4xMzIwNSAtMy4yMTk4LC0zLjMwNDU4IC02LjYwOTIsLTYuNDM5NjkgLTEwLjE2NzksLTkuNDA1MzQgLTguNjQyOCwtNy4yMDIyOCAtMjAuNTkwMSwtNy43MTA2OCAtMjkuNjU2NSwtMC44NDczMiAtNS4xNjg3LDMuOTgyNDQgLTkuNzQ0Myw4LjcyNzQ3IC0xNC40ODkzLDEzLjMwMzA0IC0yNy43MDc2LDI2Ljc3NTU2IC02Ni4xNzYzLDI3LjExNDQ5IC05NC4zMDc2LDAuNzYyNiAtMy44OTc3LC0zLjY0MzUxIC03LjU0MTIsLTcuNjI1OTUgLTExLjUyMzcsLTExLjI2OTQ2IC0xMS4wMTUyLC0xMC4yNTI2NyAtMjQuMjMzNSwtMTAuMzM3NCAtMzUuNDE4MywtMC4zMzg5MyAtNy40NTY0LDYuNjA5MTUgLTE0LjQwNDUsMTMuODk2MTcgLTIyLjQ1NDEsMTkuNzQyNzMgLTIzLjEzMjEsMTYuNzc3MSAtNTYuODU1NzQsMTQuNzQzNTEgLTc4LjQ2MjYsLTQuMTUxOSAtNC45MTQ1LC00LjMyMTM3IC05LjQwNTM0LC05LjE1MTE0IC0xNC4yMzUxMSwtMTMuNjQxOTggLTEzLjgxMTQ0LC0xMi42MjUxOCAtMjcuMDI5NzYsLTEyLjI4NjI1IC00MC41ODcsMC42Nzc4NiAtNi41MjQ0Miw2LjE4NTUgLTEyLjk2NDEyLDEyLjU0MDQ1IC0yMC4yNTExMywxNy43OTM4OSAtMjEuNjA2ODYsMTUuNDIxMzYgLTU0LjMxMzcyLDE0LjA2NTY0IC03NC45ODg1MSwtMi43OTYxOCAtNi40Mzk3LC01LjI1MzQ0IC0xMi4yMDE1MiwtMTEuMTg0NzMgLTE4LjMwMjI4LC0xNi43NzcwOSAtMTIuMDMyMDYsLTExLjAxNTI3IC0yNC4yMzM1OCwtMTAuOTMwNTMgLTM2LjUxOTgzLC0wLjQyMzY3IC05LjQwNTM0LDguMDQ5NjIgLTE4LjM4NzAyLDE2Ljk0NjU2IC0yOC44MDkxNSwyMy4zMDE1MiAtMTkuNTczMjcsMTEuODYyNTggLTU0Ljk5MTU3LDguOTgxNjcgLTczLjI5Mzg1LC05LjY1OTU0IC00LjQwNjExLC00LjQ5MDg0IC04Ljk4MTY4LC04Ljk4MTY4IC0xMy43MjY3MSwtMTMuMjE4MzEgLTEyLjYyNTE5LC0xMS4xODQ3MyAtMjUuMjUwMzcsLTExLjAxNTI3IC0zNy43OTA4MiwwLjI1NDE5IC01LjA4Mzk3LDQuNTc1NTcgLTkuNTc0ODEsOS44MjkwMSAtMTQuODI4MjQsMTQuMDY1NjQgLTI4LjEzMTI4LDIyLjc5MzEyIC02My42MzQzMiwyMC44NDQyNyAtOTAuNDA5ODcsLTQuNzQ1MDMgLTMuMzA0NTgsLTMuMjE5ODUgLTYuNjA5MTYsLTYuNTI0NDIgLTkuOTEzNzQsLTkuNjU5NTQgLTExLjM1NDE5LC0xMC42NzYzMyAtMjQuODI2NywtMTAuNzYxMDYgLTM2LjUxOTgzLC0wLjMzODkzIC03LjI4NzAyLDYuNDM5NjkgLTE0LjA2NTY0LDEzLjU1NzI1IC0yMS45NDU3OSwxOS4xNDk2MSAtMjQuNDg3NzcsMTcuMzcwMjIgLTU4LjYzNTA4LDE0LjU3NDA0IC04MC42NjU2LC02LjAxNjAzIC00LjgyOTc3LC00LjQ5MDg0IC05LjQwNTM0LC05LjE1MTE0IC0xNC40MDQ1OCwtMTMuMzg3NzggLTEyLjIwMTUyLC0xMC4zMzc0IC0yNC43NDE5NywtOS45OTg0NyAtMzYuNTE5ODMsMC44NDczMyAtNS4zMzgxNiw0LjkxNDUgLTEwLjI1MjY2LDEwLjUwNjg3IC0xNS45Mjk3NiwxNC45OTc3IC0yNi40MzY2MywyMS4wOTg0NiAtNjEuMDkyMzMsMTkuODI3NDcgLTg2LjY4MTYzLC0yLjg4MDkxIC0zLjMwNDU4LC0yLjg4MDkyIC02LjQzOTY5LC01LjkzMTMgLTkuNDkwMDcsLTkuMTUxMTQgLTYuMTg1NSwtNi42OTM4OSAtMTMuMTMzNTgsLTEwLjkzMDUzIC0yMi43MDgzOSwtMTEuNjA4MzkgLTEyLjI4NjI1LC0wLjg0NzMzIC0xOS43NDI3NCwtMTAuMjUyNjcgLTE4LjM4NzAxLC0yMC45MjkgMS40NDA0NiwtMTEuNDM4OTIgMTEuOTQ3MzIsLTE5LjQ4ODU0IDIzLjk3OTM4LC0xOC42NDEyMSAxNi43NzcwOSwxLjE4NjI2IDMwLjY3MzI2LDguMTM0MzUgNDEuOTQyNzIsMjAuNTA1MzMgMy42NDM1MSwzLjk4MjQ0IDcuNTQxMjIsNy42MjU5NSAxMS41MjM2NiwxMS4xODQ3MyAwLjg0NzMzLDAuODQ3MzMgMi42MjY3MiwwLjQyMzY2IDMuOTgyNDQsMC41OTMxMyB6IiBjbGFzcz0ic3QxIi8+JiN4YTsJJiN4YTsJJiN4YTsJPHBhdGggc3R5bGU9InN0cm9rZS13aWR0aDowLjg0NzMyOCIgaWQ9InBhdGgxMiIgZD0ibSAzOTIuOTYyOTIsNjQ0LjI0MDE4IGMgMCw5LjA2NjQgLTcuMDMyODIsMTYuMTgzOTYgLTE2LjA5OTIzLDE2LjM1MzQyIC05LjMyMDYsMC4xNjk0NyAtMTYuODYxODIsLTcuMjAyMjggLTE2Ljc3NzA5LC0xNi40MzgxNiAwLjA4NDcsLTguOTgxNjcgNy4xMTc1NiwtMTYuMTgzOTYgMTYuMDk5MjMsLTE2LjQzODE2IDkuNDA1MzQsLTAuMTY5NDYgMTYuNzc3MDksNy4xMTc1NiAxNi43NzcwOSwxNi41MjI5IHoiIGNsYXNzPSJzdDAiLz4mI3hhOwk8cGF0aCBzdHlsZT0ic3Ryb2tlLXdpZHRoOjAuODQ3MzI4IiBpZD0icGF0aDE0IiBkPSJtIDQ5MS4xNjgyMSw2NjAuNTkzNiBjIC04Ljk4MTY3LDAuMTY5NDcgLTE2LjM1MzQyLC02Ljg2MzM1IC0xNi42OTIzNiwtMTUuNzYwMjkgLTAuMzM4OTMsLTkuMzIwNjEgNi44NjMzNiwtMTYuOTQ2NTYgMTYuMTgzOTcsLTE3LjAzMTI5IDkuMTUxMTQsLTAuMTY5NDcgMTYuNzc3MDksNy4zNzE3NSAxNi42OTIzNSwxNi42MDc2MiAwLDguODEyMjEgLTcuMjAyMjgsMTYuMDE0NSAtMTYuMTgzOTYsMTYuMTgzOTYgeiIgY2xhc3M9InN0MCIvPiYjeGE7CTxwYXRoIHN0eWxlPSJzdHJva2Utd2lkdGg6MC44NDczMjgiIGlkPSJwYXRoMTYiIGQ9Im0gMjYwLjk0OTI1LDY2MC41OTM2IGMgLTkuMzIwNjEsMC4wODQ3IC0xNi43NzcwOSwtNy4yODcwMiAtMTYuNjkyMzYsLTE2LjUyMjg5IDAuMDg0NywtOC45ODE2NyA3LjI4NzAyLC0xNi4xODM5NiAxNi4xODM5NiwtMTYuMzUzNDMgOS4xNTExNCwtMC4xNjk0NiAxNi42OTIzNiw3LjM3MTc2IDE2LjY5MjM2LDE2LjYwNzYzIDAsOC44OTY5NCAtNy4yMDIyOSwxNi4wOTkyMyAtMTYuMTgzOTYsMTYuMjY4NjkgeiIgY2xhc3M9InN0MCIvPiYjeGE7CTxwYXRoIHN0eWxlPSJzdHJva2Utd2lkdGg6MC44NDczMjgiIGlkPSJwYXRoMTgiIGQ9Im0gNjA1LjA0OTA3LDY2MC41OTM2IGMgLTguOTgxNjgsLTAuMDg0NyAtMTYuMTgzOTYsLTcuMjAyMjggLTE2LjI2ODcsLTE2LjE4Mzk2IC0wLjA4NDcsLTkuMjM1ODcgNy4zNzE3NiwtMTYuNzc3MDkgMTYuNjA3NjMsLTE2LjY5MjM2IDkuMjM1ODcsMC4wODQ3IDE2LjYwNzYyLDcuNzk1NDIgMTYuMjY4NjksMTYuOTQ2NTYgLTAuMjU0Miw5LjA2NjQxIC03LjU0MTIxLDE1LjkyOTc2IC0xNi42MDc2MiwxNS45Mjk3NiB6IiBjbGFzcz0ic3QwIi8+JiN4YTsJPHBhdGggc3R5bGU9InN0cm9rZS13aWR0aDowLjg0NzMyOCIgaWQ9InBhdGgyMCIgZD0ibSA4MzMuNTczMzgsNjYwLjU5MzYgYyAtOS4wNjY0MSwtMC4wODQ3IC0xNi4xODM5NywtNy4yODcwMiAtMTYuMjY4NywtMTYuMjY4NjkgLTAuMDg0NywtOS4yMzU4NyA3LjQ1NjQ5LC0xNi42OTIzNiAxNi42OTIzNiwtMTYuNjA3NjMgOS4xNTExNCwwLjA4NDcgMTYuNTIyODksNy44ODAxNSAxNi4xODM5NiwxNy4wMzEyOSAtMC4yNTQyLDguOTgxNjggLTcuNjI1OTUsMTUuOTI5NzcgLTE2LjYwNzYyLDE1Ljg0NTAzIHoiIGNsYXNzPSJzdDAiLz4mI3hhOwk8cGF0aCBzdHlsZT0ic3Ryb2tlLXdpZHRoOjAuODQ3MzI4IiBpZD0icGF0aDIyIiBkPSJtIDcxOS4xODQxMiw2NjAuNTkzNiBjIC04Ljk4MTY3LC0wLjE2OTQ2IC0xNi4wOTkyMywtNy40NTY0OCAtMTYuMDk5MjMsLTE2LjM1MzQyIDAsLTkuMjM1ODggNy42MjU5NSwtMTYuNjkyMzYgMTYuNzc3MDksLTE2LjQzODE2IDguODk2OTUsMC4xNjk0NiAxNi4wMTQ1LDcuNTQxMjEgMTYuMDk5MjMsMTYuNDM4MTYgMCw5LjE1MTE0IC03LjQ1NjQ4LDE2LjUyMjg5IC0xNi43NzcwOSwxNi4zNTM0MiB6IiBjbGFzcz0ic3QwIi8+JiN4YTs8cGF0aCBpZD0icGF0aDIyMSIgZD0ibSA3NDMuNzY5MzcsMjU1Ljg3OTYgYyAtNC43ODI5OSwtMi4zNjc1OSAtNy4xODMwNSwtNi4zNjc3NiAtNy4xNDAwOSwtMTEuOTAxMTUgMC4wNDI0LC01LjQzNjkzIDEuNzY4MTIsLTguMTMyMjcgMTEuMzMxMDYsLTE3LjY5NDM0IDE2LjE4MDY2LC0xNi4xNzkyOSAzNS43ODE4OSwtMjYuNzM5NjIgNTkuMTcwNjgsLTMxLjg3ODczIDExLjEzNjQzLC0yLjQ0Njk3IDM1LjUxOTU2LC0yLjI0MjAxIDQ3LjMwOTUzLDAuMzk3NjggMjIuMDc3MzgsNC45NDI5OSA0MS4wOTg3OSwxNS4yNDIwNSA1Ni45NDc0NiwzMC44MzM5MiA5LjkxNTg1LDkuNzU1MjcgMTEuNzgyMzUsMTIuNjUwMDYgMTEuNzgyMzUsMTguMjc0MjcgMCw1Ljg5OTUxIC0yLjIwMDQzLDkuNjI1OSAtNy4wNzgwNywxMS45ODcxOSAtNy40ODIzMywzLjYyMjA4IC0xMC4yNDUzOCwyLjQ1MDM1IC0yMi41NjQ2OCwtOS41Njg5IC0xMy42OTUxOSwtMTMuMzYxNjcgLTI0LjY2NDk1LC0xOS44MDUyMyAtNDEuNTkwODMsLTI0LjQzMDI0IC02LjE5MDI0LC0xLjY5MTQ4IC05LjEyNDM2LC0xLjk1MjE3IC0yMS45NzI0OCwtMS45NTIxNyAtMTIuNjUxMzcsMCAtMTUuODIzMzQsMC4yNzMzNiAtMjEuNjA2ODYsMS44NjIwNyAtMTcuMzE1NzMsNC43NTY1NiAtMjguMjQ3NzksMTEuMTQ1NTggLTQxLjk1NjU0LDI0LjUyMDM0IC0xMi4zMjM5NSwxMi4wMjM4NiAtMTUuMTkwMzgsMTMuMjMzMzkgLTIyLjYzMTUzLDkuNTUwMDYgeiBtIC02Mi42MjAwNiwtNjIuMTk0MzMgYyAtNi4xMTg5LC0zLjY2NzkgLTguMTY4MTYsLTEyLjA5MTE1IC00LjQzMzIyLC0xOC4yMjI4NSAyLjQxOTM3LC0zLjk3MTk0IDE2LjM4MTM5LC0xNy42ODgyNyAyNS4zMDE3MSwtMjQuODU2NDMgMjMuMDgxNzIsLTE4LjU0NzkzIDUxLjAwMTA5LC0zMi4zNjU1OCA3OS42ODMzLC0zOS40MzYxOCAxNy43NDEyNywtNC4zNzM1MSAyNy45NjU5NywtNS41NDkxMSA0OC4yNjMyLC01LjU0OTExIDMyLjUxNzQ4LDAgNTguNzY4NTQsNS44NTkzNyA4Ny4wNjE3NSwxOS40MzI2NyAyMS4zNTQxNSwxMC4yNDQ0MiAzOS4wNTkyMywyMi41NTc4MyA1NS4xNDY3NywzOC4zNTMwMiAxMC44Njk1MiwxMC42NzIwMyAxMi44NDQ4MSwxMy41Njk1MiAxMi44NDkyMSwxOC44NDc4NyAwLjAwOCw5LjkyMTQgLTEwLjEzMDM5LDE2LjQ4NzcyIC0xOC45MzM3LDEyLjI2MjUzIC0xLjQ2ODUxLC0wLjcwNDgyIC02LjI5MjM1LC00Ljk0ODY5IC0xMC43MTk2MywtOS40MzA4MiAtMTQuOTIyODksLTE1LjEwNzY4IC0yOS4zOTU0NywtMjUuNTc3NDYgLTQ3LjgyMjksLTM0LjU5NTcyIC0xNi42Mjk2NSwtOC4xMzg1MSAtMzEuNTkzMjksLTEyLjkxMjcgLTUwLjkyNzExLC0xNi4yNDg1MiAtMTIuMTExNzksLTIuMDg5NzUgLTQwLjcwMTMsLTIuMDkwMjMgLTUzLjI0MTU5LC04LjVlLTQgLTM4LjI5MTg0LDYuMzc5ODIgLTcxLjE2OTYsMjMuMjEzMDcgLTk4LjUwODA0LDUwLjQzNTY1IC01LjE4OTI5LDUuMTY3MjYgLTEwLjQ1Njk2LDkuNzgzNTQgLTExLjcwNiwxMC4yNTg0MSAtMy44MDk1OSwxLjQ0ODQ0IC04LjI5MDI2LDAuOTgyMzkgLTEyLjAxMzc1LC0xLjI0OTYyIHogTSAxMDMyLjAzLDEzNC4yOTI2MyBjIC0wLjQ1NCwtMC4xMTA1NyAtMS44MTMzLC0wLjQxNzA1IC0zLjAyMDUsLTAuNjgxMDYgLTEuMjcxNiwtMC4yNzgwNyAtNi40NDUxLC00LjY3NjA0IC0xMi4yOTczLC0xMC40NTM4OCAtNDQuNDQ4MywtNDMuODgzNTI1IC05OC4zMTI0NywtNjkuNTg3NDI3IC0xNjAuNDgwNzQsLTc2LjU4MDk2NCAtMTEuNDUzNjcsLTEuMjg4NDYzIC00MS4wODA2NSwtMS4yODg0NjMgLTUyLjUzNDMyLDAgLTYxLjUyNjkzLDYuOTIxMzk2IC0xMTYuNzc1MTYsMzMuMTA0Mzc3IC0xNTkuMjUzMDYsNzUuNDcyNDM0IC0xMS40NjA3OCwxMS40MzEwNSAtMTIuMTMzMTQsMTEuODgxNzUgLTE3LjczODQ3LDExLjg4ODYyIC01Ljg5NTI0LDAuMDA4IC05LjU0ODY2LC0yLjIxMDExIC0xMi4wMDYyNSwtNy4yODY4NSAtMy43NjYxMiwtNy43Nzk2OSAtMS40OTMzMywtMTIuMzc0MjMgMTIuOTgyNzEsLTI2LjI0NTczIDQ2LjA2NiwtNDQuMTQyMjQ4IDEwMS4wNzA3OSwtNzAuODcyMzY3IDE2My44NTQ4MSwtNzkuNjI2OTIzIDIwLjY4Mjg1LC0yLjg4Mzk5MSA1Ni4xNzE5OSwtMi44ODM5OTEgNzYuODU0ODQsMCA2Mi43MDM3OCw4Ljc0MzM2MyAxMTcuODQ3NTksMzUuNTQxMDk5IDE2My44NTQ2OCw3OS42MjY5MjMgMTAuNjkxNCwxMC4yNDQ5NiAxMy43NTI3LDE0LjI5MDg2IDE0LjM4NjEsMTkuMDEzNDYgMC41NTk0LDQuMTcwNzUgLTIuMTMxNSwxMC4yNzg1NiAtNS41MDEyLDEyLjQ4NjQ1IC0yLjE5NDEsMS40Mzc2NyAtNy4zOTcxLDIuODAyNTYgLTkuMTAxMywyLjM4NzUyIHoiIHN0eWxlPSJmaWxsOiMwMDAwMDA7c3Ryb2tlLXdpZHRoOjAuODQ3MzI4Ii8+PC9nPiYjeGE7PC9zdmc+;" vertex="1" parent="1">
          <mxGeometry x="-1030" y="700" width="193.6" height="121" as="geometry" />
        </mxCell>
        <mxCell id="5XS556nmQgQ2dr4hD8sf-10" value="" style="endArrow=classic;startArrow=classic;html=1;rounded=0;" edge="1" parent="1">
          <mxGeometry width="50" height="50" relative="1" as="geometry">
            <mxPoint x="-1110" y="680" as="sourcePoint" />
            <mxPoint x="-1060" y="590" as="targetPoint" />
          </mxGeometry>
        </mxCell>
        <mxCell id="5XS556nmQgQ2dr4hD8sf-11" value="1" style="text;html=1;align=center;verticalAlign=middle;whiteSpace=wrap;rounded=0;fontSize=24;" vertex="1" parent="1">
          <mxGeometry x="-910" y="720" width="60" height="30" as="geometry" />
        </mxCell>
        <mxCell id="5XS556nmQgQ2dr4hD8sf-12" value="" style="shape=image;verticalLabelPosition=bottom;labelBackgroundColor=default;verticalAlign=top;aspect=fixed;imageAspect=0;image=data:image/svg+xml,PHN2ZyB4bWxucz0iaHR0cDovL3d3dy53My5vcmcvMjAwMC9zdmciIHhtbDpzcGFjZT0icHJlc2VydmUiIHN0eWxlPSJlbmFibGUtYmFja2dyb3VuZDpuZXcgMCAwIDE1MDQgOTQwOyIgdmlld0JveD0iMCAwIDE1MDQgOTQwIiB5PSIwcHgiIHg9IjBweCIgaWQ9IkxheWVyXzEiIHZlcnNpb249IjEuMSI+PGRlZnMgaWQ9ImRlZnMyOSIvPiYjeGE7PHN0eWxlIGlkPSJzdHlsZTIiIHR5cGU9InRleHQvY3NzIj4mI3hhOwkuc3Qwe2ZpbGw6IzAzMDMwNDt9JiN4YTsJLnN0MXtmaWxsOiM0RjRGNEY7fSYjeGE7CS5zdDJ7ZmlsbDojNTE5OUZDO30mI3hhOwkuc3Qze2ZpbGw6IzAxNkJGQjt9JiN4YTs8L3N0eWxlPiYjeGE7PGcgaWQ9ImcyNCI+JiN4YTsJPHBhdGggc3R5bGU9InN0cm9rZS13aWR0aDowLjg0NzMyOCIgaWQ9InBhdGg0IiBkPSJtIDIwNi43MjAyNyw3NTUuMjQwMTIgYyAtOC4xMzQzNSwtNDMuMjEzNzIgLTE2LjI2ODY5LC04Ni41MTIxNyAtMjQuNDAzMDQsLTEyOS43MjU4OSAtMy4xMzUxMSwtMTYuNjkyMzYgLTYuMDE2MDMsLTMzLjQ2OTQ1IC05LjMyMDYxLC01MC4xNjE4IC0yLjcxMTQ0LC0xMy41NTcyNSA1LjE2ODcsLTIzLjU1NTcyIDE5LjE0OTYxLC0yMy4zMDE1MiA0Ny45NTg3NiwwLjg0NzMzIDk1LjkxNzUxLDEuODY0MTIgMTQzLjg3NjI2LDIuNzk2MTggMS40NDA0NiwwIDIuNzk2MTgsMCA1LjMzODE3LDAgMCwtMTAuMzM3NCAtMC4xNjk0NywtMjAuMjUxMTMgMC4wODQ3LC0zMC4xNjQ4NyAwLjE2OTQ3LC03Ljg4MDE0IDQuNTc1NTcsLTEzLjY0MTk3IDExLjg2MjU5LC0xNS42NzU1NiA3LjExNzU1LC0yLjAzMzU5IDEzLjM4Nzc4LDAgMTcuNDU0OTUsNS45MzEyOSAyLjIwMzA1LDMuMTM1MTIgMy4xMzUxMSw3LjYyNTk1IDMuMzA0NTgsMTEuNTIzNjYgMC41MDg0LDkuMjM1ODggMC4xNjk0NywxOC40NzE3NSAwLjE2OTQ3LDI5LjkxMDY3IDEzLjY0MTk3LDAgMjYuODYwMjksLTAuMTY5NDYgNDAuMTYzMzMsMCA3OS4zOTQ2MiwxLjM1NTczIDE1OC43ODkyMywyLjcxMTQ1IDIzOC4xODM4NSw0LjMyMTM4IDQuOTk5MjMsMC4wODQ3IDcuMTE3NTUsLTAuNjc3ODcgOC4wNDk2MSwtNi4yNzAyMyAzLjU1ODc4LC0yMS4wOTg0NiA3Ljg4MDE1LC00Mi4wMjc0NiAxMS44NjI1OSwtNjMuMDQxMTkgMi43OTYxOCwtMTQuNzQzNSA4LjA0OTYxLC0xOC44OTU0MSAyMi44Nzc4NSwtMTguMzg3MDEgOS45MTM3NCwwLjI1NDIgMTkuOTEyMiwwLjA4NDcgMzAuODQyNzMsMC4wODQ3IDAuODQ3MzMsLTkuNTc0OCAxLjg2NDEyLC0xOS40MDM4MSAyLjU0MTk5LC0yOS4yMzI4MSAxLjc3OTM4LC0yNC40ODc3NyAzLjEzNTExLC00OS4wNjAyOCA1LjE2ODcsLTczLjU0ODA1IDAuNDIzNjYsLTUuNDIyOSAyLjAzMzU4LC0xMS4wOTk5OSA0LjU3NTU3LC0xNS43NjAzIDIuOTY1NjQsLTUuNDIyOSA4LjcyNzQ3LC03LjExNzU1IDE1LjA4MjQzLC03LjAzMjgyIDI0LjgyNjcxLDAuMTY5NDcgNDkuNjUzNDEsMC4wODQ3IDc1LjU4MTY0LDAuMDg0NyAtMy4zMDQ1OCwtMTIuNzk0NjUgLTYuNDM5NjksLTI0LjkxMTQzIC05LjY1OTU0LC0zNi45NDM0OSAtMS45NDg4NSwtNy41NDEyMSAtMy45ODI0NCwtMTQuOTk3NyAtNi4wMTYwMiwtMjIuNTM4OTIgLTIuNTQxOTksLTkuNDkwMDcgMS42OTQ2NSwtMTcuMDMxMjkgMTEuMDE1MjYsLTE5LjQ4ODU0IDkuMTUxMTQsLTIuNDU3MjUgMTcuNzA5MTUsMS43NzkzOSAyMC4zMzU4NiwxMC43NjEwNyA1Ljg0NjU3LDIwLjU5MDA2IDExLjYwODQsNDEuMTgwMTMgMTYuNzc3MSw2MS45Mzk2NiAxLjI3MDk5LDUuMjUzNDMgMy4zODkzMSw2LjQzOTY5IDguMzg4NTQsNi4zNTQ5NiAzMC42NzMyNywtMC4xNjk0NyA2MS40MzEyNywwLjA4NDcgOTIuMTA0NTMsLTAuMTY5NDcgMTAuMDgzMiwtMC4wODQ3IDE3LjM3MDIyLDMuMTM1MTEgMjMuNDcwOTgsMTEuNjkzMTMgMzguNTUzNDUsNTQuMTQ0MjQgNzcuNjk5OTUsMTA3Ljg2NDgyIDExNi4zMzgxNSwxNjEuOTI0MzQgMi45NjU2LDQuMTUxOSA2LjEwMDgsNS4zMzgxNiAxMC43NjExLDUuNDIyOSA1Ni4yNjI1LDAuNjc3ODYgMTEyLjUyNTEsMS41MjUxOSAxNjguNzAyOSwyLjM3MjUxIDcuMjg3LDAuMDg0NyAxNC41NzQxLDAuNTA4NCAyMS44NjExLDEuMDE2OCA3LjU0MTIsMC41MDgzOSAxMy44MTE0LDYuNTI0NDIgMTQuMjM1MSwxMy45ODA5MSAwLjA4NSwxLjk0ODg1IC0wLjU5MzEsNC40MDYxIC0xLjg2NDEsNS44NDY1NiAtMjkuMjMyOCwzMi4yODMxOSAtNTguNTUwNCw2NC40ODE2NCAtODcuOTUyNyw5Ni42ODAxIC0zNC4xNDczLDM3LjM2NzE1IC02OC4zNzkzLDc0LjczNDMxIC0xMDIuNTI2NiwxMTIuMTAxNDcgLTguMjE5MSwtNi40Mzk2OSAtMTYuNTIyOSwtMTIuODc5MzkgLTI0LjY1NzMsLTE5LjQwMzgxIC0wLjMzODksLTAuMjU0MiAtMC4wODUsLTEuMzU1NzIgLTAuMDg1LC0yLjExODMyIDUzLjEyNzUsLTU4LjEyNjY5IDEwNi4xNzAyLC0xMTYuMTY4NjQgMTYwLjU2ODYsLTE3NS42NTEwNSAtNi45NDgxLDAgLTExLjc3NzgsMC4wODQ3IC0xNi42MDc2LDAgLTc3Ljk1NDIsLTEuMTAxNTMgLTE1NS45MDgzLC0yLjExODMyIC0yMzMuODYyNSwtMy41NTg3OCAtNi40Mzk3LC0wLjA4NDcgLTkuNzQ0MywxLjY5NDY2IC0xMS44NjI2LDcuNjI1OTUgLTIuNzk2MTgsNy45NjQ4OCAtNi40Mzk2OSwxNS42NzU1NyAtOS40OTAwNywyMy42NDA0NSAtMy4yMTk4NSw4LjQ3MzI3IC02LjAxNjAzLDEwLjU5MTU5IC0xNS4yNTE5LDEwLjQyMjEzIC0yNi43NzU1NiwtMC41MDg0IC01My41NTExMiwtMS4wMTY3OSAtODAuNDExNDEsLTEuNDQwNDYgLTEwNi40MjQzNywtMS45NDg4NSAtMjEyLjg0ODc0LC0zLjg5NzcxIC0zMTkuMjczMTEsLTUuODQ2NTYgLTEyMC4wNjYzNSwtMi4yODc3OSAtMjQwLjEzMjcsLTQuNTc1NTcgLTM2MC4xOTkwNSwtNi44NjMzNiAtMS42MDk5MiwwIC0zLjIxOTg1LDAuNDIzNjcgLTUuMDgzOTcsMC42Nzc4NyAwLDEuNzc5MzkgLTAuMjU0MiwzLjMwNDU4IDAsNC42NjAzIDQuMzIxMzcsMjMuNDcwOTggOC44MTIyMSw0Ni44NTcyMyAxMy4yMTgzMiw3MC4zMjgyMSA1LjY3NzA5LDMwLjU4ODUzIDExLjM1NDE5LDYxLjI2MTggMTcuMDMxMjgsOTEuODUwMzMgLTcuMjg3MDEsOS41NzQ4IC0yNC45OTYxNywxMi4zNzA5OSAtMzIuNDUyNjUsMi4zNzI1MiB6IE0gOTgzLjcxOTg2LDQxMy4zNDMzNSBjIC03LjM3MTc1LC0xMC4yNTI2NiAtMTMuNzI2NzEsLTE4LjgxMDY4IC0xOS41NzMyNywtMjcuNjIyODggLTIuOTY1NjUsLTQuNDA2MTEgLTYuNTI0NDMsLTUuNjc3MSAtMTEuNjA4MzksLTUuNjc3MSAtNTkuNDgyNDEsMC4xNjk0NiAtMTE4Ljg4MDA5LDAuMTY5NDYgLTE3OC4zNjI1LC0wLjA4NDcgLTYuMTAwNzYsMCAtOC4zODg1NSwxLjI3MDk5IC04LjgxMjIxLDcuODgwMTQgLTIuMDMzNTksMzMuMDQ1NzkgLTQuNjYwMzEsNjYuMDkxNTcgLTcuMDMyODIsOTkuMDUyNjIgLTEuMDE2OCwxNC4wNjU2NSAtNy42MjU5NSwyMC4xNjY0MSAtMjEuNjA2ODYsMTkuOTEyMjEgLTkuNDkwMDcsLTAuMTY5NDcgLTE4Ljk4MDE0LC0wLjU5MzEzIC0yOC40NzAyMiwtMC4zMzg5MyAtMS45NDg4NSwwLjA4NDcgLTUuMTY4NywyLjAzMzU4IC01LjUwNzYzLDMuNjQzNTEgLTMuNTU4NzcsMTYuNjA3NjIgLTYuNjkzODksMzMuMjk5OTggLTEwLjE2NzkzLDUxLjA5Mzg2IDMuMjE5ODUsMCA1Ljg0NjU2LC0wLjA4NDcgOC40NzMyOCwwIDM1LjA3OTM3LDAuNjc3ODYgNzAuMTU4NzQsMS41MjUxOSAxMDUuMjM4MTEsMi4yMDMwNSA1MC42NzAyLDAuOTMyMDcgMTAxLjM0MDQsMS42OTQ2NiAxNTIuMDEwNjEsMi42MjY3MiAzLjcyODI0LDAuMDg0NyA1LjMzODE2LC0xLjEwMTUzIDYuNzc4NjIsLTQuNzQ1MDMgMy4yMTk4NCwtOC4zODg1NSA3LjU0MTIyLC0xNi4zNTM0MyAxMS4wMTUyNiwtMjQuNjU3MjQgMy4yMTk4NSwtNy43MTA2OSA4LjcyNzQ4LC0xMS41MjM2NiAxNi44NjE4MiwtMTEuNjA4MzkgOS40OTAwNywtMC4xNjk0NyAxOC45ODAxNywtMC4wODQ3IDI4LjQ3MDI3LC0wLjA4NDcgMTMuOTgwOSwwIDI3Ljk2MTgsMCA0Mi43OSwwIC0yLjExODMsLTMuMTM1MTEgLTMuNjQzNSwtNS41MDc2MyAtNS4zMzgyLC03Ljg4MDE1IC0xNC45MTI5LC0yMC43NTk1MyAtMjkuOTk1NCwtNDEuNDM0MzMgLTQ0LjczODksLTYyLjM2MzMyIC00LjQ5MDgsLTYuNDM5NjkgLTguNDczMiwtOS41NzQ4MSAtMTcuNzA5MTIsLTkuMzIwNjEgLTQwLjQxNzU0LDEuMTg2MjYgLTgwLjkxOTgxLDAuNTA4NCAtMTIxLjMzNzM0LDAuNDIzNjcgLTEwLjkzMDUzLDAgLTE3LjUzOTY5LC02LjI3MDIzIC0xNy42MjQ0MiwtMTYuMTgzOTYgMCwtOS43NDQyNyA2Ljg2MzM1LC0xNi4yNjg3IDE3LjUzOTY4LC0xNi4zNTM0MyAxMS42OTMxMywtMC4wODQ3IDIzLjM4NjI1LDAgMzUuMDc5MzgsMCAyMy42NDA0NCwwLjA4NDcgNDcuNTM1MDgsMC4wODQ3IDczLjYzMjc4LDAuMDg0NyB6IiBjbGFzcz0ic3QwIi8+JiN4YTsJPHBhdGggc3R5bGU9InN0cm9rZS13aWR0aDowLjg0NzMyODtmaWxsOiMwMDAwMDAiIGlkPSJwYXRoNiIgZD0ibSAyMDYuNzIwMjcsNzU1LjI0MDEyIGMgNy40NTY0OCw5Ljk5ODQ3IDI1LjE2NTY0LDcuMjg3MDIgMzIuNjIyMTIsLTIuNzExNDUgNC4wNjcxNywtMy4zMDQ1OCA4LjMwMzgxLC02LjM1NDk2IDEyLjExNjc5LC05LjkxMzc0IDIwLjkyODk5LC0xOS42NTggNTMuMzgxNjUsLTI0LjQ4Nzc3IDc3LjY5OTk2LC05LjgyOSA5LjY1OTUzLDUuNzYxODMgMTcuNzkzODgsMTQuMjM1MTEgMjYuMjY3MTYsMjEuODYxMDYgMTAuNzYxMDYsOS42NTk1NCAyNC42NTcyNCwxMC4xNjc5MyAzNS41ODc3NywwLjY3Nzg2IDMuNjQzNTEsLTMuMjE5ODQgNy4yMDIyOCwtNi41MjQ0MiAxMC41OTE1OSwtOS45OTg0NyAyNS4xNjU2NCwtMjUuMTY1NjMgNjAuOTIyODcsLTI4LjEzMTI4IDg4Ljc5OTk2LC03LjAzMjgyIDYuMTg1NDksNC42NjAzIDExLjM1NDE5LDEwLjU5MTYgMTcuMDMxMjksMTYuMDE0NSAxMS4xODQ3MiwxMC41OTE1OSAyNi4wMTI5NiwxMC44NDU3OSAzNy4zNjcxNSwwLjMzODkzIDMuMjE5ODUsLTIuOTY1NjUgNi40Mzk2OSwtNi4wMTYwMyA5LjMyMDYxLC05LjIzNTg3IDI0LjY1NzI0LC0yNy4zNjg2OSA3MC43NTE4NywtMjcuMTk5MjMgOTMuODgzOTIsLTIuODgwOTIgNC4xNTE5LDQuNDA2MTEgOC4zMDM4MSw5LjE1MTE0IDEzLjMwMzA0LDEyLjM3MDk5IDUuMDgzOTcsMy4yMTk4NCAxMS4xLDUuNjc3MDkgMTcuMDMxMjksNi43Nzg2MiAxMS4zNTQxOSwyLjAzMzU5IDE4LjY0MTIxLC01Ljc2MTgzIDI1LjQxOTg0LC0xMy4xMzM1OCAyMS4yNjc5MiwtMjMuMjE2NzggNDYuNzcyNDksLTI5LjU3MTc0IDc2LjE3NDc3LC0xOS40MDM4MSAxMy4zMDMwNCw0LjU3NTU3IDIyLjc5MzExLDE0LjY1ODc3IDMyLjE5ODQ1LDI0LjU3MjUxIDEwLjU5MTYsMTEuMDk5OTkgMjguMzAwNzUsMTEuMDk5OTkgMzkuMTQ2NTUsLTAuMDg0NyA0LjQwNjEsLTQuNTc1NTcgOC44OTY5NCwtOC45ODE2OCAxMy42NDE5NywtMTMuMjE4MzIgMjQuMjMzNTgsLTIxLjM1MjY2IDYyLjI3ODYsLTIxLjI2NzkzIDg2LjI1Nzk3LDAuMzM4OTMgNS41OTIzNyw1LjA4Mzk3IDEwLjc2MTA3LDEwLjY3NjMzIDE2LjYwNzYzLDE1LjQyMTM3IDEwLjI1MjY2LDguMzAzODEgMjIuNDU0MTgsOC4yMTkwOCAzMi43MDY5LC0wLjA4NDcgNC4zMjEzLC0zLjQ3NDA1IDguMzg4NSwtNy40NTY0OSAxMi4yODYyLC0xMS40Mzg5MyAxNi45NDY2LC0xNy4yODU0OSAzNy42MjE0LC0yMy4xMzIwNSA2MC44MzgxLC0xOC4zODcwMSA5LjIzNTksMS44NjQxMiAxNy43MDkyLDcuMDMyODIgMjYuNjA2MSwxMC43NjEwNiAwLDAuNjc3ODYgLTAuMzM4OSwxLjc3OTM5IDAuMDg1LDIuMTE4MzIgOC4yMTkxLDYuNTI0NDIgMTYuNDM4MSwxMi45NjQxMiAyNC42NTcyLDE5LjQwMzgxIDguNTU4LDYuMTAwNzYgMjAuNjc0OCw0LjQ5MDgzIDI5LjgyNiwtMy4zODkzMSA5LjMyMDYsLTguMDQ5NjIgMTguMjE3NSwtMTcuMjAwNzYgMjguODA5MSwtMjMuMjE2NzkgMjIuOTYyNiwtMTMuMDQ4ODQgNTIuMjgwMSwtOC45ODE2NyA3Mi4xOTIzLDguMzAzODIgMy4zMDQ2LDIuODgwOTEgNi43Nzg2LDUuNjc3MDkgOS42NTk2LDguODk2OTQgNy4wMzI4LDguMDQ5NjEgMTUuMzM2NiwxMi43MDk5MSAyNi4yNjcxLDEzLjk4MDkxIDEyLjk2NDEsMS41MjUxOSAxNy45NjM0LDkuNDA1MzQgMTYuNTIyOSwyMi43MDgzOCAtMS4wMTY4LDkuMjM1ODcgLTkuNDkwMSwxNS4zMzY2MyAtMjAuODQ0MiwxNS4yNTE5IC0xOS44Mjc1LC0wLjE2OTQ2IC0zNS4yNDg5LC05LjQ5MDA3IC00OC43MjE0LC0yMy4xMzIwNSAtMy4yMTk4LC0zLjMwNDU4IC02LjYwOTIsLTYuNDM5NjkgLTEwLjE2NzksLTkuNDA1MzQgLTguNjQyOCwtNy4yMDIyOCAtMjAuNTkwMSwtNy43MTA2OCAtMjkuNjU2NSwtMC44NDczMiAtNS4xNjg3LDMuOTgyNDQgLTkuNzQ0Myw4LjcyNzQ3IC0xNC40ODkzLDEzLjMwMzA0IC0yNy43MDc2LDI2Ljc3NTU2IC02Ni4xNzYzLDI3LjExNDQ5IC05NC4zMDc2LDAuNzYyNiAtMy44OTc3LC0zLjY0MzUxIC03LjU0MTIsLTcuNjI1OTUgLTExLjUyMzcsLTExLjI2OTQ2IC0xMS4wMTUyLC0xMC4yNTI2NyAtMjQuMjMzNSwtMTAuMzM3NCAtMzUuNDE4MywtMC4zMzg5MyAtNy40NTY0LDYuNjA5MTUgLTE0LjQwNDUsMTMuODk2MTcgLTIyLjQ1NDEsMTkuNzQyNzMgLTIzLjEzMjEsMTYuNzc3MSAtNTYuODU1NzQsMTQuNzQzNTEgLTc4LjQ2MjYsLTQuMTUxOSAtNC45MTQ1LC00LjMyMTM3IC05LjQwNTM0LC05LjE1MTE0IC0xNC4yMzUxMSwtMTMuNjQxOTggLTEzLjgxMTQ0LC0xMi42MjUxOCAtMjcuMDI5NzYsLTEyLjI4NjI1IC00MC41ODcsMC42Nzc4NiAtNi41MjQ0Miw2LjE4NTUgLTEyLjk2NDEyLDEyLjU0MDQ1IC0yMC4yNTExMywxNy43OTM4OSAtMjEuNjA2ODYsMTUuNDIxMzYgLTU0LjMxMzcyLDE0LjA2NTY0IC03NC45ODg1MSwtMi43OTYxOCAtNi40Mzk3LC01LjI1MzQ0IC0xMi4yMDE1MiwtMTEuMTg0NzMgLTE4LjMwMjI4LC0xNi43NzcwOSAtMTIuMDMyMDYsLTExLjAxNTI3IC0yNC4yMzM1OCwtMTAuOTMwNTMgLTM2LjUxOTgzLC0wLjQyMzY3IC05LjQwNTM0LDguMDQ5NjIgLTE4LjM4NzAyLDE2Ljk0NjU2IC0yOC44MDkxNSwyMy4zMDE1MiAtMTkuNTczMjcsMTEuODYyNTggLTU0Ljk5MTU3LDguOTgxNjcgLTczLjI5Mzg1LC05LjY1OTU0IC00LjQwNjExLC00LjQ5MDg0IC04Ljk4MTY4LC04Ljk4MTY4IC0xMy43MjY3MSwtMTMuMjE4MzEgLTEyLjYyNTE5LC0xMS4xODQ3MyAtMjUuMjUwMzcsLTExLjAxNTI3IC0zNy43OTA4MiwwLjI1NDE5IC01LjA4Mzk3LDQuNTc1NTcgLTkuNTc0ODEsOS44MjkwMSAtMTQuODI4MjQsMTQuMDY1NjQgLTI4LjEzMTI4LDIyLjc5MzEyIC02My42MzQzMiwyMC44NDQyNyAtOTAuNDA5ODcsLTQuNzQ1MDMgLTMuMzA0NTgsLTMuMjE5ODUgLTYuNjA5MTYsLTYuNTI0NDIgLTkuOTEzNzQsLTkuNjU5NTQgLTExLjM1NDE5LC0xMC42NzYzMyAtMjQuODI2NywtMTAuNzYxMDYgLTM2LjUxOTgzLC0wLjMzODkzIC03LjI4NzAyLDYuNDM5NjkgLTE0LjA2NTY0LDEzLjU1NzI1IC0yMS45NDU3OSwxOS4xNDk2MSAtMjQuNDg3NzcsMTcuMzcwMjIgLTU4LjYzNTA4LDE0LjU3NDA0IC04MC42NjU2LC02LjAxNjAzIC00LjgyOTc3LC00LjQ5MDg0IC05LjQwNTM0LC05LjE1MTE0IC0xNC40MDQ1OCwtMTMuMzg3NzggLTEyLjIwMTUyLC0xMC4zMzc0IC0yNC43NDE5NywtOS45OTg0NyAtMzYuNTE5ODMsMC44NDczMyAtNS4zMzgxNiw0LjkxNDUgLTEwLjI1MjY2LDEwLjUwNjg3IC0xNS45Mjk3NiwxNC45OTc3IC0yNi40MzY2MywyMS4wOTg0NiAtNjEuMDkyMzMsMTkuODI3NDcgLTg2LjY4MTYzLC0yLjg4MDkxIC0zLjMwNDU4LC0yLjg4MDkyIC02LjQzOTY5LC01LjkzMTMgLTkuNDkwMDcsLTkuMTUxMTQgLTYuMTg1NSwtNi42OTM4OSAtMTMuMTMzNTgsLTEwLjkzMDUzIC0yMi43MDgzOSwtMTEuNjA4MzkgLTEyLjI4NjI1LC0wLjg0NzMzIC0xOS43NDI3NCwtMTAuMjUyNjcgLTE4LjM4NzAxLC0yMC45MjkgMS40NDA0NiwtMTEuNDM4OTIgMTEuOTQ3MzIsLTE5LjQ4ODU0IDIzLjk3OTM4LC0xOC42NDEyMSAxNi43NzcwOSwxLjE4NjI2IDMwLjY3MzI2LDguMTM0MzUgNDEuOTQyNzIsMjAuNTA1MzMgMy42NDM1MSwzLjk4MjQ0IDcuNTQxMjIsNy42MjU5NSAxMS41MjM2NiwxMS4xODQ3MyAwLjg0NzMzLDAuODQ3MzMgMi42MjY3MiwwLjQyMzY2IDMuOTgyNDQsMC41OTMxMyB6IiBjbGFzcz0ic3QxIi8+JiN4YTsJJiN4YTsJJiN4YTsJPHBhdGggc3R5bGU9InN0cm9rZS13aWR0aDowLjg0NzMyOCIgaWQ9InBhdGgxMiIgZD0ibSAzOTIuOTYyOTIsNjQ0LjI0MDE4IGMgMCw5LjA2NjQgLTcuMDMyODIsMTYuMTgzOTYgLTE2LjA5OTIzLDE2LjM1MzQyIC05LjMyMDYsMC4xNjk0NyAtMTYuODYxODIsLTcuMjAyMjggLTE2Ljc3NzA5LC0xNi40MzgxNiAwLjA4NDcsLTguOTgxNjcgNy4xMTc1NiwtMTYuMTgzOTYgMTYuMDk5MjMsLTE2LjQzODE2IDkuNDA1MzQsLTAuMTY5NDYgMTYuNzc3MDksNy4xMTc1NiAxNi43NzcwOSwxNi41MjI5IHoiIGNsYXNzPSJzdDAiLz4mI3hhOwk8cGF0aCBzdHlsZT0ic3Ryb2tlLXdpZHRoOjAuODQ3MzI4IiBpZD0icGF0aDE0IiBkPSJtIDQ5MS4xNjgyMSw2NjAuNTkzNiBjIC04Ljk4MTY3LDAuMTY5NDcgLTE2LjM1MzQyLC02Ljg2MzM1IC0xNi42OTIzNiwtMTUuNzYwMjkgLTAuMzM4OTMsLTkuMzIwNjEgNi44NjMzNiwtMTYuOTQ2NTYgMTYuMTgzOTcsLTE3LjAzMTI5IDkuMTUxMTQsLTAuMTY5NDcgMTYuNzc3MDksNy4zNzE3NSAxNi42OTIzNSwxNi42MDc2MiAwLDguODEyMjEgLTcuMjAyMjgsMTYuMDE0NSAtMTYuMTgzOTYsMTYuMTgzOTYgeiIgY2xhc3M9InN0MCIvPiYjeGE7CTxwYXRoIHN0eWxlPSJzdHJva2Utd2lkdGg6MC44NDczMjgiIGlkPSJwYXRoMTYiIGQ9Im0gMjYwLjk0OTI1LDY2MC41OTM2IGMgLTkuMzIwNjEsMC4wODQ3IC0xNi43NzcwOSwtNy4yODcwMiAtMTYuNjkyMzYsLTE2LjUyMjg5IDAuMDg0NywtOC45ODE2NyA3LjI4NzAyLC0xNi4xODM5NiAxNi4xODM5NiwtMTYuMzUzNDMgOS4xNTExNCwtMC4xNjk0NiAxNi42OTIzNiw3LjM3MTc2IDE2LjY5MjM2LDE2LjYwNzYzIDAsOC44OTY5NCAtNy4yMDIyOSwxNi4wOTkyMyAtMTYuMTgzOTYsMTYuMjY4NjkgeiIgY2xhc3M9InN0MCIvPiYjeGE7CTxwYXRoIHN0eWxlPSJzdHJva2Utd2lkdGg6MC44NDczMjgiIGlkPSJwYXRoMTgiIGQ9Im0gNjA1LjA0OTA3LDY2MC41OTM2IGMgLTguOTgxNjgsLTAuMDg0NyAtMTYuMTgzOTYsLTcuMjAyMjggLTE2LjI2ODcsLTE2LjE4Mzk2IC0wLjA4NDcsLTkuMjM1ODcgNy4zNzE3NiwtMTYuNzc3MDkgMTYuNjA3NjMsLTE2LjY5MjM2IDkuMjM1ODcsMC4wODQ3IDE2LjYwNzYyLDcuNzk1NDIgMTYuMjY4NjksMTYuOTQ2NTYgLTAuMjU0Miw5LjA2NjQxIC03LjU0MTIxLDE1LjkyOTc2IC0xNi42MDc2MiwxNS45Mjk3NiB6IiBjbGFzcz0ic3QwIi8+JiN4YTsJPHBhdGggc3R5bGU9InN0cm9rZS13aWR0aDowLjg0NzMyOCIgaWQ9InBhdGgyMCIgZD0ibSA4MzMuNTczMzgsNjYwLjU5MzYgYyAtOS4wNjY0MSwtMC4wODQ3IC0xNi4xODM5NywtNy4yODcwMiAtMTYuMjY4NywtMTYuMjY4NjkgLTAuMDg0NywtOS4yMzU4NyA3LjQ1NjQ5LC0xNi42OTIzNiAxNi42OTIzNiwtMTYuNjA3NjMgOS4xNTExNCwwLjA4NDcgMTYuNTIyODksNy44ODAxNSAxNi4xODM5NiwxNy4wMzEyOSAtMC4yNTQyLDguOTgxNjggLTcuNjI1OTUsMTUuOTI5NzcgLTE2LjYwNzYyLDE1Ljg0NTAzIHoiIGNsYXNzPSJzdDAiLz4mI3hhOwk8cGF0aCBzdHlsZT0ic3Ryb2tlLXdpZHRoOjAuODQ3MzI4IiBpZD0icGF0aDIyIiBkPSJtIDcxOS4xODQxMiw2NjAuNTkzNiBjIC04Ljk4MTY3LC0wLjE2OTQ2IC0xNi4wOTkyMywtNy40NTY0OCAtMTYuMDk5MjMsLTE2LjM1MzQyIDAsLTkuMjM1ODggNy42MjU5NSwtMTYuNjkyMzYgMTYuNzc3MDksLTE2LjQzODE2IDguODk2OTUsMC4xNjk0NiAxNi4wMTQ1LDcuNTQxMjEgMTYuMDk5MjMsMTYuNDM4MTYgMCw5LjE1MTE0IC03LjQ1NjQ4LDE2LjUyMjg5IC0xNi43NzcwOSwxNi4zNTM0MiB6IiBjbGFzcz0ic3QwIi8+JiN4YTs8cGF0aCBpZD0icGF0aDIyMSIgZD0ibSA3NDMuNzY5MzcsMjU1Ljg3OTYgYyAtNC43ODI5OSwtMi4zNjc1OSAtNy4xODMwNSwtNi4zNjc3NiAtNy4xNDAwOSwtMTEuOTAxMTUgMC4wNDI0LC01LjQzNjkzIDEuNzY4MTIsLTguMTMyMjcgMTEuMzMxMDYsLTE3LjY5NDM0IDE2LjE4MDY2LC0xNi4xNzkyOSAzNS43ODE4OSwtMjYuNzM5NjIgNTkuMTcwNjgsLTMxLjg3ODczIDExLjEzNjQzLC0yLjQ0Njk3IDM1LjUxOTU2LC0yLjI0MjAxIDQ3LjMwOTUzLDAuMzk3NjggMjIuMDc3MzgsNC45NDI5OSA0MS4wOTg3OSwxNS4yNDIwNSA1Ni45NDc0NiwzMC44MzM5MiA5LjkxNTg1LDkuNzU1MjcgMTEuNzgyMzUsMTIuNjUwMDYgMTEuNzgyMzUsMTguMjc0MjcgMCw1Ljg5OTUxIC0yLjIwMDQzLDkuNjI1OSAtNy4wNzgwNywxMS45ODcxOSAtNy40ODIzMywzLjYyMjA4IC0xMC4yNDUzOCwyLjQ1MDM1IC0yMi41NjQ2OCwtOS41Njg5IC0xMy42OTUxOSwtMTMuMzYxNjcgLTI0LjY2NDk1LC0xOS44MDUyMyAtNDEuNTkwODMsLTI0LjQzMDI0IC02LjE5MDI0LC0xLjY5MTQ4IC05LjEyNDM2LC0xLjk1MjE3IC0yMS45NzI0OCwtMS45NTIxNyAtMTIuNjUxMzcsMCAtMTUuODIzMzQsMC4yNzMzNiAtMjEuNjA2ODYsMS44NjIwNyAtMTcuMzE1NzMsNC43NTY1NiAtMjguMjQ3NzksMTEuMTQ1NTggLTQxLjk1NjU0LDI0LjUyMDM0IC0xMi4zMjM5NSwxMi4wMjM4NiAtMTUuMTkwMzgsMTMuMjMzMzkgLTIyLjYzMTUzLDkuNTUwMDYgeiBtIC02Mi42MjAwNiwtNjIuMTk0MzMgYyAtNi4xMTg5LC0zLjY2NzkgLTguMTY4MTYsLTEyLjA5MTE1IC00LjQzMzIyLC0xOC4yMjI4NSAyLjQxOTM3LC0zLjk3MTk0IDE2LjM4MTM5LC0xNy42ODgyNyAyNS4zMDE3MSwtMjQuODU2NDMgMjMuMDgxNzIsLTE4LjU0NzkzIDUxLjAwMTA5LC0zMi4zNjU1OCA3OS42ODMzLC0zOS40MzYxOCAxNy43NDEyNywtNC4zNzM1MSAyNy45NjU5NywtNS41NDkxMSA0OC4yNjMyLC01LjU0OTExIDMyLjUxNzQ4LDAgNTguNzY4NTQsNS44NTkzNyA4Ny4wNjE3NSwxOS40MzI2NyAyMS4zNTQxNSwxMC4yNDQ0MiAzOS4wNTkyMywyMi41NTc4MyA1NS4xNDY3NywzOC4zNTMwMiAxMC44Njk1MiwxMC42NzIwMyAxMi44NDQ4MSwxMy41Njk1MiAxMi44NDkyMSwxOC44NDc4NyAwLjAwOCw5LjkyMTQgLTEwLjEzMDM5LDE2LjQ4NzcyIC0xOC45MzM3LDEyLjI2MjUzIC0xLjQ2ODUxLC0wLjcwNDgyIC02LjI5MjM1LC00Ljk0ODY5IC0xMC43MTk2MywtOS40MzA4MiAtMTQuOTIyODksLTE1LjEwNzY4IC0yOS4zOTU0NywtMjUuNTc3NDYgLTQ3LjgyMjksLTM0LjU5NTcyIC0xNi42Mjk2NSwtOC4xMzg1MSAtMzEuNTkzMjksLTEyLjkxMjcgLTUwLjkyNzExLC0xNi4yNDg1MiAtMTIuMTExNzksLTIuMDg5NzUgLTQwLjcwMTMsLTIuMDkwMjMgLTUzLjI0MTU5LC04LjVlLTQgLTM4LjI5MTg0LDYuMzc5ODIgLTcxLjE2OTYsMjMuMjEzMDcgLTk4LjUwODA0LDUwLjQzNTY1IC01LjE4OTI5LDUuMTY3MjYgLTEwLjQ1Njk2LDkuNzgzNTQgLTExLjcwNiwxMC4yNTg0MSAtMy44MDk1OSwxLjQ0ODQ0IC04LjI5MDI2LDAuOTgyMzkgLTEyLjAxMzc1LC0xLjI0OTYyIHogTSAxMDMyLjAzLDEzNC4yOTI2MyBjIC0wLjQ1NCwtMC4xMTA1NyAtMS44MTMzLC0wLjQxNzA1IC0zLjAyMDUsLTAuNjgxMDYgLTEuMjcxNiwtMC4yNzgwNyAtNi40NDUxLC00LjY3NjA0IC0xMi4yOTczLC0xMC40NTM4OCAtNDQuNDQ4MywtNDMuODgzNTI1IC05OC4zMTI0NywtNjkuNTg3NDI3IC0xNjAuNDgwNzQsLTc2LjU4MDk2NCAtMTEuNDUzNjcsLTEuMjg4NDYzIC00MS4wODA2NSwtMS4yODg0NjMgLTUyLjUzNDMyLDAgLTYxLjUyNjkzLDYuOTIxMzk2IC0xMTYuNzc1MTYsMzMuMTA0Mzc3IC0xNTkuMjUzMDYsNzUuNDcyNDM0IC0xMS40NjA3OCwxMS40MzEwNSAtMTIuMTMzMTQsMTEuODgxNzUgLTE3LjczODQ3LDExLjg4ODYyIC01Ljg5NTI0LDAuMDA4IC05LjU0ODY2LC0yLjIxMDExIC0xMi4wMDYyNSwtNy4yODY4NSAtMy43NjYxMiwtNy43Nzk2OSAtMS40OTMzMywtMTIuMzc0MjMgMTIuOTgyNzEsLTI2LjI0NTczIDQ2LjA2NiwtNDQuMTQyMjQ4IDEwMS4wNzA3OSwtNzAuODcyMzY3IDE2My44NTQ4MSwtNzkuNjI2OTIzIDIwLjY4Mjg1LC0yLjg4Mzk5MSA1Ni4xNzE5OSwtMi44ODM5OTEgNzYuODU0ODQsMCA2Mi43MDM3OCw4Ljc0MzM2MyAxMTcuODQ3NTksMzUuNTQxMDk5IDE2My44NTQ2OCw3OS42MjY5MjMgMTAuNjkxNCwxMC4yNDQ5NiAxMy43NTI3LDE0LjI5MDg2IDE0LjM4NjEsMTkuMDEzNDYgMC41NTk0LDQuMTcwNzUgLTIuMTMxNSwxMC4yNzg1NiAtNS41MDEyLDEyLjQ4NjQ1IC0yLjE5NDEsMS40Mzc2NyAtNy4zOTcxLDIuODAyNTYgLTkuMTAxMywyLjM4NzUyIHoiIHN0eWxlPSJmaWxsOiMwMDAwMDA7c3Ryb2tlLXdpZHRoOjAuODQ3MzI4Ii8+PC9nPiYjeGE7PC9zdmc+;" vertex="1" parent="1">
          <mxGeometry x="-790" y="700" width="193.6" height="121" as="geometry" />
        </mxCell>
        <mxCell id="5XS556nmQgQ2dr4hD8sf-13" value="2" style="text;html=1;align=center;verticalAlign=middle;whiteSpace=wrap;rounded=0;fontSize=24;" vertex="1" parent="1">
          <mxGeometry x="-670" y="720" width="60" height="30" as="geometry" />
        </mxCell>
        <mxCell id="5XS556nmQgQ2dr4hD8sf-14" value="" style="shape=image;verticalLabelPosition=bottom;labelBackgroundColor=default;verticalAlign=top;aspect=fixed;imageAspect=0;image=data:image/svg+xml,PHN2ZyB4bWxucz0iaHR0cDovL3d3dy53My5vcmcvMjAwMC9zdmciIHhtbDpzcGFjZT0icHJlc2VydmUiIHN0eWxlPSJlbmFibGUtYmFja2dyb3VuZDpuZXcgMCAwIDE1MDQgOTQwOyIgdmlld0JveD0iMCAwIDE1MDQgOTQwIiB5PSIwcHgiIHg9IjBweCIgaWQ9IkxheWVyXzEiIHZlcnNpb249IjEuMSI+PGRlZnMgaWQ9ImRlZnMyOSIvPiYjeGE7PHN0eWxlIGlkPSJzdHlsZTIiIHR5cGU9InRleHQvY3NzIj4mI3hhOwkuc3Qwe2ZpbGw6IzAzMDMwNDt9JiN4YTsJLnN0MXtmaWxsOiM0RjRGNEY7fSYjeGE7CS5zdDJ7ZmlsbDojNTE5OUZDO30mI3hhOwkuc3Qze2ZpbGw6IzAxNkJGQjt9JiN4YTs8L3N0eWxlPiYjeGE7PGcgaWQ9ImcyNCI+JiN4YTsJPHBhdGggc3R5bGU9InN0cm9rZS13aWR0aDowLjg0NzMyOCIgaWQ9InBhdGg0IiBkPSJtIDIwNi43MjAyNyw3NTUuMjQwMTIgYyAtOC4xMzQzNSwtNDMuMjEzNzIgLTE2LjI2ODY5LC04Ni41MTIxNyAtMjQuNDAzMDQsLTEyOS43MjU4OSAtMy4xMzUxMSwtMTYuNjkyMzYgLTYuMDE2MDMsLTMzLjQ2OTQ1IC05LjMyMDYxLC01MC4xNjE4IC0yLjcxMTQ0LC0xMy41NTcyNSA1LjE2ODcsLTIzLjU1NTcyIDE5LjE0OTYxLC0yMy4zMDE1MiA0Ny45NTg3NiwwLjg0NzMzIDk1LjkxNzUxLDEuODY0MTIgMTQzLjg3NjI2LDIuNzk2MTggMS40NDA0NiwwIDIuNzk2MTgsMCA1LjMzODE3LDAgMCwtMTAuMzM3NCAtMC4xNjk0NywtMjAuMjUxMTMgMC4wODQ3LC0zMC4xNjQ4NyAwLjE2OTQ3LC03Ljg4MDE0IDQuNTc1NTcsLTEzLjY0MTk3IDExLjg2MjU5LC0xNS42NzU1NiA3LjExNzU1LC0yLjAzMzU5IDEzLjM4Nzc4LDAgMTcuNDU0OTUsNS45MzEyOSAyLjIwMzA1LDMuMTM1MTIgMy4xMzUxMSw3LjYyNTk1IDMuMzA0NTgsMTEuNTIzNjYgMC41MDg0LDkuMjM1ODggMC4xNjk0NywxOC40NzE3NSAwLjE2OTQ3LDI5LjkxMDY3IDEzLjY0MTk3LDAgMjYuODYwMjksLTAuMTY5NDYgNDAuMTYzMzMsMCA3OS4zOTQ2MiwxLjM1NTczIDE1OC43ODkyMywyLjcxMTQ1IDIzOC4xODM4NSw0LjMyMTM4IDQuOTk5MjMsMC4wODQ3IDcuMTE3NTUsLTAuNjc3ODcgOC4wNDk2MSwtNi4yNzAyMyAzLjU1ODc4LC0yMS4wOTg0NiA3Ljg4MDE1LC00Mi4wMjc0NiAxMS44NjI1OSwtNjMuMDQxMTkgMi43OTYxOCwtMTQuNzQzNSA4LjA0OTYxLC0xOC44OTU0MSAyMi44Nzc4NSwtMTguMzg3MDEgOS45MTM3NCwwLjI1NDIgMTkuOTEyMiwwLjA4NDcgMzAuODQyNzMsMC4wODQ3IDAuODQ3MzMsLTkuNTc0OCAxLjg2NDEyLC0xOS40MDM4MSAyLjU0MTk5LC0yOS4yMzI4MSAxLjc3OTM4LC0yNC40ODc3NyAzLjEzNTExLC00OS4wNjAyOCA1LjE2ODcsLTczLjU0ODA1IDAuNDIzNjYsLTUuNDIyOSAyLjAzMzU4LC0xMS4wOTk5OSA0LjU3NTU3LC0xNS43NjAzIDIuOTY1NjQsLTUuNDIyOSA4LjcyNzQ3LC03LjExNzU1IDE1LjA4MjQzLC03LjAzMjgyIDI0LjgyNjcxLDAuMTY5NDcgNDkuNjUzNDEsMC4wODQ3IDc1LjU4MTY0LDAuMDg0NyAtMy4zMDQ1OCwtMTIuNzk0NjUgLTYuNDM5NjksLTI0LjkxMTQzIC05LjY1OTU0LC0zNi45NDM0OSAtMS45NDg4NSwtNy41NDEyMSAtMy45ODI0NCwtMTQuOTk3NyAtNi4wMTYwMiwtMjIuNTM4OTIgLTIuNTQxOTksLTkuNDkwMDcgMS42OTQ2NSwtMTcuMDMxMjkgMTEuMDE1MjYsLTE5LjQ4ODU0IDkuMTUxMTQsLTIuNDU3MjUgMTcuNzA5MTUsMS43NzkzOSAyMC4zMzU4NiwxMC43NjEwNyA1Ljg0NjU3LDIwLjU5MDA2IDExLjYwODQsNDEuMTgwMTMgMTYuNzc3MSw2MS45Mzk2NiAxLjI3MDk5LDUuMjUzNDMgMy4zODkzMSw2LjQzOTY5IDguMzg4NTQsNi4zNTQ5NiAzMC42NzMyNywtMC4xNjk0NyA2MS40MzEyNywwLjA4NDcgOTIuMTA0NTMsLTAuMTY5NDcgMTAuMDgzMiwtMC4wODQ3IDE3LjM3MDIyLDMuMTM1MTEgMjMuNDcwOTgsMTEuNjkzMTMgMzguNTUzNDUsNTQuMTQ0MjQgNzcuNjk5OTUsMTA3Ljg2NDgyIDExNi4zMzgxNSwxNjEuOTI0MzQgMi45NjU2LDQuMTUxOSA2LjEwMDgsNS4zMzgxNiAxMC43NjExLDUuNDIyOSA1Ni4yNjI1LDAuNjc3ODYgMTEyLjUyNTEsMS41MjUxOSAxNjguNzAyOSwyLjM3MjUxIDcuMjg3LDAuMDg0NyAxNC41NzQxLDAuNTA4NCAyMS44NjExLDEuMDE2OCA3LjU0MTIsMC41MDgzOSAxMy44MTE0LDYuNTI0NDIgMTQuMjM1MSwxMy45ODA5MSAwLjA4NSwxLjk0ODg1IC0wLjU5MzEsNC40MDYxIC0xLjg2NDEsNS44NDY1NiAtMjkuMjMyOCwzMi4yODMxOSAtNTguNTUwNCw2NC40ODE2NCAtODcuOTUyNyw5Ni42ODAxIC0zNC4xNDczLDM3LjM2NzE1IC02OC4zNzkzLDc0LjczNDMxIC0xMDIuNTI2NiwxMTIuMTAxNDcgLTguMjE5MSwtNi40Mzk2OSAtMTYuNTIyOSwtMTIuODc5MzkgLTI0LjY1NzMsLTE5LjQwMzgxIC0wLjMzODksLTAuMjU0MiAtMC4wODUsLTEuMzU1NzIgLTAuMDg1LC0yLjExODMyIDUzLjEyNzUsLTU4LjEyNjY5IDEwNi4xNzAyLC0xMTYuMTY4NjQgMTYwLjU2ODYsLTE3NS42NTEwNSAtNi45NDgxLDAgLTExLjc3NzgsMC4wODQ3IC0xNi42MDc2LDAgLTc3Ljk1NDIsLTEuMTAxNTMgLTE1NS45MDgzLC0yLjExODMyIC0yMzMuODYyNSwtMy41NTg3OCAtNi40Mzk3LC0wLjA4NDcgLTkuNzQ0MywxLjY5NDY2IC0xMS44NjI2LDcuNjI1OTUgLTIuNzk2MTgsNy45NjQ4OCAtNi40Mzk2OSwxNS42NzU1NyAtOS40OTAwNywyMy42NDA0NSAtMy4yMTk4NSw4LjQ3MzI3IC02LjAxNjAzLDEwLjU5MTU5IC0xNS4yNTE5LDEwLjQyMjEzIC0yNi43NzU1NiwtMC41MDg0IC01My41NTExMiwtMS4wMTY3OSAtODAuNDExNDEsLTEuNDQwNDYgLTEwNi40MjQzNywtMS45NDg4NSAtMjEyLjg0ODc0LC0zLjg5NzcxIC0zMTkuMjczMTEsLTUuODQ2NTYgLTEyMC4wNjYzNSwtMi4yODc3OSAtMjQwLjEzMjcsLTQuNTc1NTcgLTM2MC4xOTkwNSwtNi44NjMzNiAtMS42MDk5MiwwIC0zLjIxOTg1LDAuNDIzNjcgLTUuMDgzOTcsMC42Nzc4NyAwLDEuNzc5MzkgLTAuMjU0MiwzLjMwNDU4IDAsNC42NjAzIDQuMzIxMzcsMjMuNDcwOTggOC44MTIyMSw0Ni44NTcyMyAxMy4yMTgzMiw3MC4zMjgyMSA1LjY3NzA5LDMwLjU4ODUzIDExLjM1NDE5LDYxLjI2MTggMTcuMDMxMjgsOTEuODUwMzMgLTcuMjg3MDEsOS41NzQ4IC0yNC45OTYxNywxMi4zNzA5OSAtMzIuNDUyNjUsMi4zNzI1MiB6IE0gOTgzLjcxOTg2LDQxMy4zNDMzNSBjIC03LjM3MTc1LC0xMC4yNTI2NiAtMTMuNzI2NzEsLTE4LjgxMDY4IC0xOS41NzMyNywtMjcuNjIyODggLTIuOTY1NjUsLTQuNDA2MTEgLTYuNTI0NDMsLTUuNjc3MSAtMTEuNjA4MzksLTUuNjc3MSAtNTkuNDgyNDEsMC4xNjk0NiAtMTE4Ljg4MDA5LDAuMTY5NDYgLTE3OC4zNjI1LC0wLjA4NDcgLTYuMTAwNzYsMCAtOC4zODg1NSwxLjI3MDk5IC04LjgxMjIxLDcuODgwMTQgLTIuMDMzNTksMzMuMDQ1NzkgLTQuNjYwMzEsNjYuMDkxNTcgLTcuMDMyODIsOTkuMDUyNjIgLTEuMDE2OCwxNC4wNjU2NSAtNy42MjU5NSwyMC4xNjY0MSAtMjEuNjA2ODYsMTkuOTEyMjEgLTkuNDkwMDcsLTAuMTY5NDcgLTE4Ljk4MDE0LC0wLjU5MzEzIC0yOC40NzAyMiwtMC4zMzg5MyAtMS45NDg4NSwwLjA4NDcgLTUuMTY4NywyLjAzMzU4IC01LjUwNzYzLDMuNjQzNTEgLTMuNTU4NzcsMTYuNjA3NjIgLTYuNjkzODksMzMuMjk5OTggLTEwLjE2NzkzLDUxLjA5Mzg2IDMuMjE5ODUsMCA1Ljg0NjU2LC0wLjA4NDcgOC40NzMyOCwwIDM1LjA3OTM3LDAuNjc3ODYgNzAuMTU4NzQsMS41MjUxOSAxMDUuMjM4MTEsMi4yMDMwNSA1MC42NzAyLDAuOTMyMDcgMTAxLjM0MDQsMS42OTQ2NiAxNTIuMDEwNjEsMi42MjY3MiAzLjcyODI0LDAuMDg0NyA1LjMzODE2LC0xLjEwMTUzIDYuNzc4NjIsLTQuNzQ1MDMgMy4yMTk4NCwtOC4zODg1NSA3LjU0MTIyLC0xNi4zNTM0MyAxMS4wMTUyNiwtMjQuNjU3MjQgMy4yMTk4NSwtNy43MTA2OSA4LjcyNzQ4LC0xMS41MjM2NiAxNi44NjE4MiwtMTEuNjA4MzkgOS40OTAwNywtMC4xNjk0NyAxOC45ODAxNywtMC4wODQ3IDI4LjQ3MDI3LC0wLjA4NDcgMTMuOTgwOSwwIDI3Ljk2MTgsMCA0Mi43OSwwIC0yLjExODMsLTMuMTM1MTEgLTMuNjQzNSwtNS41MDc2MyAtNS4zMzgyLC03Ljg4MDE1IC0xNC45MTI5LC0yMC43NTk1MyAtMjkuOTk1NCwtNDEuNDM0MzMgLTQ0LjczODksLTYyLjM2MzMyIC00LjQ5MDgsLTYuNDM5NjkgLTguNDczMiwtOS41NzQ4MSAtMTcuNzA5MTIsLTkuMzIwNjEgLTQwLjQxNzU0LDEuMTg2MjYgLTgwLjkxOTgxLDAuNTA4NCAtMTIxLjMzNzM0LDAuNDIzNjcgLTEwLjkzMDUzLDAgLTE3LjUzOTY5LC02LjI3MDIzIC0xNy42MjQ0MiwtMTYuMTgzOTYgMCwtOS43NDQyNyA2Ljg2MzM1LC0xNi4yNjg3IDE3LjUzOTY4LC0xNi4zNTM0MyAxMS42OTMxMywtMC4wODQ3IDIzLjM4NjI1LDAgMzUuMDc5MzgsMCAyMy42NDA0NCwwLjA4NDcgNDcuNTM1MDgsMC4wODQ3IDczLjYzMjc4LDAuMDg0NyB6IiBjbGFzcz0ic3QwIi8+JiN4YTsJPHBhdGggc3R5bGU9InN0cm9rZS13aWR0aDowLjg0NzMyODtmaWxsOiMwMDAwMDAiIGlkPSJwYXRoNiIgZD0ibSAyMDYuNzIwMjcsNzU1LjI0MDEyIGMgNy40NTY0OCw5Ljk5ODQ3IDI1LjE2NTY0LDcuMjg3MDIgMzIuNjIyMTIsLTIuNzExNDUgNC4wNjcxNywtMy4zMDQ1OCA4LjMwMzgxLC02LjM1NDk2IDEyLjExNjc5LC05LjkxMzc0IDIwLjkyODk5LC0xOS42NTggNTMuMzgxNjUsLTI0LjQ4Nzc3IDc3LjY5OTk2LC05LjgyOSA5LjY1OTUzLDUuNzYxODMgMTcuNzkzODgsMTQuMjM1MTEgMjYuMjY3MTYsMjEuODYxMDYgMTAuNzYxMDYsOS42NTk1NCAyNC42NTcyNCwxMC4xNjc5MyAzNS41ODc3NywwLjY3Nzg2IDMuNjQzNTEsLTMuMjE5ODQgNy4yMDIyOCwtNi41MjQ0MiAxMC41OTE1OSwtOS45OTg0NyAyNS4xNjU2NCwtMjUuMTY1NjMgNjAuOTIyODcsLTI4LjEzMTI4IDg4Ljc5OTk2LC03LjAzMjgyIDYuMTg1NDksNC42NjAzIDExLjM1NDE5LDEwLjU5MTYgMTcuMDMxMjksMTYuMDE0NSAxMS4xODQ3MiwxMC41OTE1OSAyNi4wMTI5NiwxMC44NDU3OSAzNy4zNjcxNSwwLjMzODkzIDMuMjE5ODUsLTIuOTY1NjUgNi40Mzk2OSwtNi4wMTYwMyA5LjMyMDYxLC05LjIzNTg3IDI0LjY1NzI0LC0yNy4zNjg2OSA3MC43NTE4NywtMjcuMTk5MjMgOTMuODgzOTIsLTIuODgwOTIgNC4xNTE5LDQuNDA2MTEgOC4zMDM4MSw5LjE1MTE0IDEzLjMwMzA0LDEyLjM3MDk5IDUuMDgzOTcsMy4yMTk4NCAxMS4xLDUuNjc3MDkgMTcuMDMxMjksNi43Nzg2MiAxMS4zNTQxOSwyLjAzMzU5IDE4LjY0MTIxLC01Ljc2MTgzIDI1LjQxOTg0LC0xMy4xMzM1OCAyMS4yNjc5MiwtMjMuMjE2NzggNDYuNzcyNDksLTI5LjU3MTc0IDc2LjE3NDc3LC0xOS40MDM4MSAxMy4zMDMwNCw0LjU3NTU3IDIyLjc5MzExLDE0LjY1ODc3IDMyLjE5ODQ1LDI0LjU3MjUxIDEwLjU5MTYsMTEuMDk5OTkgMjguMzAwNzUsMTEuMDk5OTkgMzkuMTQ2NTUsLTAuMDg0NyA0LjQwNjEsLTQuNTc1NTcgOC44OTY5NCwtOC45ODE2OCAxMy42NDE5NywtMTMuMjE4MzIgMjQuMjMzNTgsLTIxLjM1MjY2IDYyLjI3ODYsLTIxLjI2NzkzIDg2LjI1Nzk3LDAuMzM4OTMgNS41OTIzNyw1LjA4Mzk3IDEwLjc2MTA3LDEwLjY3NjMzIDE2LjYwNzYzLDE1LjQyMTM3IDEwLjI1MjY2LDguMzAzODEgMjIuNDU0MTgsOC4yMTkwOCAzMi43MDY5LC0wLjA4NDcgNC4zMjEzLC0zLjQ3NDA1IDguMzg4NSwtNy40NTY0OSAxMi4yODYyLC0xMS40Mzg5MyAxNi45NDY2LC0xNy4yODU0OSAzNy42MjE0LC0yMy4xMzIwNSA2MC44MzgxLC0xOC4zODcwMSA5LjIzNTksMS44NjQxMiAxNy43MDkyLDcuMDMyODIgMjYuNjA2MSwxMC43NjEwNiAwLDAuNjc3ODYgLTAuMzM4OSwxLjc3OTM5IDAuMDg1LDIuMTE4MzIgOC4yMTkxLDYuNTI0NDIgMTYuNDM4MSwxMi45NjQxMiAyNC42NTcyLDE5LjQwMzgxIDguNTU4LDYuMTAwNzYgMjAuNjc0OCw0LjQ5MDgzIDI5LjgyNiwtMy4zODkzMSA5LjMyMDYsLTguMDQ5NjIgMTguMjE3NSwtMTcuMjAwNzYgMjguODA5MSwtMjMuMjE2NzkgMjIuOTYyNiwtMTMuMDQ4ODQgNTIuMjgwMSwtOC45ODE2NyA3Mi4xOTIzLDguMzAzODIgMy4zMDQ2LDIuODgwOTEgNi43Nzg2LDUuNjc3MDkgOS42NTk2LDguODk2OTQgNy4wMzI4LDguMDQ5NjEgMTUuMzM2NiwxMi43MDk5MSAyNi4yNjcxLDEzLjk4MDkxIDEyLjk2NDEsMS41MjUxOSAxNy45NjM0LDkuNDA1MzQgMTYuNTIyOSwyMi43MDgzOCAtMS4wMTY4LDkuMjM1ODcgLTkuNDkwMSwxNS4zMzY2MyAtMjAuODQ0MiwxNS4yNTE5IC0xOS44Mjc1LC0wLjE2OTQ2IC0zNS4yNDg5LC05LjQ5MDA3IC00OC43MjE0LC0yMy4xMzIwNSAtMy4yMTk4LC0zLjMwNDU4IC02LjYwOTIsLTYuNDM5NjkgLTEwLjE2NzksLTkuNDA1MzQgLTguNjQyOCwtNy4yMDIyOCAtMjAuNTkwMSwtNy43MTA2OCAtMjkuNjU2NSwtMC44NDczMiAtNS4xNjg3LDMuOTgyNDQgLTkuNzQ0Myw4LjcyNzQ3IC0xNC40ODkzLDEzLjMwMzA0IC0yNy43MDc2LDI2Ljc3NTU2IC02Ni4xNzYzLDI3LjExNDQ5IC05NC4zMDc2LDAuNzYyNiAtMy44OTc3LC0zLjY0MzUxIC03LjU0MTIsLTcuNjI1OTUgLTExLjUyMzcsLTExLjI2OTQ2IC0xMS4wMTUyLC0xMC4yNTI2NyAtMjQuMjMzNSwtMTAuMzM3NCAtMzUuNDE4MywtMC4zMzg5MyAtNy40NTY0LDYuNjA5MTUgLTE0LjQwNDUsMTMuODk2MTcgLTIyLjQ1NDEsMTkuNzQyNzMgLTIzLjEzMjEsMTYuNzc3MSAtNTYuODU1NzQsMTQuNzQzNTEgLTc4LjQ2MjYsLTQuMTUxOSAtNC45MTQ1LC00LjMyMTM3IC05LjQwNTM0LC05LjE1MTE0IC0xNC4yMzUxMSwtMTMuNjQxOTggLTEzLjgxMTQ0LC0xMi42MjUxOCAtMjcuMDI5NzYsLTEyLjI4NjI1IC00MC41ODcsMC42Nzc4NiAtNi41MjQ0Miw2LjE4NTUgLTEyLjk2NDEyLDEyLjU0MDQ1IC0yMC4yNTExMywxNy43OTM4OSAtMjEuNjA2ODYsMTUuNDIxMzYgLTU0LjMxMzcyLDE0LjA2NTY0IC03NC45ODg1MSwtMi43OTYxOCAtNi40Mzk3LC01LjI1MzQ0IC0xMi4yMDE1MiwtMTEuMTg0NzMgLTE4LjMwMjI4LC0xNi43NzcwOSAtMTIuMDMyMDYsLTExLjAxNTI3IC0yNC4yMzM1OCwtMTAuOTMwNTMgLTM2LjUxOTgzLC0wLjQyMzY3IC05LjQwNTM0LDguMDQ5NjIgLTE4LjM4NzAyLDE2Ljk0NjU2IC0yOC44MDkxNSwyMy4zMDE1MiAtMTkuNTczMjcsMTEuODYyNTggLTU0Ljk5MTU3LDguOTgxNjcgLTczLjI5Mzg1LC05LjY1OTU0IC00LjQwNjExLC00LjQ5MDg0IC04Ljk4MTY4LC04Ljk4MTY4IC0xMy43MjY3MSwtMTMuMjE4MzEgLTEyLjYyNTE5LC0xMS4xODQ3MyAtMjUuMjUwMzcsLTExLjAxNTI3IC0zNy43OTA4MiwwLjI1NDE5IC01LjA4Mzk3LDQuNTc1NTcgLTkuNTc0ODEsOS44MjkwMSAtMTQuODI4MjQsMTQuMDY1NjQgLTI4LjEzMTI4LDIyLjc5MzEyIC02My42MzQzMiwyMC44NDQyNyAtOTAuNDA5ODcsLTQuNzQ1MDMgLTMuMzA0NTgsLTMuMjE5ODUgLTYuNjA5MTYsLTYuNTI0NDIgLTkuOTEzNzQsLTkuNjU5NTQgLTExLjM1NDE5LC0xMC42NzYzMyAtMjQuODI2NywtMTAuNzYxMDYgLTM2LjUxOTgzLC0wLjMzODkzIC03LjI4NzAyLDYuNDM5NjkgLTE0LjA2NTY0LDEzLjU1NzI1IC0yMS45NDU3OSwxOS4xNDk2MSAtMjQuNDg3NzcsMTcuMzcwMjIgLTU4LjYzNTA4LDE0LjU3NDA0IC04MC42NjU2LC02LjAxNjAzIC00LjgyOTc3LC00LjQ5MDg0IC05LjQwNTM0LC05LjE1MTE0IC0xNC40MDQ1OCwtMTMuMzg3NzggLTEyLjIwMTUyLC0xMC4zMzc0IC0yNC43NDE5NywtOS45OTg0NyAtMzYuNTE5ODMsMC44NDczMyAtNS4zMzgxNiw0LjkxNDUgLTEwLjI1MjY2LDEwLjUwNjg3IC0xNS45Mjk3NiwxNC45OTc3IC0yNi40MzY2MywyMS4wOTg0NiAtNjEuMDkyMzMsMTkuODI3NDcgLTg2LjY4MTYzLC0yLjg4MDkxIC0zLjMwNDU4LC0yLjg4MDkyIC02LjQzOTY5LC01LjkzMTMgLTkuNDkwMDcsLTkuMTUxMTQgLTYuMTg1NSwtNi42OTM4OSAtMTMuMTMzNTgsLTEwLjkzMDUzIC0yMi43MDgzOSwtMTEuNjA4MzkgLTEyLjI4NjI1LC0wLjg0NzMzIC0xOS43NDI3NCwtMTAuMjUyNjcgLTE4LjM4NzAxLC0yMC45MjkgMS40NDA0NiwtMTEuNDM4OTIgMTEuOTQ3MzIsLTE5LjQ4ODU0IDIzLjk3OTM4LC0xOC42NDEyMSAxNi43NzcwOSwxLjE4NjI2IDMwLjY3MzI2LDguMTM0MzUgNDEuOTQyNzIsMjAuNTA1MzMgMy42NDM1MSwzLjk4MjQ0IDcuNTQxMjIsNy42MjU5NSAxMS41MjM2NiwxMS4xODQ3MyAwLjg0NzMzLDAuODQ3MzMgMi42MjY3MiwwLjQyMzY2IDMuOTgyNDQsMC41OTMxMyB6IiBjbGFzcz0ic3QxIi8+JiN4YTsJJiN4YTsJJiN4YTsJPHBhdGggc3R5bGU9InN0cm9rZS13aWR0aDowLjg0NzMyOCIgaWQ9InBhdGgxMiIgZD0ibSAzOTIuOTYyOTIsNjQ0LjI0MDE4IGMgMCw5LjA2NjQgLTcuMDMyODIsMTYuMTgzOTYgLTE2LjA5OTIzLDE2LjM1MzQyIC05LjMyMDYsMC4xNjk0NyAtMTYuODYxODIsLTcuMjAyMjggLTE2Ljc3NzA5LC0xNi40MzgxNiAwLjA4NDcsLTguOTgxNjcgNy4xMTc1NiwtMTYuMTgzOTYgMTYuMDk5MjMsLTE2LjQzODE2IDkuNDA1MzQsLTAuMTY5NDYgMTYuNzc3MDksNy4xMTc1NiAxNi43NzcwOSwxNi41MjI5IHoiIGNsYXNzPSJzdDAiLz4mI3hhOwk8cGF0aCBzdHlsZT0ic3Ryb2tlLXdpZHRoOjAuODQ3MzI4IiBpZD0icGF0aDE0IiBkPSJtIDQ5MS4xNjgyMSw2NjAuNTkzNiBjIC04Ljk4MTY3LDAuMTY5NDcgLTE2LjM1MzQyLC02Ljg2MzM1IC0xNi42OTIzNiwtMTUuNzYwMjkgLTAuMzM4OTMsLTkuMzIwNjEgNi44NjMzNiwtMTYuOTQ2NTYgMTYuMTgzOTcsLTE3LjAzMTI5IDkuMTUxMTQsLTAuMTY5NDcgMTYuNzc3MDksNy4zNzE3NSAxNi42OTIzNSwxNi42MDc2MiAwLDguODEyMjEgLTcuMjAyMjgsMTYuMDE0NSAtMTYuMTgzOTYsMTYuMTgzOTYgeiIgY2xhc3M9InN0MCIvPiYjeGE7CTxwYXRoIHN0eWxlPSJzdHJva2Utd2lkdGg6MC44NDczMjgiIGlkPSJwYXRoMTYiIGQ9Im0gMjYwLjk0OTI1LDY2MC41OTM2IGMgLTkuMzIwNjEsMC4wODQ3IC0xNi43NzcwOSwtNy4yODcwMiAtMTYuNjkyMzYsLTE2LjUyMjg5IDAuMDg0NywtOC45ODE2NyA3LjI4NzAyLC0xNi4xODM5NiAxNi4xODM5NiwtMTYuMzUzNDMgOS4xNTExNCwtMC4xNjk0NiAxNi42OTIzNiw3LjM3MTc2IDE2LjY5MjM2LDE2LjYwNzYzIDAsOC44OTY5NCAtNy4yMDIyOSwxNi4wOTkyMyAtMTYuMTgzOTYsMTYuMjY4NjkgeiIgY2xhc3M9InN0MCIvPiYjeGE7CTxwYXRoIHN0eWxlPSJzdHJva2Utd2lkdGg6MC44NDczMjgiIGlkPSJwYXRoMTgiIGQ9Im0gNjA1LjA0OTA3LDY2MC41OTM2IGMgLTguOTgxNjgsLTAuMDg0NyAtMTYuMTgzOTYsLTcuMjAyMjggLTE2LjI2ODcsLTE2LjE4Mzk2IC0wLjA4NDcsLTkuMjM1ODcgNy4zNzE3NiwtMTYuNzc3MDkgMTYuNjA3NjMsLTE2LjY5MjM2IDkuMjM1ODcsMC4wODQ3IDE2LjYwNzYyLDcuNzk1NDIgMTYuMjY4NjksMTYuOTQ2NTYgLTAuMjU0Miw5LjA2NjQxIC03LjU0MTIxLDE1LjkyOTc2IC0xNi42MDc2MiwxNS45Mjk3NiB6IiBjbGFzcz0ic3QwIi8+JiN4YTsJPHBhdGggc3R5bGU9InN0cm9rZS13aWR0aDowLjg0NzMyOCIgaWQ9InBhdGgyMCIgZD0ibSA4MzMuNTczMzgsNjYwLjU5MzYgYyAtOS4wNjY0MSwtMC4wODQ3IC0xNi4xODM5NywtNy4yODcwMiAtMTYuMjY4NywtMTYuMjY4NjkgLTAuMDg0NywtOS4yMzU4NyA3LjQ1NjQ5LC0xNi42OTIzNiAxNi42OTIzNiwtMTYuNjA3NjMgOS4xNTExNCwwLjA4NDcgMTYuNTIyODksNy44ODAxNSAxNi4xODM5NiwxNy4wMzEyOSAtMC4yNTQyLDguOTgxNjggLTcuNjI1OTUsMTUuOTI5NzcgLTE2LjYwNzYyLDE1Ljg0NTAzIHoiIGNsYXNzPSJzdDAiLz4mI3hhOwk8cGF0aCBzdHlsZT0ic3Ryb2tlLXdpZHRoOjAuODQ3MzI4IiBpZD0icGF0aDIyIiBkPSJtIDcxOS4xODQxMiw2NjAuNTkzNiBjIC04Ljk4MTY3LC0wLjE2OTQ2IC0xNi4wOTkyMywtNy40NTY0OCAtMTYuMDk5MjMsLTE2LjM1MzQyIDAsLTkuMjM1ODggNy42MjU5NSwtMTYuNjkyMzYgMTYuNzc3MDksLTE2LjQzODE2IDguODk2OTUsMC4xNjk0NiAxNi4wMTQ1LDcuNTQxMjEgMTYuMDk5MjMsMTYuNDM4MTYgMCw5LjE1MTE0IC03LjQ1NjQ4LDE2LjUyMjg5IC0xNi43NzcwOSwxNi4zNTM0MiB6IiBjbGFzcz0ic3QwIi8+JiN4YTs8cGF0aCBpZD0icGF0aDIyMSIgZD0ibSA3NDMuNzY5MzcsMjU1Ljg3OTYgYyAtNC43ODI5OSwtMi4zNjc1OSAtNy4xODMwNSwtNi4zNjc3NiAtNy4xNDAwOSwtMTEuOTAxMTUgMC4wNDI0LC01LjQzNjkzIDEuNzY4MTIsLTguMTMyMjcgMTEuMzMxMDYsLTE3LjY5NDM0IDE2LjE4MDY2LC0xNi4xNzkyOSAzNS43ODE4OSwtMjYuNzM5NjIgNTkuMTcwNjgsLTMxLjg3ODczIDExLjEzNjQzLC0yLjQ0Njk3IDM1LjUxOTU2LC0yLjI0MjAxIDQ3LjMwOTUzLDAuMzk3NjggMjIuMDc3MzgsNC45NDI5OSA0MS4wOTg3OSwxNS4yNDIwNSA1Ni45NDc0NiwzMC44MzM5MiA5LjkxNTg1LDkuNzU1MjcgMTEuNzgyMzUsMTIuNjUwMDYgMTEuNzgyMzUsMTguMjc0MjcgMCw1Ljg5OTUxIC0yLjIwMDQzLDkuNjI1OSAtNy4wNzgwNywxMS45ODcxOSAtNy40ODIzMywzLjYyMjA4IC0xMC4yNDUzOCwyLjQ1MDM1IC0yMi41NjQ2OCwtOS41Njg5IC0xMy42OTUxOSwtMTMuMzYxNjcgLTI0LjY2NDk1LC0xOS44MDUyMyAtNDEuNTkwODMsLTI0LjQzMDI0IC02LjE5MDI0LC0xLjY5MTQ4IC05LjEyNDM2LC0xLjk1MjE3IC0yMS45NzI0OCwtMS45NTIxNyAtMTIuNjUxMzcsMCAtMTUuODIzMzQsMC4yNzMzNiAtMjEuNjA2ODYsMS44NjIwNyAtMTcuMzE1NzMsNC43NTY1NiAtMjguMjQ3NzksMTEuMTQ1NTggLTQxLjk1NjU0LDI0LjUyMDM0IC0xMi4zMjM5NSwxMi4wMjM4NiAtMTUuMTkwMzgsMTMuMjMzMzkgLTIyLjYzMTUzLDkuNTUwMDYgeiBtIC02Mi42MjAwNiwtNjIuMTk0MzMgYyAtNi4xMTg5LC0zLjY2NzkgLTguMTY4MTYsLTEyLjA5MTE1IC00LjQzMzIyLC0xOC4yMjI4NSAyLjQxOTM3LC0zLjk3MTk0IDE2LjM4MTM5LC0xNy42ODgyNyAyNS4zMDE3MSwtMjQuODU2NDMgMjMuMDgxNzIsLTE4LjU0NzkzIDUxLjAwMTA5LC0zMi4zNjU1OCA3OS42ODMzLC0zOS40MzYxOCAxNy43NDEyNywtNC4zNzM1MSAyNy45NjU5NywtNS41NDkxMSA0OC4yNjMyLC01LjU0OTExIDMyLjUxNzQ4LDAgNTguNzY4NTQsNS44NTkzNyA4Ny4wNjE3NSwxOS40MzI2NyAyMS4zNTQxNSwxMC4yNDQ0MiAzOS4wNTkyMywyMi41NTc4MyA1NS4xNDY3NywzOC4zNTMwMiAxMC44Njk1MiwxMC42NzIwMyAxMi44NDQ4MSwxMy41Njk1MiAxMi44NDkyMSwxOC44NDc4NyAwLjAwOCw5LjkyMTQgLTEwLjEzMDM5LDE2LjQ4NzcyIC0xOC45MzM3LDEyLjI2MjUzIC0xLjQ2ODUxLC0wLjcwNDgyIC02LjI5MjM1LC00Ljk0ODY5IC0xMC43MTk2MywtOS40MzA4MiAtMTQuOTIyODksLTE1LjEwNzY4IC0yOS4zOTU0NywtMjUuNTc3NDYgLTQ3LjgyMjksLTM0LjU5NTcyIC0xNi42Mjk2NSwtOC4xMzg1MSAtMzEuNTkzMjksLTEyLjkxMjcgLTUwLjkyNzExLC0xNi4yNDg1MiAtMTIuMTExNzksLTIuMDg5NzUgLTQwLjcwMTMsLTIuMDkwMjMgLTUzLjI0MTU5LC04LjVlLTQgLTM4LjI5MTg0LDYuMzc5ODIgLTcxLjE2OTYsMjMuMjEzMDcgLTk4LjUwODA0LDUwLjQzNTY1IC01LjE4OTI5LDUuMTY3MjYgLTEwLjQ1Njk2LDkuNzgzNTQgLTExLjcwNiwxMC4yNTg0MSAtMy44MDk1OSwxLjQ0ODQ0IC04LjI5MDI2LDAuOTgyMzkgLTEyLjAxMzc1LC0xLjI0OTYyIHogTSAxMDMyLjAzLDEzNC4yOTI2MyBjIC0wLjQ1NCwtMC4xMTA1NyAtMS44MTMzLC0wLjQxNzA1IC0zLjAyMDUsLTAuNjgxMDYgLTEuMjcxNiwtMC4yNzgwNyAtNi40NDUxLC00LjY3NjA0IC0xMi4yOTczLC0xMC40NTM4OCAtNDQuNDQ4MywtNDMuODgzNTI1IC05OC4zMTI0NywtNjkuNTg3NDI3IC0xNjAuNDgwNzQsLTc2LjU4MDk2NCAtMTEuNDUzNjcsLTEuMjg4NDYzIC00MS4wODA2NSwtMS4yODg0NjMgLTUyLjUzNDMyLDAgLTYxLjUyNjkzLDYuOTIxMzk2IC0xMTYuNzc1MTYsMzMuMTA0Mzc3IC0xNTkuMjUzMDYsNzUuNDcyNDM0IC0xMS40NjA3OCwxMS40MzEwNSAtMTIuMTMzMTQsMTEuODgxNzUgLTE3LjczODQ3LDExLjg4ODYyIC01Ljg5NTI0LDAuMDA4IC05LjU0ODY2LC0yLjIxMDExIC0xMi4wMDYyNSwtNy4yODY4NSAtMy43NjYxMiwtNy43Nzk2OSAtMS40OTMzMywtMTIuMzc0MjMgMTIuOTgyNzEsLTI2LjI0NTczIDQ2LjA2NiwtNDQuMTQyMjQ4IDEwMS4wNzA3OSwtNzAuODcyMzY3IDE2My44NTQ4MSwtNzkuNjI2OTIzIDIwLjY4Mjg1LC0yLjg4Mzk5MSA1Ni4xNzE5OSwtMi44ODM5OTEgNzYuODU0ODQsMCA2Mi43MDM3OCw4Ljc0MzM2MyAxMTcuODQ3NTksMzUuNTQxMDk5IDE2My44NTQ2OCw3OS42MjY5MjMgMTAuNjkxNCwxMC4yNDQ5NiAxMy43NTI3LDE0LjI5MDg2IDE0LjM4NjEsMTkuMDEzNDYgMC41NTk0LDQuMTcwNzUgLTIuMTMxNSwxMC4yNzg1NiAtNS41MDEyLDEyLjQ4NjQ1IC0yLjE5NDEsMS40Mzc2NyAtNy4zOTcxLDIuODAyNTYgLTkuMTAxMywyLjM4NzUyIHoiIHN0eWxlPSJmaWxsOiMwMDAwMDA7c3Ryb2tlLXdpZHRoOjAuODQ3MzI4Ii8+PC9nPiYjeGE7PC9zdmc+;" vertex="1" parent="1">
          <mxGeometry x="-580" y="700" width="193.6" height="121" as="geometry" />
        </mxCell>
        <mxCell id="5XS556nmQgQ2dr4hD8sf-15" value="3" style="text;html=1;align=center;verticalAlign=middle;whiteSpace=wrap;rounded=0;fontSize=24;" vertex="1" parent="1">
          <mxGeometry x="-460" y="720" width="60" height="30" as="geometry" />
        </mxCell>
        <mxCell id="5XS556nmQgQ2dr4hD8sf-16" value="" style="endArrow=classic;startArrow=classic;html=1;rounded=0;fontColor=#3333FF;" edge="1" parent="1">
          <mxGeometry width="50" height="50" relative="1" as="geometry">
            <mxPoint x="-670" y="680" as="sourcePoint" />
            <mxPoint x="-620" y="590" as="targetPoint" />
          </mxGeometry>
        </mxCell>
        <mxCell id="5XS556nmQgQ2dr4hD8sf-18" value="" style="endArrow=classic;startArrow=classic;html=1;rounded=0;fontColor=#3333FF;" edge="1" parent="1">
          <mxGeometry width="50" height="50" relative="1" as="geometry">
            <mxPoint x="-490" y="680" as="sourcePoint" />
            <mxPoint x="-540" y="590" as="targetPoint" />
          </mxGeometry>
        </mxCell>
        <mxCell id="5XS556nmQgQ2dr4hD8sf-19" value="" style="endArrow=classic;startArrow=classic;html=1;rounded=0;fontColor=#3333FF;" edge="1" parent="1">
          <mxGeometry width="50" height="50" relative="1" as="geometry">
            <mxPoint x="-928" y="680" as="sourcePoint" />
            <mxPoint x="-978" y="590" as="targetPoint" />
          </mxGeometry>
        </mxCell>
        <mxCell id="5XS556nmQgQ2dr4hD8sf-20" value="" style="endArrow=classic;startArrow=classic;html=1;rounded=0;" edge="1" parent="1">
          <mxGeometry width="50" height="50" relative="1" as="geometry">
            <mxPoint x="-660" y="545" as="sourcePoint" />
            <mxPoint x="-940" y="545" as="targetPoint" />
          </mxGeometry>
        </mxCell>
        <mxCell id="5XS556nmQgQ2dr4hD8sf-25" value="0" style="text;html=1;align=center;verticalAlign=middle;whiteSpace=wrap;rounded=0;fontSize=24;" vertex="1" parent="1">
          <mxGeometry x="-1109" y="719" width="60" height="30" as="geometry" />
        </mxCell>
      </root>
    </mxGraphModel>
  </diagram>
</mxfile>
